<?xml version="1.0" standalone="no"?>
<!DOCTYPE svg PUBLIC "-//W3C//DTD SVG 20010904//EN"
 "http://www.w3.org/TR/2001/REC-SVG-20010904/DTD/svg10.dtd">
<svg version="1.0" xmlns="http://www.w3.org/2000/svg"
 width="520.000000pt" height="293.000000pt" viewBox="0 0 520.000000 293.000000"
 preserveAspectRatio="xMidYMid meet">

<g transform="translate(0.000000,293.000000) scale(0.100000,-0.100000)"
fill="#000000" stroke="none">
<path d="M1947 1993 c-4 -3 -7 -370 -7 -815 l0 -808 -124 0 -124 0 19 37 c23
45 24 65 4 107 -16 34 -69 66 -107 66 -20 0 -20 1 -5 18 10 11 17 35 17 59 0
34 -6 46 -31 67 l-31 26 -343 0 -343 0 -31 -26 c-25 -21 -31 -33 -31 -67 0
-22 7 -48 15 -57 14 -15 12 -18 -24 -35 -26 -11 -46 -29 -55 -50 -21 -43 -20
-63 3 -108 l19 -37 -144 0 c-89 0 -144 -4 -144 -10 0 -7 688 -10 2044 -10
1353 0 2047 3 2051 10 4 6 -40 10 -124 10 l-131 0 -2 313 -3 312 -57 3 c-32 2
-58 5 -58 6 0 2 8 32 19 67 52 176 81 290 81 318 0 27 -5 34 -35 46 -23 10
-41 12 -58 6 -26 -10 -39 -48 -118 -323 l-34 -117 -115 -3 -115 -3 -3 -312 -2
-313 -213 0 -212 0 3 801 c2 587 -1 805 -9 815 -10 12 -134 14 -724 14 -391 0
-715 -3 -718 -7z m973 -97 c0 -47 5 -88 10 -91 6 -3 26 -1 45 6 28 11 42 11
71 0 49 -18 56 -8 59 81 2 40 3 76 4 81 1 4 30 7 66 7 l65 0 0 -805 0 -805
-640 0 -640 0 0 805 0 805 480 0 480 0 0 -84z m160 4 c0 -44 -2 -80 -5 -80 -4
0 -19 7 -35 15 -27 14 -33 14 -60 0 -16 -8 -31 -15 -35 -15 -3 0 -5 36 -5 80
l0 80 70 0 70 0 0 -80z m295 -725 l0 -800 -57 -3 -58 -3 0 806 0 806 58 -3 57
-3 0 -800z m879 245 c19 -7 26 -17 26 -35 0 -28 -1 -29 -52 -14 -43 11 -45 15
-21 41 19 21 15 20 47 8z m-82 -157 c-10 -37 -32 -112 -47 -165 -16 -54 -32
-98 -37 -98 -5 0 -7 8 -4 18 2 9 18 62 34 117 17 55 33 112 36 127 10 44 26
81 32 75 4 -3 -3 -37 -14 -74z m58 70 c0 -4 -11 -43 -24 -87 -13 -45 -34 -118
-47 -163 -12 -46 -26 -83 -31 -83 -12 0 -11 3 21 109 16 53 37 126 47 164 10
37 22 67 26 67 5 0 8 -3 8 -7z m35 -24 c-7 -10 -55 -175 -78 -266 -6 -24 -14
-43 -19 -43 -11 0 -11 5 16 94 13 45 31 110 41 146 22 77 23 80 36 80 6 0 7
-5 4 -11z m35 -634 l0 -305 -230 0 -230 0 0 305 0 305 230 0 230 0 0 -305z
m-2790 -20 l0 -75 -150 0 -150 0 0 29 c0 29 2 30 53 34 28 2 2 4 -58 5 l-111
2 4 -35 4 -35 -116 0 c-103 0 -118 2 -136 20 -12 12 -20 33 -20 53 1 75 8 76
368 77 l312 0 0 -75z m53 64 c30 -16 37 -28 37 -66 0 -35 -29 -73 -55 -73 -12
0 -15 15 -15 75 0 41 3 75 6 75 3 0 15 -5 27 -11z m-363 -139 c0 -59 -6 -70
-27 -49 -8 8 -17 8 -32 0 -20 -11 -21 -10 -21 49 l0 60 40 0 40 0 0 -60z
m-100 -39 c0 -22 21 -33 40 -21 8 5 22 4 31 -1 25 -13 28 -12 39 16 l10 25
185 0 185 0 0 -95 0 -95 -389 0 -389 0 -31 31 c-34 33 -39 68 -17 108 24 43
51 50 199 51 128 0 137 -1 137 -19z m560 2 c31 -18 50 -51 50 -88 0 -28 -54
-85 -81 -85 -17 0 -19 8 -19 95 0 102 3 106 50 78z"/>
<path d="M2380 1600 c0 -60 16 -84 22 -32 3 23 8 27 33 27 25 0 31 -5 36 -30
5 -20 7 -9 7 35 0 39 -3 55 -7 41 -10 -38 -71 -38 -71 0 0 10 -4 19 -10 19 -6
0 -10 -27 -10 -60z"/>
<path d="M2528 1653 c20 -4 22 -10 22 -59 0 -30 5 -54 10 -54 6 0 10 25 10 55
l0 55 45 0 45 0 0 -55 c0 -30 5 -55 10 -55 6 0 10 24 10 54 0 49 2 55 23 59
12 2 -27 4 -88 4 -60 0 -100 -2 -87 -4z"/>
<path d="M2740 1600 c0 -58 15 -84 22 -37 2 17 11 23 35 25 21 2 34 10 38 23
10 30 -12 49 -56 49 l-39 0 0 -60z m75 25 c0 -14 -8 -21 -27 -23 -24 -3 -28 0
-28 23 0 23 4 26 28 23 19 -2 27 -9 27 -23z"/>
<path d="M2497 1493 c-4 -3 -7 -21 -7 -40 0 -30 3 -33 28 -32 23 2 24 2 5 6
-27 5 -30 20 -5 26 16 4 16 5 0 6 -21 1 -23 12 -6 29 7 7 8 12 2 12 -6 0 -14
-3 -17 -7z"/>
<path d="M2560 1445 c0 -14 2 -25 4 -25 2 0 6 11 8 25 3 14 1 25 -3 25 -5 0
-9 -11 -9 -25z"/>
<path d="M2601 1443 c1 -22 2 -23 6 -8 3 11 10 23 17 27 7 5 5 8 -6 8 -13 0
-18 -7 -17 -27z"/>
<path d="M2640 1451 c0 -24 13 -33 35 -25 23 9 14 38 -13 42 -16 3 -22 -2 -22
-17z m30 -6 c0 -8 -4 -15 -10 -15 -5 0 -10 7 -10 15 0 8 5 15 10 15 6 0 10 -7
10 -15z"/>
<path d="M2701 1443 c0 -16 3 -22 6 -13 3 8 10 21 16 28 7 8 5 12 -7 12 -11 0
-16 -8 -15 -27z"/>
<path d="M2462 1378 c-19 -19 -14 -46 9 -59 16 -8 24 -8 33 2 8 9 7 11 -6 6
-21 -7 -40 15 -32 38 4 10 14 15 25 12 11 -3 17 -1 13 4 -7 13 -28 11 -42 -3z"/>
<path d="M2630 1374 c0 -8 -4 -13 -9 -9 -5 3 -13 0 -17 -6 -4 -8 -3 -9 5 -5 7
4 15 -2 20 -16 9 -20 10 -19 10 15 1 20 -1 37 -4 37 -3 0 -5 -7 -5 -16z"/>
<path d="M2541 1356 c-16 -19 -7 -46 14 -46 22 0 30 29 13 46 -13 13 -16 13
-27 0z m24 -26 c-5 -8 -11 -8 -17 -2 -6 6 -7 16 -3 22 5 8 11 8 17 2 6 -6 7
-16 3 -22z"/>
<path d="M2667 1363 c-11 -10 -8 -41 4 -49 6 -3 16 -1 22 5 9 9 8 11 -7 5 -14
-5 -17 -3 -14 12 2 10 10 18 17 16 7 -1 10 2 6 8 -7 12 -19 13 -28 3z"/>
<path d="M2725 1359 c-4 -6 -4 -13 -1 -16 3 -4 6 -1 6 6 0 8 6 11 16 7 8 -3
12 -2 9 4 -8 13 -22 13 -30 -1z"/>
<path d="M2590 1336 c0 -2 8 -10 18 -17 15 -13 16 -12 3 4 -13 16 -21 21 -21
13z"/>
<path d="M2750 1331 c0 -8 -7 -11 -17 -6 -15 5 -16 4 -5 -6 9 -10 15 -10 24
-1 6 6 9 15 5 19 -4 3 -7 1 -7 -6z"/>
<path d="M2550 1067 c-36 -18 -70 -91 -70 -152 1 -110 68 -183 143 -151 46 19
69 58 74 130 6 80 -12 134 -56 163 -39 26 -55 28 -91 10z m87 -53 c24 -37 29
-130 10 -176 -17 -41 -52 -57 -85 -39 -43 23 -54 162 -17 218 22 33 69 31 92
-3z"/>
<path d="M2812 1067 c-46 -26 -57 -56 -57 -154 0 -87 1 -93 29 -122 36 -37 67
-45 109 -27 46 19 67 67 67 150 0 82 -19 130 -59 150 -36 19 -58 20 -89 3z
m87 -53 c17 -22 21 -41 21 -100 0 -62 -3 -77 -24 -101 -21 -24 -27 -26 -52
-18 -39 14 -54 48 -54 126 0 76 24 119 65 119 14 0 32 -11 44 -26z"/>
<path d="M2246 1048 c-3 -13 -6 -51 -6 -85 0 -68 13 -79 54 -48 28 21 53 18
81 -10 30 -29 32 -68 5 -95 -28 -28 -71 -26 -100 5 -41 43 -66 29 -34 -20 36
-55 139 -50 174 8 30 48 26 83 -14 123 -36 36 -90 46 -115 22 -10 -11 -12 -3
-9 37 l3 50 68 3 c51 2 67 6 67 17 0 12 -17 15 -84 15 -78 0 -84 -1 -90 -22z"/>
<path d="M3310 1435 c0 -215 3 -324 10 -320 6 4 10 122 10 320 0 198 -4 316
-10 320 -7 4 -10 -105 -10 -320z"/>
<path d="M3310 1010 c0 -38 4 -59 10 -55 6 3 10 28 10 55 0 27 -4 52 -10 55
-6 4 -10 -17 -10 -55z"/>
<path d="M1368 643 c12 -2 32 -2 45 0 12 2 2 4 -23 4 -25 0 -35 -2 -22 -4z"/>
<path d="M940 440 c0 -6 80 -10 219 -10 136 0 222 4 226 10 4 7 -72 10 -219
10 -144 0 -226 -4 -226 -10z"/>
<path d="M1425 440 c3 -5 24 -10 45 -10 21 0 42 5 45 10 4 6 -13 10 -45 10
-32 0 -49 -4 -45 -10z"/>
<path d="M365 360 c3 -5 17 -10 30 -10 13 0 27 5 30 10 4 6 -8 10 -30 10 -22
0 -34 -4 -30 -10z"/>
<path d="M4650 360 c0 -6 33 -10 80 -10 47 0 80 4 80 10 0 6 -33 10 -80 10
-47 0 -80 -4 -80 -10z"/>
</g>
</svg>
