<?xml version="1.0" standalone="yes"?>
<svg xmlns="http://www.w3.org/2000/svg" width="1920" height="1080">
<path style="fill:#fefbf8; stroke:none;" d="M0 0L0 1080L1920 1080L1920 0L0 0z"/>
<path style="fill:#feaf2d; stroke:none;" d="M628 372L628 373L680 373L663 372L628 372M626 373L625 375L626 373z"/>
<path style="fill:#4c43a0; stroke:none;" d="M628 375L628 376C621.968 377.034 616.138 386.158 616 392L603.709 406L580.626 439L571 456C567.97 456.856 567.717 457.919 568 461C563.142 461.909 560.894 467.149 558.14 471C548.37 484.667 552 503.745 552 520C577.017 520 607.679 515.21 632 521L632.269 540.411L645 544.004L680 550L680 520L699 520L699 479L680 480L680 375L630 375L630 374L680 374L667 373L628 373.167L628 375z"/>
<path style="fill:#feaf2d; stroke:none;" d="M858 438L906 438C906.014 432.958 906.169 427.626 908.438 423.001C913.051 413.598 925.216 411.716 931.262 421.015C935.071 426.875 933.972 434.752 931.91 441C924.705 462.84 903.432 482.126 885.83 495.985C877.968 502.176 866.613 508.406 860.603 516.439C856.841 521.468 856.804 546.993 859.603 552.682C862.138 557.834 881.855 555 887 555L958 555C963.846 555 978.709 557.685 983.397 553.972C988.076 550.266 984.946 530.702 985.004 525C985.029 522.579 986.201 517.877 984.168 516.028C979.962 512.201 963.566 515 958 515L926 515C943.933 496.348 965.377 483.71 976.691 459C980.775 450.082 982.996 440.792 983 431C983.006 415.047 981.018 400.792 969.706 388.518C949.975 367.108 904.316 367.613 881.996 384.554C865.645 396.965 858.166 417.977 858 438M1050 373L1050 374L1053 374L1050 373z"/>
<path style="fill:#f16260; stroke:none;" d="M1087 476C1087 487.8 1087.81 504.344 1079.47 513.815C1069.14 525.554 1052.31 516.354 1050 503L1005 503C1005.37 548.16 1061.95 572.787 1099 550.906C1123.85 536.234 1129.34 501.473 1129.99 475C1130.69 446.043 1130.97 405.451 1106 385.379C1067.82 354.688 1003.51 378.355 1000.09 428C999.111 442.205 1001.71 459.44 1010.53 470.999C1028.69 494.822 1066.33 497.723 1087 476z"/>
<path style="fill:#feaf2d; stroke:none;" d="M1072 373L1072 374L1080 374L1072 373z"/>
<path style="fill:#3f3969; stroke:none;" d="M630 374L630 375L680 375C667.111 369.591 644.049 374 630 374z"/>
<path style="fill:#feaf2d; stroke:none;" d="M1043 374L1043 375L1047 375L1043 374M1080 374L1080 375L1084 375L1080 374z"/>
<path style="fill:#f16260; stroke:none;" d="M625 375L626 376L625 375z"/>
<path style="fill:#3f3969; stroke:none;" d="M626.667 375.333L627.333 375.667L626.667 375.333z"/>
<path style="fill:#feaf2d; stroke:none;" d="M1040.67 375.333L1041.33 375.667L1040.67 375.333M1085.67 375.333L1086.33 375.667L1085.67 375.333M1037 376L1038 377L1037 376M1089 376L1090 377L1089 376M1034.67 377.333L1035.33 377.667L1034.67 377.333M1091.67 377.333L1092.33 377.667L1091.67 377.333M1032.67 378.333L1033.33 378.667L1032.67 378.333M1094 378L1095 379L1094 378z"/>
<path style="fill:#f16260; stroke:none;" d="M622 379L623 380L622 379z"/>
<path style="fill:#feaf2d; stroke:none;" d="M1029.67 379.333L1030.33 379.667L1029.67 379.333M1096.67 379.333L1097.33 379.667L1096.67 379.333M621 380L622 381L621 380z"/>
<path style="fill:#3f3969; stroke:none;" d="M623 380L624 381L623 380z"/>
<path style="fill:#feaf2d; stroke:none;" d="M1028 380L1029 381L1028 380M1098.67 380.333L1099.33 380.667L1098.67 380.333M1026.67 381.333L1027.33 381.667L1026.67 381.333M1100 381L1101 382L1100 381z"/>
<path style="fill:#f16260; stroke:none;" d="M620 382L621 383L620 382z"/>
<path style="fill:#feaf2d; stroke:none;" d="M1024.67 382.333L1025.33 382.667L1024.67 382.333M1101.67 382.333L1102.33 382.667L1101.67 382.333z"/>
<path style="fill:#3f3969; stroke:none;" d="M621 383L620 385L621 383z"/>
<path style="fill:#feaf2d; stroke:none;" d="M1103 383L1104 384L1103 383M618 384L619 385L618 384M1022 384L1023 385L1022 384M1105 384L1106 385L1105 384M1020.67 385.333L1021.33 385.667L1020.67 385.333M1106 385L1107 386L1106 385M617 386L618 387L617 386M1019 386L1020 387L1019 386M1107 386L1108 387L1107 386M616 387L617 388L616 387z"/>
<path style="fill:#3f3969; stroke:none;" d="M618 387L619 388L618 387z"/>
<path style="fill:#feaf2d; stroke:none;" d="M1018 387L1019 388L1018 387M1108 387L1109 388L1108 387M1017 388L1018 389L1017 388M1109 388L1110 389L1109 388M615 389L616 390L615 389M1016 389L1017 390L1016 389M1110 389L1111 390L1110 389M614 390L615 391L614 390z"/>
<path style="fill:#3f3969; stroke:none;" d="M616 390L617 391L616 390z"/>
<path style="fill:#feaf2d; stroke:none;" d="M1015 390L1016 391L1015 390M1111 390L1112 391L1111 390z"/>
<path style="fill:#f16260; stroke:none;" d="M614 391L615 392L614 391z"/>
<path style="fill:#3f3969; stroke:none;" d="M615 391L616 392L615 391z"/>
<path style="fill:#feaf2d; stroke:none;" d="M1014 391L1015 392L1014 391M1013 392L1014 393L1013 392M1113.33 392.667L1113.67 393.333L1113.33 392.667M612 393L613 394L612 393M1012 393L1013 394L1012 393M611 394L612 395L611 394M1011.33 394.667L1011.67 395.333L1011.33 394.667M1114 394L1115 395L1114 394M1115 395L1116 396L1115 395M610 396L611 397L610 396z"/>
<path style="fill:#3f3969; stroke:none;" d="M615 396L616 397L615 396z"/>
<path style="fill:#feaf2d; stroke:none;" d="M1010 396L1011 397L1010 396M609 397L610 398L609 397z"/>
<path style="fill:#3f3969; stroke:none;" d="M611 397L612 398L611 397z"/>
<path style="fill:#feaf2d; stroke:none;" d="M1009.33 397.667L1009.67 398.333L1009.33 397.667M1116 397L1117 398L1116 397M1117.33 398.667L1117.67 399.333L1117.33 398.667z"/>
<path style="fill:#f16260; stroke:none;" d="M608 399L609 400L608 399z"/>
<path style="fill:#3f3969; stroke:none;" d="M613 399L614 400L613 399z"/>
<path style="fill:#feaf2d; stroke:none;" d="M1008 399L1009 400L1008 399M607 400L608 401L607 400M1118.33 400.667L1118.67 401.333L1118.33 400.667M1007 401L1008 402L1007 401z"/>
<path style="fill:#f16260; stroke:none;" d="M606 402L607 403L606 402z"/>
<path style="fill:#feaf2d; stroke:none;" d="M1006.33 402.667L1006.67 403.333L1006.33 402.667M1119 402L1120 403L1119 402M605 403L606 404L605 403z"/>
<path style="fill:#3f3969; stroke:none;" d="M607 403L608 404L607 403z"/>
<path style="fill:#feaf2d; stroke:none;" d="M1005.33 404.667L1005.67 405.333L1005.33 404.667M1120 405L1121 406L1120 405z"/>
<path style="fill:#f16260; stroke:none;" d="M603 406L604 407L603 406z"/>
<path style="fill:#feaf2d; stroke:none;" d="M1004.33 406.667L1004.67 407.333L1004.33 406.667M1121.33 406.667L1121.67 407.333L1121.33 406.667z"/>
<path style="fill:#3f3969; stroke:none;" d="M604 407L605 408L604 407z"/>
<path style="fill:#feaf2d; stroke:none;" d="M601 409L602 410L601 409M1003 409L1003 412L1004 412L1003 409M1122.33 409.667L1122.67 410.333L1122.33 409.667M600 410L601 411L600 410M1002.33 412.667L1002.67 413.333L1002.33 412.667M1123 412L1124 413L1123 412M598 413L599 414L598 413M597 414L598 415L597 414z"/>
<path style="fill:#3f3969; stroke:none;" d="M598 415L599 416L598 415z"/>
<path style="fill:#feaf2d; stroke:none;" d="M1058 415L1058 416L1061 416L1058 415z"/>
<path style="fill:#fefbf8; stroke:none;" d="M1061.01 415.444C1037.58 419.368 1043.85 456.195 1068 452.238C1091.82 448.336 1084.7 411.478 1061.01 415.444z"/>
<path style="fill:#feaf2d; stroke:none;" d="M1068 415L1068 416L1071 416L1068 415M1124 415L1125 416L1124 415M1001 416L1001 419L1002 419L1001 416M1055 416L1054 418L1056 418L1055 416M1073 416L1076 418L1076 417L1073 416M595 417L596 418L595 417M1052 418L1053 419L1052 418M1076 418L1077 419L1076 418M1125.33 418.667L1125.67 419.333L1125.33 418.667z"/>
<path style="fill:#f16260; stroke:none;" d="M594 419L595 420L594 419z"/>
<path style="fill:#feaf2d; stroke:none;" d="M1051 419L1052 420L1051 419M1077 419L1078 420L1077 419M593 420L594 421L593 420M1050 420L1051 421L1050 420M1078 420L1079 421L1078 420z"/>
<path style="fill:#3f3969; stroke:none;" d="M594 421L595 422L594 421z"/>
<path style="fill:#feaf2d; stroke:none;" d="M1000 421L1000 425L1001 425L1000 421M1049 421L1050 422L1049 421M1053 421L1054 422L1053 421M1079 421L1080 422L1079 421M1048 422L1049 423L1048 422M1080.33 422.667L1080.67 423.333L1080.33 422.667M1126.33 422.667L1126.67 423.333L1126.33 422.667M591 423L592 424L591 423z"/>
<path style="fill:#3f3969; stroke:none;" d="M593 423L594 424L593 423M596 423L597 424L596 423M599 423L600 424L599 423z"/>
<path style="fill:#feaf2d; stroke:none;" d="M590 424L591 425L590 424M1047.33 424.667L1047.67 425.333L1047.33 424.667M1081 424L1081 427L1082 427L1081 424z"/>
<path style="fill:#f16260; stroke:none;" d="M589 426L590 427L589 426z"/>
<path style="fill:#3f3969; stroke:none;" d="M633 426L634 427L633 426z"/>
<path style="fill:#feaf2d; stroke:none;" d="M588 427L589 428L588 427z"/>
<path style="fill:#3f3969; stroke:none;" d="M590.333 427.667L590.667 428.333L590.333 427.667z"/>
<path style="fill:#feaf2d; stroke:none;" d="M1046 427L1046 431L1047 431L1046 427M1082 427L1082 431L1083 431L1082 427M1127.33 427.667L1127.67 428.333L1127.33 427.667z"/>
<path style="fill:#3f3969; stroke:none;" d="M632 428L633 429L632 428z"/>
<path style="fill:#feaf2d; stroke:none;" d="M634 428L633 430L634 428z"/>
<path style="fill:#f16260; stroke:none;" d="M587 429L588 430L587 429z"/>
<path style="fill:#fefbf8; stroke:none;" d="M634 429L602 478L635 478C635 464.212 639.309 441.652 634 429z"/>
<path style="fill:#feaf2d; stroke:none;" d="M586 430L587 431L586 430z"/>
<path style="fill:#f16260; stroke:none;" d="M632 430L633 431L632 430z"/>
<path style="fill:#3f3969; stroke:none;" d="M626 432L627 433L626 432M629 432L630 433L629 432z"/>
<path style="fill:#feaf2d; stroke:none;" d="M631 432L632 433L631 432M1128 432L1128 436L1129 436L1128 432M584 433L585 434L584 433M1045 433L1045 436L1046 436L1045 433z"/>
<path style="fill:#3f3969; stroke:none;" d="M585 434L586 435L585 434M624.333 434.667L624.667 435.333L624.333 434.667z"/>
<path style="fill:#feaf2d; stroke:none;" d="M630 434L631 435L630 434z"/>
<path style="fill:#f16260; stroke:none;" d="M583 435L584 436L583 435z"/>
<path style="fill:#feaf2d; stroke:none;" d="M629 435L630 436L629 435M582 436L583 437L582 436M581 437L582 438L581 437z"/>
<path style="fill:#3f3969; stroke:none;" d="M583 437L584 438L583 437z"/>
<path style="fill:#feaf2d; stroke:none;" d="M628 437L629 438L628 437M1046 437L1046 442L1047 442L1046 437M627 438L628 439L627 438M580 439L581 440L580 439z"/>
<path style="fill:#3f3969; stroke:none;" d="M582 439L583 440L582 439z"/>
<path style="fill:#feaf2d; stroke:none;" d="M579 440L580 441L579 440z"/>
<path style="fill:#3f3969; stroke:none;" d="M617 440L618 441L617 440M624 440L625 441L624 440z"/>
<path style="fill:#feaf2d; stroke:none;" d="M1082.33 440.667L1082.67 441.333L1082.33 440.667M1129 440L1129 446L1130 446L1129 440z"/>
<path style="fill:#f16260; stroke:none;" d="M625 441L626 442L625 441z"/>
<path style="fill:#feaf2d; stroke:none;" d="M1000 441L1000 446L1001 446L1000 441M1047.33 442.667L1047.67 443.333L1047.33 442.667M1081.33 442.667L1081.67 443.333L1081.33 442.667M577 443L578 444L577 443z"/>
<path style="fill:#3f3969; stroke:none;" d="M579 443L578 445L579 443z"/>
<path style="fill:#feaf2d; stroke:none;" d="M576 444L577 445L576 444z"/>
<path style="fill:#f16260; stroke:none;" d="M623 444L624 445L623 444z"/>
<path style="fill:#feaf2d; stroke:none;" d="M1080.33 444.667L1080.67 445.333L1080.33 444.667z"/>
<path style="fill:#3f3969; stroke:none;" d="M621 445L620 447L621 445z"/>
<path style="fill:#feaf2d; stroke:none;" d="M1048 445L1050 447L1050 445L1048 445M575 446L576 447L575 446z"/>
<path style="fill:#4c43a0; stroke:none;" d="M621 446L622 447L621 446z"/>
<path style="fill:#feaf2d; stroke:none;" d="M1079 446L1078 448L1080 448L1079 446z"/>
<path style="fill:#3f3969; stroke:none;" d="M576 447L575 449L576 447z"/>
<path style="fill:#f16260; stroke:none;" d="M621 447L622 448L621 447z"/>
<path style="fill:#feaf2d; stroke:none;" d="M1050 447L1051 448L1050 447z"/>
<path style="fill:#3f3969; stroke:none;" d="M616 448L617 449L616 448M619 448L620 449L619 448z"/>
<path style="fill:#feaf2d; stroke:none;" d="M1001 448L1001 453L1002 453L1001 448M1051 448L1052 449L1051 448M1077 448L1078 449L1077 448z"/>
<path style="fill:#f16260; stroke:none;" d="M573 449L574 450L573 449z"/>
<path style="fill:#feaf2d; stroke:none;" d="M620 449L621 450L620 449M1052 449L1055 451L1052 449M1076 449L1077 450L1076 449M572 450L573 451L572 450z"/>
<path style="fill:#3f3969; stroke:none;" d="M617.333 450.667L617.667 451.333L617.333 450.667z"/>
<path style="fill:#feaf2d; stroke:none;" d="M619 450L620 451L619 450M1074.67 450.333L1075.33 450.667L1074.67 450.333z"/>
<path style="fill:#3f3969; stroke:none;" d="M573 451L574 452L573 451z"/>
<path style="fill:#feaf2d; stroke:none;" d="M1056 451L1057 452L1056 451M1072.67 451.333L1073.33 451.667L1072.67 451.333M618 452L619 453L618 452M1058 452L1058 453L1062 453L1058 452M1066 452L1066 453L1072 453L1066 452M570 453L571 454L570 453z"/>
<path style="fill:#3f3969; stroke:none;" d="M572 453L573 454L572 453M575 453L576 454L575 453z"/>
<path style="fill:#f16260; stroke:none;" d="M617 453L618 454L617 453z"/>
<path style="fill:#feaf2d; stroke:none;" d="M1002 453L1002 456L1003 456L1002 453M569 454L570 455L569 454z"/>
<path style="fill:#f16260; stroke:none;" d="M569 455L570 456L569 455z"/>
<path style="fill:#3f3969; stroke:none;" d="M570 455L571 456L570 455M574 455L575 456L574 455z"/>
<path style="fill:#feaf2d; stroke:none;" d="M616 455L617 456L616 455z"/>
<path style="fill:#3f3969; stroke:none;" d="M609 456L610 457L609 456M613 456L614 457L613 456z"/>
<path style="fill:#f16260; stroke:none;" d="M615 456L616 457L615 456z"/>
<path style="fill:#feaf2d; stroke:none;" d="M1003 456L1003 459L1004 459L1003 456M615 457L616 458L615 457z"/>
<path style="fill:#3f3969; stroke:none;" d="M612 458L613 459L612 458z"/>
<path style="fill:#feaf2d; stroke:none;" d="M614 458L615 459L614 458z"/>
<path style="fill:#f16260; stroke:none;" d="M566 459L567 460L566 459z"/>
<path style="fill:#3f3969; stroke:none;" d="M567.333 459.667L567.667 460.333L567.333 459.667M611 459L612 460L611 459z"/>
<path style="fill:#f16260; stroke:none;" d="M613 459L614 460L613 459z"/>
<path style="fill:#feaf2d; stroke:none;" d="M565 460L566 461L565 460M1004.33 460.667L1004.67 461.333L1004.33 460.667M612 461L613 462L612 461M611 462L612 463L611 462M1005.33 462.667L1005.67 463.333L1005.33 462.667M563 463L564 464L563 463z"/>
<path style="fill:#3f3969; stroke:none;" d="M609 463L610 464L609 463z"/>
<path style="fill:#feaf2d; stroke:none;" d="M562 464L563 465L562 464z"/>
<path style="fill:#3f3969; stroke:none;" d="M601 464L602 465L601 464M607 464L608 465L607 464z"/>
<path style="fill:#feaf2d; stroke:none;" d="M610 464L611 465L610 464M1006.33 464.667L1006.67 465.333L1006.33 464.667z"/>
<path style="fill:#f16260; stroke:none;" d="M609 465L610 466L609 465M561 466L562 467L561 466z"/>
<path style="fill:#feaf2d; stroke:none;" d="M1007 466L1008 467L1007 466M560 467L561 468L560 467z"/>
<path style="fill:#3f3969; stroke:none;" d="M562 467L563 468L562 467M606 467L607 468L606 467z"/>
<path style="fill:#feaf2d; stroke:none;" d="M608 467L609 468L608 467M1008 468L1009 469L1008 468M559 469L560 470L559 469z"/>
<path style="fill:#3f3969; stroke:none;" d="M565 469L566 470L565 469M605 469L606 470L605 469z"/>
<path style="fill:#feaf2d; stroke:none;" d="M1009.33 469.667L1009.67 470.333L1009.33 469.667M558 470L559 471L558 470z"/>
<path style="fill:#3f3969; stroke:none;" d="M604 470L605 471L604 470z"/>
<path style="fill:#feaf2d; stroke:none;" d="M606 470L607 471L606 470z"/>
<path style="fill:#3f3969; stroke:none;" d="M559 471L560 472L559 471z"/>
<path style="fill:#feaf2d; stroke:none;" d="M1010 471L1011 472L1010 471z"/>
<path style="fill:#3f3969; stroke:none;" d="M603 472L604 473L603 472z"/>
<path style="fill:#feaf2d; stroke:none;" d="M1011 472L1016 478L1011 472M556 473L557 474L556 473M604 473L605 474L604 473M555 474L556 475L555 474z"/>
<path style="fill:#3f3969; stroke:none;" d="M557 474L558 475L557 474M601 474L600 476L602 476L601 474z"/>
<path style="fill:#f16260; stroke:none;" d="M603 474L604 475L603 474M554 476L555 477L554 476z"/>
<path style="fill:#3f3969; stroke:none;" d="M556 476L555 478L556 476M559.333 476.667L559.667 477.333L559.333 476.667z"/>
<path style="fill:#feaf2d; stroke:none;" d="M602 476L603 477L602 476M1086 476L1085 478L1087 478L1086 476M553 477L554 478L553 477z"/>
<path style="fill:#f16260; stroke:none;" d="M601 477L602 478L601 477z"/>
<path style="fill:#3f3969; stroke:none;" d="M639 477L640 478L639 477z"/>
<path style="fill:#feaf2d; stroke:none;" d="M552 478L553 479L552 478M602 478L602 479L635 479L602 478M680 478L680 479L699 479L680 478M1016.67 478.333L1017.33 478.667L1016.67 478.333M1084.33 478.667L1084.67 479.333L1084.33 478.667z"/>
<path style="fill:#3f3969; stroke:none;" d="M554 479L555 480L554 479M557.667 479.333L558.333 479.667L557.667 479.333M600 479L601 480L600 479M635 479L636 480L635 479M680 479L681 480L680 479z"/>
<path style="fill:#feaf2d; stroke:none;" d="M699 479L700 480L699 479M1018 479L1019 480L1018 479M551 480L551 520L552 520C552 508.566 555.411 490.512 551 480M1019 480L1020 481L1019 480M1082 480L1081 482L1083 482L1082 480M1129 480L1129 486L1130 486L1129 480M1020.67 481.333L1021.33 481.667L1020.67 481.333M1022 482L1023 483L1022 482M1080 482L1081 483L1080 482M1086 482L1086 491L1087 491L1086 482M1078.67 483.333L1079.33 483.667L1078.67 483.333M1016 484L1017 485L1016 484M1025 484L1025 485L1029 486L1029 485L1025 484M1077 484L1078 485L1077 484M1075.67 485.333L1076.33 485.667L1075.67 485.333M1029.67 486.333L1030.33 486.667L1029.67 486.333M1073.67 486.333L1074.33 486.667L1073.67 486.333M1032 487L1033 488L1032 487M1071 487L1072 488L1071 487M1035.67 488.333L1036.33 488.667L1035.67 488.333M1068.67 488.333L1069.33 488.667L1068.67 488.333M1037 489L1037 490L1040 490L1037 489M1064 489L1064 490L1068 490L1064 489M1043 490L1043 491L1048 491L1043 490M1056 490L1056 491L1064 491L1056 490M1128.33 492.667L1128.67 493.333L1128.33 492.667M1085 496L1085 500L1086 500L1085 496M1127.33 499.667L1127.67 500.333L1127.33 499.667M1084 500L1084 504L1085 504L1084 500M1004 502L1004 509L1005 509L1005 503L1050 503C1038.06 497.99 1017 502 1004 502M1050 503L1050 507L1051 507L1050 503M1126 504L1126 507L1127 507L1126 504M1083 505L1083 508L1084 508L1083 505M1051.33 507.667L1051.67 508.333L1051.33 507.667M1082.33 508.667L1082.67 509.333L1082.33 508.667M1125 508L1125 511L1126 511L1125 508M1052 509L1052 512L1053 512L1052 509M1005 510L1005 513L1006 513L1005 510M1081.33 510.667L1081.67 511.333L1081.33 510.667M1053 512L1055 514L1055 512L1053 512M1080 512L1081 513L1080 512M1124 512L1124 515L1125 515L1124 512M1006 514L1006 517L1007 517L1006 514M1055 514L1056 515L1055 514M1077 516L1080 514L1077 516M1056 515L1059 517L1056 515M1076 516L1077 517L1076 516M1123.33 516.667L1123.67 517.333L1123.33 516.667M1059.67 517.333L1060.33 517.667L1059.67 517.333M1074.67 517.333L1075.33 517.667L1074.67 517.333M1007 518L1008 519L1007 518M1062.67 518.333L1063.33 518.667L1062.67 518.333M1072.67 518.333L1073.33 518.667L1072.67 518.333M552 520L552 521L630 521L606 520L552 520M680.667 520.333L681.333 520.667L680.667 520.333M683 520L683 521L698 521L683 520M1008.33 520.667L1008.67 521.333L1008.33 520.667z"/>
<path style="fill:#f16260; stroke:none;" d="M631.333 521.667L631.667 522.333L631.333 521.667z"/>
<path style="fill:#feaf2d; stroke:none;" d="M1121.33 522.667L1121.67 523.333L1121.33 522.667M1009.33 523.667L1009.67 524.333L1009.33 523.667z"/>
<path style="fill:#f16260; stroke:none;" d="M631 524L632 525L631 524z"/>
<path style="fill:#feaf2d; stroke:none;" d="M1120.33 524.667L1120.67 525.333L1120.33 524.667M1010 525L1011 526L1010 525z"/>
<path style="fill:#f16260; stroke:none;" d="M631 526L632 527L631 526M631 528L631 538L632 538L631 528z"/>
<path style="fill:#feaf2d; stroke:none;" d="M1012 529L1013 530L1012 529M1118 529L1119 530L1118 529M1297 530L1297 531L1307 531L1297 530z"/>
<path style="fill:#f16260; stroke:none;" d="M1314 571C1355.87 571 1393.17 591.812 1417.69 625.286C1426.19 636.887 1432.22 650.214 1436.14 664C1437.37 668.314 1437.73 676.946 1443.06 677.852C1446.83 678.493 1458.24 679.355 1460.97 676.183C1465.2 671.281 1459.46 651.838 1458.12 646C1451.23 616.014 1436.26 590.322 1414 569.039C1350.06 507.899 1243.86 522.836 1193.58 593C1180.75 610.91 1171.88 632.162 1168.73 654C1167.82 660.302 1165.45 668.557 1167.32 674.852C1168.44 678.615 1172.87 677.994 1176 678L1200 678L1283 678C1289.75 678 1306.99 681.105 1312.4 676.821C1316.84 673.303 1314 655.372 1314 650L1314 571z"/>
<path style="fill:#feaf2d; stroke:none;" d="M1320 530L1320 531L1330 531L1320 530M1013 531L1014 532L1013 531M1117 531L1118 532L1117 531M1290 531L1290 532L1296 532L1290 531M1333 531L1333 532L1339 532L1333 531M1285 532L1285 533L1290 533L1285 532M1339 532L1339 533L1344 533L1339 532M1014 533L1015 534L1014 533M1116 533L1117 534L1116 533M1280 533L1280 534L1284 534L1280 533M1344 533L1344 534L1352 535L1344 533M768 534L768 535L774 535L768 534z"/>
<path style="fill:#f16260; stroke:none;" d="M774 534L774 535L780 535L774 534z"/>
<path style="fill:#feaf2d; stroke:none;" d="M780 534L780 535L784 535L780 534M1015 534L1016 535L1015 534M1115.33 534.667L1115.67 535.333L1115.33 534.667M1276 534L1276 535L1280 535L1276 534M763 535L764 536L763 535z"/>
<path style="fill:#f16260; stroke:none;" d="M764 535L765 536L764 535z"/>
<path style="fill:#4c43a0; stroke:none;" d="M744 544C733.527 543.552 722.346 557.305 716.64 565.015C714.716 567.616 711.451 571.48 711.994 574.985C712.587 578.817 717.429 581.506 719.961 584.039C726.553 590.635 732.515 603.286 740.326 607.972C747.137 612.059 763.146 609 771 609L851 609C851 603.241 851.233 582.983 844 582C845.1 573.891 838.272 565.962 833.235 560.184C817.297 541.901 796.587 534.962 773 535C764.633 535.013 748.77 536.111 744 544z"/>
<path style="fill:#f16260; stroke:none;" d="M789 535L790 536L789 535z"/>
<path style="fill:#feaf2d; stroke:none;" d="M790 535L791 536L790 535M1273 535L1273 536L1276 536L1273 535M1353.67 535.333L1354.33 535.667L1353.67 535.333M758 536L759 537L758 536z"/>
<path style="fill:#f16260; stroke:none;" d="M759 536L760 537L759 536M794 536L795 537L794 536z"/>
<path style="fill:#feaf2d; stroke:none;" d="M795 536L796 537L795 536M1017.33 536.667L1017.67 537.333L1017.33 536.667M1114 536L1115 537L1114 536M1269 536L1269 537L1272 537L1269 536M1357.67 536.333L1358.33 536.667L1357.67 536.333M754 537L755 538L754 537z"/>
<path style="fill:#f16260; stroke:none;" d="M755 537L756 538L755 537z"/>
<path style="fill:#feaf2d; stroke:none;" d="M798.667 537.333L799.333 537.667L798.667 537.333M1113.33 537.667L1113.67 538.333L1113.33 537.667M1266 537L1266 538L1269 538L1266 537M1360 537L1360 538L1363 538L1360 537z"/>
<path style="fill:#3f3969; stroke:none;" d="M756.667 538.333L757.333 538.667L756.667 538.333z"/>
<path style="fill:#feaf2d; stroke:none;" d="M801 538L802 539L801 538M1018 538L1019 539L1018 538M1264.67 538.333L1265.33 538.667L1264.67 538.333M1363.67 538.333L1364.33 538.667L1363.67 538.333M749 539L750 540L749 539M804 539L805 540L804 539M1019 539L1020 540L1019 539M1259 540L1259 541L1264 540L1259 540M1365 539L1365 540L1368 540L1365 539M631 540L624 541L624 542L632 541L631 540M746 540L747 541L746 540z"/>
<path style="fill:#f16260; stroke:none;" d="M747 540L748 541L747 540z"/>
<path style="fill:#feaf2d; stroke:none;" d="M806.667 540.333L807.333 540.667L806.667 540.333M1020 540L1021 541L1020 540M1111 540L1112 541L1111 540M1368 540L1368 541L1373 542L1373 541L1368 540M601 541L601 542L608 542L601 541z"/>
<path style="fill:#f16260; stroke:none;" d="M472 656C480.899 652.632 488.67 647.103 498 644.429C525.064 636.673 555.68 641.092 579 657.029C586.828 662.378 594.046 668.662 600.011 676.039C602.796 679.485 605.883 686.456 610.21 688.012C617.951 690.794 628.89 689 637 689L693 689L743 689C747.513 689 757.706 690.895 761.397 687.972C766.683 683.786 761.726 665.607 760.75 660C755.686 630.908 739.49 599.783 716.999 580.428C653.434 525.726 555.229 528.287 501.232 596.036C487.065 613.811 477.726 634.103 472 656z"/>
<path style="fill:#feaf2d; stroke:none;" d="M744 541L745 542L744 541z"/>
<path style="fill:#3f3969; stroke:none;" d="M792 541L793 542L792 541z"/>
<path style="fill:#f16260; stroke:none;" d="M808 541L809 542L808 541z"/>
<path style="fill:#feaf2d; stroke:none;" d="M809 541L810 542L809 541M1021 541L1022 542L1021 541M1110 541L1111 542L1110 541M1256.67 541.333L1257.33 541.667L1256.67 541.333M594 542L594 543L598 543L594 542M742 542L743 543L742 542z"/>
<path style="fill:#f16260; stroke:none;" d="M743 542L744 543L743 542z"/>
<path style="fill:#3f3969; stroke:none;" d="M807 542L808 543L807 542z"/>
<path style="fill:#f16260; stroke:none;" d="M810 542L811 543L810 542z"/>
<path style="fill:#feaf2d; stroke:none;" d="M1022 542L1023 543L1022 542M1109 542L1110 543L1109 542M1254.67 542.333L1255.33 542.667L1254.67 542.333M1373.67 542.333L1374.33 542.667L1373.67 542.333M588 543L588 544L591 544L588 543z"/>
<path style="fill:#f16260; stroke:none;" d="M741 543L742 544L741 543z"/>
<path style="fill:#3f3969; stroke:none;" d="M743 543L744 544L743 543M809 543L810 544L809 543z"/>
<path style="fill:#f16260; stroke:none;" d="M812 543L813 544L812 543z"/>
<path style="fill:#feaf2d; stroke:none;" d="M1023 543L1024 544L1023 543M1252.67 543.333L1253.33 543.667L1252.67 543.333M814 544L815 545L814 544M1024.67 544.333L1025.33 544.667L1024.67 544.333M1107 544L1108 545L1107 544M1250 544L1251 545L1250 544M1378 544L1379 545L1378 544M579.667 545.333L580.333 545.667L579.667 545.333M737 545L738 546L737 545M816 545L817 546L816 545M1026 545L1027 546L1026 545M1106 545L1107 546L1106 545M1248.67 545.333L1249.33 545.667L1248.67 545.333M1379.67 545.333L1380.33 545.667L1379.67 545.333M576.667 546.333L577.333 546.667L576.667 546.333z"/>
<path style="fill:#3f3969; stroke:none;" d="M738 546L739 547L738 546M814.667 546.333L815.333 546.667L814.667 546.333z"/>
<path style="fill:#f16260; stroke:none;" d="M817 546L818 547L817 546z"/>
<path style="fill:#feaf2d; stroke:none;" d="M1027 546L1028 547L1027 546M1105 546L1106 547L1105 546M1246.67 546.333L1247.33 546.667L1246.67 546.333M1381 546L1381 547L1384 547L1381 546M572.667 547.333L573.333 547.667L572.667 547.333M734 547L735 548L734 547M819 547L820 548L819 547M1028 547L1029 548L1028 547M1104 547L1105 548L1104 547M1245 547L1246 548L1245 547M1384 547L1385 548L1384 547M569 548L569 549L572 549L569 548z"/>
<path style="fill:#f16260; stroke:none;" d="M733 548L734 549L733 548z"/>
<path style="fill:#3f3969; stroke:none;" d="M735 548L736 549L735 548z"/>
<path style="fill:#f16260; stroke:none;" d="M820 548L821 549L820 548z"/>
<path style="fill:#feaf2d; stroke:none;" d="M1030 548L1031 549L1030 548M1102 548L1103 549L1102 548M1242.67 548.333L1243.33 548.667L1242.67 548.333M1385.67 548.333L1386.33 548.667L1385.67 548.333M566.667 549.333L567.333 549.667L566.667 549.333z"/>
<path style="fill:#3f3969; stroke:none;" d="M671 549L672 550L671 549z"/>
<path style="fill:#feaf2d; stroke:none;" d="M731 549L732 550L731 549z"/>
<path style="fill:#3f3969; stroke:none;" d="M739 549L740 550L739 549M743.333 549.667L743.667 550.333L743.333 549.667z"/>
<path style="fill:#feaf2d; stroke:none;" d="M822 549L823 550L822 549M1101 549L1102 550L1101 549M1241 549L1242 550L1241 549M1387 549L1388 550L1387 549M563.667 550.333L564.333 550.667L563.667 550.333M668 550L669 551L668 550M730 550L731 551L730 550z"/>
<path style="fill:#3f3969; stroke:none;" d="M733 550L734 551L733 550M820 550L821 551L820 550z"/>
<path style="fill:#feaf2d; stroke:none;" d="M823 550L824 551L823 550M1033 550L1034 551L1033 550M1099 550L1100 551L1099 550M1239 550L1240 551L1239 550M1389 550L1390 551L1389 550M561.667 551.333L562.333 551.667L561.667 551.333M669 551L669 552L672 552L669 551M729 551L730 552L729 551z"/>
<path style="fill:#3f3969; stroke:none;" d="M731 551L732 552L731 551z"/>
<path style="fill:#feaf2d; stroke:none;" d="M1035 551L1036 552L1035 551M1098 551L1099 552L1098 551M1237 551L1238 552L1237 551M1390.67 551.333L1391.33 551.667L1390.67 551.333M558.667 552.333L559.333 552.667L558.667 552.333M672.667 552.333L673.333 552.667L672.667 552.333M1037 552L1038 553L1037 552M1236 552L1237 553L1236 552M1392 552L1395 554L1392 552M556.667 553.333L557.333 553.667L556.667 553.333M674.667 553.333L675.333 553.667L674.667 553.333z"/>
<path style="fill:#f16260; stroke:none;" d="M727 553L728 554L727 553M826 553L827 554L826 553z"/>
<path style="fill:#feaf2d; stroke:none;" d="M1039 553L1040 554L1039 553M1093 553L1094 554L1093 553M1234 553L1235 554L1234 553M554 554L555 555L554 554M677 554L678 555L677 554z"/>
<path style="fill:#3f3969; stroke:none;" d="M825 554L827 556L825 554z"/>
<path style="fill:#f16260; stroke:none;" d="M827 554L828 555L827 554z"/>
<path style="fill:#feaf2d; stroke:none;" d="M1041.67 554.333L1042.33 554.667L1041.67 554.333M1090.67 554.333L1091.33 554.667L1090.67 554.333M1232.67 554.333L1233.33 554.667L1232.67 554.333M1395.67 554.333L1396.33 554.667L1395.67 554.333M552 555L553 556L552 555M679 555L680 556L679 555M724 555L725 556L724 555z"/>
<path style="fill:#3f3969; stroke:none;" d="M727 555L728 556L727 555z"/>
<path style="fill:#f16260; stroke:none;" d="M828 555L829 556L828 555z"/>
<path style="fill:#feaf2d; stroke:none;" d="M1044.67 555.333L1045.33 555.667L1044.67 555.333M1088 555L1089 556L1088 555M1231 555L1232 556L1231 555M1397 555L1398 556L1397 555M550 556L551 557L550 556M681 556L682 557L681 556M1048 556L1048 557L1051 557L1048 556M1083.67 556.333L1084.33 556.667L1083.67 556.333M1229.67 556.333L1230.33 556.667L1229.67 556.333M1398.67 556.333L1399.33 556.667L1398.67 556.333M548 557L549 558L548 557M683 557L684 558L683 557z"/>
<path style="fill:#3f3969; stroke:none;" d="M828 557L829 558L828 557z"/>
<path style="fill:#f16260; stroke:none;" d="M830 557L831 558L830 557z"/>
<path style="fill:#feaf2d; stroke:none;" d="M1054.67 557.333L1055.33 557.667L1054.67 557.333M1076 557L1076 558L1080 558L1076 557M1228 557L1229 558L1228 557M1400 557L1401 558L1400 557M546 558L547 559L546 558M685 558L686 559L685 558M721 558L722 559L721 558M1227 558L1228 559L1227 558M1401 558L1404 560L1401 558M544.667 559.333L545.333 559.667L544.667 559.333M687 559L688 560L687 559z"/>
<path style="fill:#f16260; stroke:none;" d="M721 559L722 560L721 559z"/>
<path style="fill:#3f3969; stroke:none;" d="M723 559L724 560L723 559M826 559L827 560L826 559z"/>
<path style="fill:#feaf2d; stroke:none;" d="M832 559L833 560L832 559M542 560L543 561L542 560M689 560L690 561L689 560M833 560L834 561L833 560M1404 560L1405 561L1404 560M541 561L542 562L541 561M690 561L691 562L690 561M719 561L720 562L719 561M834 561L835 562L834 561M1223 561L1224 562L1223 561M1405 561L1406 562L1405 561M539 562L540 563L539 562M692 562L693 563L692 562M718 562L719 563L718 562z"/>
<path style="fill:#3f3969; stroke:none;" d="M833.333 562.667L833.667 563.333L833.333 562.667z"/>
<path style="fill:#feaf2d; stroke:none;" d="M1222 562L1223 563L1222 562M1406 562L1408 564L1408 562L1406 562M537.667 563.333L538.333 563.667L537.667 563.333M693.667 563.333L694.333 563.667L693.667 563.333M717 563L718 564L717 563z"/>
<path style="fill:#3f3969; stroke:none;" d="M719 563L720 564L719 563z"/>
<path style="fill:#feaf2d; stroke:none;" d="M1220.67 563.333L1221.33 563.667L1220.67 563.333M536 564L537 565L536 564M695 564L696 565L695 564z"/>
<path style="fill:#f16260; stroke:none;" d="M836 564L837 565L836 564z"/>
<path style="fill:#feaf2d; stroke:none;" d="M1219 564L1220 565L1219 564M1408.67 564.333L1409.33 564.667L1408.67 564.333M534.667 565.333L535.333 565.667L534.667 565.333M696.667 565.333L697.333 565.667L696.667 565.333z"/>
<path style="fill:#f16260; stroke:none;" d="M716 565L717 566L716 565z"/>
<path style="fill:#3f3969; stroke:none;" d="M718 565L719 566L718 565M835.333 565.667L835.667 566.333L835.333 565.667z"/>
<path style="fill:#feaf2d; stroke:none;" d="M837 565L838 566L837 565M1218 565L1219 566L1218 565M1410 565L1411 566L1410 565M533 566L534 567L533 566M698 566L699 567L698 566M715 566L716 567L715 566M1217 566L1218 567L1217 566M1411 566L1412 567L1411 566M532 567L533 568L532 567M699 567L700 568L699 567z"/>
<path style="fill:#3f3969; stroke:none;" d="M716 567L715 569L716 567M833 567L834 568L833 567z"/>
<path style="fill:#feaf2d; stroke:none;" d="M1412 567L1413 568L1412 567M530 568L531 569L530 568M701 568L702 569L701 568z"/>
<path style="fill:#3f3969; stroke:none;" d="M718 568L719 569L718 568z"/>
<path style="fill:#feaf2d; stroke:none;" d="M1214.33 568.667L1214.67 569.333L1214.33 568.667M1413 568L1414 569L1413 568M528.667 569.333L529.333 569.667L528.667 569.333M702.667 569.333L703.333 569.667L702.667 569.333M713 569L714 570L713 569M1414 569L1415 570L1414 569M527 570L528 571L527 570M704 570L705 571L704 570z"/>
<path style="fill:#3f3969; stroke:none;" d="M714 570L715 571L714 570z"/>
<path style="fill:#f16260; stroke:none;" d="M840 570L841 571L840 570z"/>
<path style="fill:#feaf2d; stroke:none;" d="M1212 570L1213 571L1212 570M1415 570L1416 571L1415 570M526 571L527 572L526 571M705 571L706 572L705 571z"/>
<path style="fill:#f16260; stroke:none;" d="M712 571L713 572L712 571z"/>
<path style="fill:#3f3969; stroke:none;" d="M717 571L718 572L717 571z"/>
<path style="fill:#feaf2d; stroke:none;" d="M841 571L842 572L841 571M1211 571L1212 572L1211 571M1314 571L1314 677L1315 677L1315 572L1328 572L1314 571M1416 571L1417 572L1416 571M524.667 572.333L525.333 572.667L524.667 572.333M706.667 572.333L707.333 572.667L706.667 572.333z"/>
<path style="fill:#3f3969; stroke:none;" d="M840 572L842 577L843 577L840 572z"/>
<path style="fill:#feaf2d; stroke:none;" d="M1210 572L1211 573L1210 572M1329 572L1329 573L1335 573L1329 572M1417 572L1418 573L1417 572M523 573L524 574L523 573M708 573L709 574L708 573z"/>
<path style="fill:#f16260; stroke:none;" d="M711 573L712 574L711 573z"/>
<path style="fill:#feaf2d; stroke:none;" d="M842 573L843 574L842 573M1209 573L1210 574L1209 573M1336 573L1336 574L1340 574L1336 573M1418 573L1419 574L1418 573M522 574L523 575L522 574M709.667 574.333L710.333 574.667L709.667 574.333M1208 574L1209 575L1208 574M1340 574L1340 575L1344 575L1340 574M1419 574L1420 575L1419 574M521 575L522 576L521 575M1345 575L1345 576L1348 576L1345 575M1420 575L1421 576L1420 575M1206.33 576.667L1206.67 577.333L1206.33 576.667M1349 576L1349 577L1352 577L1349 576M1421 576L1422 577L1421 576M518.667 577.333L519.333 577.667L518.667 577.333M844 577L845 578L844 577M1352 577L1352 578L1355 578L1352 577M1422 577L1423 578L1422 577M517 578L518 579L517 578M1355 578L1355 579L1358 579L1355 578M1423 578L1424 579L1423 578M516 579L517 580L516 579z"/>
<path style="fill:#3f3969; stroke:none;" d="M717 579L718 580L717 579z"/>
<path style="fill:#feaf2d; stroke:none;" d="M845 579L846 580L845 579M1204 579L1205 580L1204 579M1358.67 579.333L1359.33 579.667L1358.67 579.333M1424 579L1425 580L1424 579M515 580L516 581L515 580z"/>
<path style="fill:#3f3969; stroke:none;" d="M844.333 580.667L844.667 581.333L844.333 580.667z"/>
<path style="fill:#f16260; stroke:none;" d="M845 580L846 581L845 580z"/>
<path style="fill:#feaf2d; stroke:none;" d="M1203 580L1204 581L1203 580M1360 580L1360 581L1363 581L1360 580M1425 580L1426 581L1425 580M514 581L515 582L514 581M1202 581L1203 582L1202 581M1363.67 581.333L1364.33 581.667L1363.67 581.333M1426 581L1428 584L1426 581M513 582L514 583L513 582z"/>
<path style="fill:#f16260; stroke:none;" d="M846 582L847 583L846 582z"/>
<path style="fill:#feaf2d; stroke:none;" d="M1201 582L1202 583L1201 582M1365.67 582.333L1366.33 582.667L1365.67 582.333M512 583L513 584L512 583z"/>
<path style="fill:#3f3969; stroke:none;" d="M845 583L845 586L846 586L845 583z"/>
<path style="fill:#feaf2d; stroke:none;" d="M1200 583L1201 584L1200 583M1368 583L1369 584L1368 583M511 584L512 585L511 584M1199.33 584.667L1199.67 585.333L1199.33 584.667M1370 584L1373 586L1370 584M1428 584L1429 585L1428 584M510 585L511 586L510 585z"/>
<path style="fill:#f16260; stroke:none;" d="M847 585L848 586L847 585z"/>
<path style="fill:#feaf2d; stroke:none;" d="M1429 585L1430 586L1429 585M509 586L510 587L509 586z"/>
<path style="fill:#3f3969; stroke:none;" d="M724 586L725 587L724 586z"/>
<path style="fill:#feaf2d; stroke:none;" d="M1198 586L1199 587L1198 586M1373 586L1373 587L1376 587L1373 586M1430 586L1430 588L1432 588L1430 586M508 587L509 588L508 587M1197 587L1198 588L1197 587M1376 587L1377 588L1376 587M507 588L508 589L507 588M848 588L849 589L848 588M1196 588L1197 589L1196 588M1377.67 588.333L1378.33 588.667L1377.67 588.333M506 589L507 590L506 589M1195.33 589.667L1195.67 590.333L1195.33 589.667M1379 589L1380 590L1379 589M1432 589L1433 590L1432 589M505.333 590.667L505.667 591.333L505.333 590.667M1380.67 590.333L1381.33 590.667L1380.67 590.333M1433.33 590.667L1433.67 591.333L1433.33 590.667M1194 591L1195 592L1194 591M1382 591L1383 592L1382 591M1193.33 592.667L1193.67 593.333L1193.33 592.667M1384 592L1388 595L1388 594L1384 592M503 593L504 594L503 593M1435 593L1436 594L1435 593M502 594L503 595L502 594M1192 594L1193 595L1192 594M1436.33 594.667L1436.67 595.333L1436.33 594.667M501 595L502 596L501 595M1191 595L1192 596L1191 595M1388 595L1389 596L1388 595M500 596L501 597L500 596M850.333 596.667L850.667 597.333L850.333 596.667M1389 596L1392 598L1389 596M1437 596L1438 597L1437 596M1190 597L1191 598L1190 597M1438.33 597.667L1438.67 598.333L1438.33 597.667M499 598L500 599L499 598z"/>
<path style="fill:#f16260; stroke:none;" d="M850 598L851 599L850 598z"/>
<path style="fill:#feaf2d; stroke:none;" d="M1189 598L1190 599L1189 598M1392 598L1394 600L1394 598L1392 598M498 599L499 600L498 599z"/>
<path style="fill:#3f3969; stroke:none;" d="M849 599L850 600L849 599z"/>
<path style="fill:#feaf2d; stroke:none;" d="M1439 599L1440 600L1439 599M497 600L496 602L498 602L497 600M1188 600L1189 601L1188 600M1394 600L1398 603L1394 600M1187.33 601.667L1187.67 602.333L1187.33 601.667M1440 601L1441 602L1440 601M1441 602L1442 603L1441 602M495 603L496 604L495 603M1186 603L1187 604L1186 603M1398 603L1398 605L1400 605L1398 603M494.333 604.667L494.667 605.333L494.333 604.667M1442 604L1443 605L1442 604M1185 605L1186 606L1185 605M1400 605L1401 606L1400 605M493 606L494 607L493 606M1184.33 606.667L1184.67 607.333L1184.33 606.667M1401 606L1403 608L1403 606L1401 606M1443 606L1444 607L1443 606M851.333 607.667L851.667 608.333L851.333 607.667M1403 608L1405 610L1405 608L1403 608M1444 608L1445 609L1444 608M491 609L492 610L491 609M740 609L741 610L740 609M1183 609L1184 610L1183 609M1445.33 609.667L1445.67 610.333L1445.33 609.667M741 610L742 611L741 610M1182.33 610.667L1182.67 611.333L1182.33 610.667M1405 610L1406 611L1405 610M490 611L491 612L490 611M1406 611L1407 612L1406 611M1446.33 611.667L1446.67 612.333L1446.33 611.667M489.333 612.667L489.667 613.333L489.333 612.667M742 612L743 613L742 612M1181.33 612.667L1181.67 613.333L1181.33 612.667M1407 612L1408 613L1407 612M743 613L744 614L743 613M1408 613L1409 614L1408 613M1447.33 613.667L1447.67 614.333L1447.33 613.667M488 614L489 615L488 614M1180.33 614.667L1180.67 615.333L1180.33 614.667M1409 614L1409 616L1411 616L1409 614M1179.33 616.667L1179.67 617.333L1179.33 616.667M1411.33 616.667L1411.67 617.333L1411.33 616.667M486.333 617.667L486.667 618.333L486.333 617.667M745.333 617.667L745.667 618.333L745.333 617.667M1412 618L1413 619L1412 618M1449 618L1450 619L1449 618M485.333 619.667L485.667 620.333L485.333 619.667M746 619L747 620L746 619M1178 619L1179 620L1178 619M1413 619L1414 620L1413 619M1414.33 620.667L1414.67 621.333L1414.33 620.667M1450.33 620.667L1450.67 621.333L1450.33 620.667M484 621L485 622L484 621M747 621L748 622L747 621M1177.33 621.667L1177.67 622.333L1177.33 621.667M748.333 622.667L748.667 623.333L748.333 622.667M1415 622L1416 623L1415 622M1451.33 622.667L1451.67 623.333L1451.33 622.667M483 623L484 624L483 623M749.333 624.667L749.667 625.333L749.333 624.667M1417.33 624.667L1417.67 625.333L1417.33 624.667M482.333 625.667L482.667 626.333L482.333 625.667M1452.33 625.667L1452.67 626.333L1452.33 625.667M1418 626L1419 627L1418 626M481.333 627.667L481.667 628.333L481.333 627.667M750.333 627.667L750.667 628.333L750.333 627.667M1175 627L1176 628L1175 627M1419.33 627.667L1419.67 628.333L1419.33 627.667M1453 627L1453 630L1454 630L1453 627M480.333 629.667L480.667 630.333L480.333 629.667M751 629L752 630L751 629M1174.33 629.667L1174.67 630.333L1174.33 629.667M1420 629L1421 630L1420 629M1421.33 630.667L1421.67 631.333L1421.33 630.667M1454.33 630.667L1454.67 631.333L1454.33 630.667M479 632L480 633L479 632M1173.33 632.667L1173.67 633.333L1173.33 632.667M1422.33 632.667L1422.67 633.333L1422.33 632.667M478.333 634.667L478.667 635.333L478.333 634.667M753.333 634.667L753.667 635.333L753.333 634.667M1423 634L1424 635L1423 634M1455 634L1456 635L1455 634M1172.33 635.667L1172.67 636.333L1172.33 635.667M754.333 636.667L754.667 637.333L754.333 636.667M1424 636L1425 637L1424 636M477 637L478 638L477 637M1425.33 637.667L1425.67 638.333L1425.33 637.667M1456.33 637.667L1456.67 638.333L1456.33 637.667M1171.33 639.667L1171.67 640.333L1171.33 639.667M1426.33 639.667L1426.67 640.333L1426.33 639.667M476 640L477 641L476 640M1457 640L1457 644L1458 644L1457 640M511 641L511 642L516 642L511 641M536 641L536 642L539 642L536 641M1427.33 641.667L1427.67 642.333L1427.33 641.667M475.333 642.667L475.667 643.333L475.333 642.667M506 642L506 643L510 643L506 642M541 642L541 643L545 643L541 642M756.333 642.667L756.667 643.333L756.333 642.667M501 643L501 644L504 644L501 643M546 643L546 644L550 644L546 643M1170.33 643.667L1170.67 644.333L1170.33 643.667M1428 643L1430 650L1431 650L1428 643M497 644L497 645L500 645L497 644M550.667 644.333L551.333 644.667L550.667 644.333M474 645L474 648L475 648L474 645M494.667 645.333L495.333 645.667L494.667 645.333M554.667 645.333L555.333 645.667L554.667 645.333M757 645L757 648L758 648L757 645M1458 645L1458 648L1459 648L1458 645M491 646L491 647L494 647L491 646M556 646L556 647L559 647L556 646M490 647L491 648L490 647M560 647L561 648L560 647M1169.33 647.667L1169.67 648.333L1169.33 647.667M484 649L484 650L488 649L484 649M563 648L564 649L563 648M758 648L758 651L759 651L758 648M1459 648L1459 653L1460 653L1459 648M473 649L474 650L473 649M565 649L566 650L565 649M482.667 650.333L483.333 650.667L482.667 650.333M566.667 650.333L567.333 650.667L566.667 650.333M1431 650L1432 651L1431 650M480.667 651.333L481.333 651.667L480.667 651.333M568 651L568 652L572 653L572 652L568 651M478.667 652.333L479.333 652.667L478.667 652.333M759.333 652.667L759.667 653.333L759.333 652.667M1168 652L1168 656L1169 656L1168 652M1432.33 652.667L1432.67 653.333L1432.33 652.667M472.333 653.667L472.667 654.333L472.333 653.667M477 653L478 654L477 653M572.667 653.333L573.333 653.667L572.667 653.333M475 654L476 655L475 654M574.667 654.333L575.333 654.667L574.667 654.333M474 655L475 656L474 655M576 655L577 656L576 655M1433.33 655.667L1433.67 656.333L1433.33 655.667M578 656L578 658L580 658L578 656M760 656L760 659L761 659L760 656M1460 656L1460 659L1461 659L1460 656M581 658L582 659L581 658M1434 658L1434 661L1435 661L1434 658M582 659L583 660L582 659M1167 660L1167 663L1168 663L1167 660M584.667 661.333L585.333 661.667L584.667 661.333M1435 661L1435 664L1436 664L1435 661M586 662L587 663L586 662M761 662L761 665L762 665L761 662M587 663L588 664L587 663M588 664L589 665L588 664M1461 664L1461 670L1462 670L1461 664M589 665L590 666L589 665M1436 665L1436 668L1437 668L1436 665M590.667 666.333L591.333 666.667L590.667 666.333M762 667L762 672L763 672L762 667M592 668L596 672L592 668M1437 668L1437 672L1438 672L1437 668M597.333 672.667L597.667 673.333L597.333 672.667M1166 672L1166 677L1167 677L1166 672M1438 672L1438 677L1439 677L1438 672M598 674L599 675L598 674M599 675L600 676L599 675M600 676L602 679L600 676M1167 677L1168 678L1167 677M1312.67 677.333L1313.33 677.667L1312.67 677.333M1439 677L1440 678L1439 677M1456 677L1456 678L1459 678L1456 677M1460.67 677.333L1461.33 677.667L1460.67 677.333M763 678L762 689C764.923 686.446 764.422 681.388 763 678M602 679L603 680L602 679M603 680L605 683L603 680M605 683L606 684L605 683M606.333 684.667L606.667 685.333L606.333 684.667M607 686L608 687L607 686M608.667 688.333L609.333 688.667L608.667 688.333M611 688L611 689L615 689L611 688M728.333 788.667L728.667 789.333L728.333 788.667z"/>
<path style="fill:#4c43a0; stroke:none;" d="M729 790L756 789C750.953 786.882 732.696 785.77 729 790z"/>
<path style="fill:#feaf2d; stroke:none;" d="M825 788L825 822L826 822L825 788z"/>
<path style="fill:#4c43a0; stroke:none;" d="M826 791L827 791L837 789C833.807 787.16 826.923 786.693 826 791z"/>
<path style="fill:#feaf2d; stroke:none;" d="M837 788L838 789L837 788M853 788L854 789L853 788z"/>
<path style="fill:#4c43a0; stroke:none;" d="M852 794L853 794L854 789L865 789C859.286 786.602 853.683 787.762 852 794z"/>
<path style="fill:#feaf2d; stroke:none;" d="M971 788L971 822L972 822L971 788z"/>
<path style="fill:#f16260; stroke:none;" d="M972 788L972 822L981 822L981 810C988.224 817.005 987.747 821.999 999 822L992 808C999.607 805.872 1001.1 795.547 994.786 790.728C988.96 786.283 978.853 788 972 788z"/>
<path style="fill:#feaf2d; stroke:none;" d="M989 788L989 789L992 789L989 788M1151 790L1160 789L1160 795L1161 795L1161 788L1151 790z"/>
<path style="fill:#3f3969; stroke:none;" d="M730 789L729 795C743.78 795.052 736.236 811.481 739 822L747 821L746 796L755 795L756 789L730 789z"/>
<path style="fill:#feaf2d; stroke:none;" d="M756 789L757 790L756 789z"/>
<path style="fill:#3f3969; stroke:none;" d="M827 822L835 821L835 803L836 803C837.078 807.66 839.129 820.873 845.05 821.534C851.267 822.228 853.983 807.395 855 803L856 803L856 822C870.331 821.949 865 799.833 865 789L854 789L846 811L845 811L837 789C834.34 789 829.962 788.232 827.742 790.028C822.87 793.97 825.518 816.361 827 822z"/>
<path style="fill:#f16260; stroke:none;" d="M837 789L838 790L837 789z"/>
<path style="fill:#feaf2d; stroke:none;" d="M865 789L866 790L865 789M993 789L994 790L993 789z"/>
<path style="fill:#f16260; stroke:none;" d="M1151 795L1148 795L1148 803L1151 803C1151 814.189 1152.05 821.884 1165 822L1165 814L1161 814L1160 804L1165 803L1165 795L1160 795L1160 789C1154.74 789.019 1151.46 789.093 1151 795z"/>
<path style="fill:#4c43a0; stroke:none;" d="M753 790L754 791L753 790M755 790L756 791L755 790M834 790L835 791L834 790M837 790L838 794L839 794L837 790z"/>
<path style="fill:#feaf2d; stroke:none;" d="M995 790L996 791L995 790M756 791L757 792L756 791M838 791L839 792L838 791M852 791L853 792L852 791z"/>
<path style="fill:#4c43a0; stroke:none;" d="M855 791L856 792L855 791z"/>
<path style="fill:#feaf2d; stroke:none;" d="M996 791L997 792L996 791z"/>
<path style="fill:#4c43a0; stroke:none;" d="M755 792L752 795L752 796L755 792z"/>
<path style="fill:#feaf2d; stroke:none;" d="M997.333 792.667L997.667 793.333L997.333 792.667z"/>
<path style="fill:#4c43a0; stroke:none;" d="M729 793L730 794L729 793z"/>
<path style="fill:#feaf2d; stroke:none;" d="M728 794L729 795L728 794M756 794L757 795L756 794z"/>
<path style="fill:#f16260; stroke:none;" d="M839 794L840 795L839 794z"/>
<path style="fill:#feaf2d; stroke:none;" d="M851 794L852 795L851 794M998.333 794.667L998.667 795.333L998.333 794.667M1088 794L1089 795L1088 794z"/>
<path style="fill:#f16260; stroke:none;" d="M729 795L730 796L729 795z"/>
<path style="fill:#4c43a0; stroke:none;" d="M730 795L730 796L736 796L730 795z"/>
<path style="fill:#f16260; stroke:none;" d="M736 795L737 796L736 795z"/>
<path style="fill:#4c43a0; stroke:none;" d="M737 795L738 799L739 799L737 795M747 795L746 798L747 798L747 795z"/>
<path style="fill:#f16260; stroke:none;" d="M748 795L749 796L748 795z"/>
<path style="fill:#4c43a0; stroke:none;" d="M749.667 795.333L750.333 795.667L749.667 795.333z"/>
<path style="fill:#f16260; stroke:none;" d="M751 795L752 796L751 795M755 795L756 796L755 795z"/>
<path style="fill:#feaf2d; stroke:none;" d="M765 795L766 796L765 795z"/>
<path style="fill:#f16260; stroke:none;" d="M766 795L767 796L766 795z"/>
<path style="fill:#4c43a0; stroke:none;" d="M767 795L768 796L767 795z"/>
<path style="fill:#3f3969; stroke:none;" d="M768 795.613C751.853 799.944 757.473 825.256 774 821.463C791.655 817.411 784.971 791.062 768 795.613z"/>
<path style="fill:#feaf2d; stroke:none;" d="M776 795L777 796L776 795M794 795L795 796L794 795z"/>
<path style="fill:#4c43a0; stroke:none;" d="M793 796L793 797L805 796L793 796z"/>
<path style="fill:#feaf2d; stroke:none;" d="M805 795L806 796L805 795z"/>
<path style="fill:#4c43a0; stroke:none;" d="M839 795L840 796L839 795M851 795L852 796L851 795z"/>
<path style="fill:#feaf2d; stroke:none;" d="M875 795L876 796L875 795z"/>
<path style="fill:#4c43a0; stroke:none;" d="M876 795L876 796L883 796L876 795z"/>
<path style="fill:#f16260; stroke:none;" d="M883 795L884 796L883 795z"/>
<path style="fill:#feaf2d; stroke:none;" d="M887 795L885 796L885 797L887 795z"/>
<path style="fill:#3f3969; stroke:none;" d="M888 795L888 799C863.711 784.241 863.831 833.182 888 818L888 822C901.658 821.952 901.658 795.048 888 795z"/>
<path style="fill:#4c43a0; stroke:none;" d="M896 795L897 796L896 795z"/>
<path style="fill:#feaf2d; stroke:none;" d="M901 795L901 822L902 822L901 795z"/>
<path style="fill:#4c43a0; stroke:none;" d="M902.667 795.333L903.333 795.667L902.667 795.333z"/>
<path style="fill:#3f3969; stroke:none;" d="M911 821C910.797 817.85 910.606 796.342 918.397 803.623C921.941 806.935 920 817.52 920 822C936.739 821.941 930.47 787.169 911 799L910 795C897.415 795.305 897.769 824.794 911 821z"/>
<path style="fill:#4c43a0; stroke:none;" d="M910 795L911 799L915 797L915 796L910 795z"/>
<path style="fill:#feaf2d; stroke:none;" d="M911 795L912 796L911 795M915 795L916 796L915 795z"/>
<path style="fill:#4c43a0; stroke:none;" d="M916 795L916 796L923 796L916 795z"/>
<path style="fill:#feaf2d; stroke:none;" d="M923 795L924 796L923 795z"/>
<path style="fill:#4c43a0; stroke:none;" d="M931 795L932 796L931 795z"/>
<path style="fill:#3f3969; stroke:none;" d="M932 795C935.181 808.422 947.266 820.277 936 833L936 834C951.485 833.988 957.047 807.767 962 795L952 795L947 811C943.044 802.543 942.675 795.038 932 795z"/>
<path style="fill:#4c43a0; stroke:none;" d="M940 795L941 798L942 798L940 795z"/>
<path style="fill:#feaf2d; stroke:none;" d="M941 795L942 796L941 795M962.333 795.667L962.667 796.333L962.333 795.667M1007 796L1007 797L1011 796L1007 796z"/>
<path style="fill:#f16260; stroke:none;" d="M1027 813C1020.87 813.004 1014.5 815.856 1010 811L1028 810C1027.85 792.883 1003.51 789.09 1001.37 807C999.519 822.432 1022.74 828.031 1027 813z"/>
<path style="fill:#feaf2d; stroke:none;" d="M1019.67 795.333L1020.33 795.667L1019.67 795.333M1038 795L1039 796L1038 795z"/>
<path style="fill:#f16260; stroke:none;" d="M1050 820L1050 835L1057.97 833.397L1059 823L1059 795L1050 797C1044.99 795.174 1039.97 794.021 1035.34 797.563C1027.46 803.596 1028.98 818.581 1039 821.482C1042.71 822.557 1046.49 821.114 1050 820z"/>
<path style="fill:#feaf2d; stroke:none;" d="M1046.67 795.333L1047.33 795.667L1046.67 795.333M1049 795L1048 797L1050 797L1049 795M1062 795L1062 814L1063 814L1062 795z"/>
<path style="fill:#f16260; stroke:none;" d="M1063 795C1063 807.394 1062.03 829.626 1081 819C1081.9 823.217 1086.36 822 1090 822L1090 795L1081 795C1081 798.511 1082.67 818.143 1074.31 812.953C1070.02 810.285 1072 799.355 1072 795L1063 795z"/>
<path style="fill:#feaf2d; stroke:none;" d="M1080.33 795.667L1080.67 796.333L1080.33 795.667M1101.67 795.333L1102.33 795.667L1101.67 795.333z"/>
<path style="fill:#f16260; stroke:none;" d="M1119 813C1112.74 813.005 1106.6 816.04 1102 811L1120 810C1119.84 792.809 1095.51 789.08 1093.37 807C1091.51 822.512 1114.7 828.177 1119 813z"/>
<path style="fill:#feaf2d; stroke:none;" d="M1112 795L1113 796L1112 795M1127 797L1130 796L1127 797z"/>
<path style="fill:#f16260; stroke:none;" d="M1138 813L1138 815L1123 813C1127.36 834.389 1158.75 812.862 1138.99 806.225C1136.7 805.457 1134.38 805.195 1132 805C1134.66 800.578 1141.3 803.983 1146 804C1144.07 795.957 1133.11 791.339 1126.43 797.653C1123.11 800.797 1123.19 806.924 1127.15 809.431C1130.24 811.39 1134.53 811.898 1138 813z"/>
<path style="fill:#feaf2d; stroke:none;" d="M1139 795L1140 796L1139 795M1147.33 795.667L1147.67 796.333L1147.33 795.667M1165 795L1165 803L1166 803L1165 795M1173 797L1176 796L1173 797z"/>
<path style="fill:#f16260; stroke:none;" d="M1184 813L1184 815L1168 813C1171.24 820.309 1178.99 824.501 1186.91 820.991C1192.22 818.634 1193.45 811.629 1188.66 808.008C1185.76 805.82 1181.38 805.242 1178 804L1178 802L1192 804C1190.05 795.869 1179.17 791.444 1172.42 797.653C1168.87 800.923 1168.87 806.756 1173.14 809.316C1176.32 811.216 1180.49 811.879 1184 813z"/>
<path style="fill:#feaf2d; stroke:none;" d="M1185.67 795.333L1186.33 795.667L1185.67 795.333M737 796L737 822L738 822L737 796M747 796L747 800L748 800L747 796M763 796L764 797L763 796z"/>
<path style="fill:#4c43a0; stroke:none;" d="M764.667 796.333L765.333 796.667L764.667 796.333M777 796L778 797L777 796z"/>
<path style="fill:#f16260; stroke:none;" d="M778 796L779 797L778 796z"/>
<path style="fill:#feaf2d; stroke:none;" d="M792 796L793 797L792 796z"/>
<path style="fill:#3f3969; stroke:none;" d="M795.004 796.573C779.487 801.085 788.416 826.159 804 821.346C821.616 815.906 812.627 791.448 795.004 796.573z"/>
<path style="fill:#4c43a0; stroke:none;" d="M806.667 796.333L807.333 796.667L806.667 796.333z"/>
<path style="fill:#feaf2d; stroke:none;" d="M840 796L841 797L840 796M850 796L851 797L850 796M873 796L874 797L873 796z"/>
<path style="fill:#4c43a0; stroke:none;" d="M874 796L875 797L874 796M884 796L885 797L884 796z"/>
<path style="fill:#feaf2d; stroke:none;" d="M913 796L914 797L913 796z"/>
<path style="fill:#4c43a0; stroke:none;" d="M924 796L928 800L924 796z"/>
<path style="fill:#feaf2d; stroke:none;" d="M925 796L926 797L925 796z"/>
<path style="fill:#f16260; stroke:none;" d="M931 796L932 797L931 796z"/>
<path style="fill:#4c43a0; stroke:none;" d="M934 796L935 797L934 796M961 796L962 797L961 796z"/>
<path style="fill:#feaf2d; stroke:none;" d="M981 796L981 803L982 803L981 796z"/>
<path style="fill:#fefbf8; stroke:none;" d="M982 796L982 803C989.781 802.569 989.658 796.584 982 796z"/>
<path style="fill:#feaf2d; stroke:none;" d="M987 796L988 797L987 796M1021.67 796.333L1022.33 796.667L1021.67 796.333M1036 796L1037 797L1036 796M1090.33 796.667L1090.67 797.333L1090.33 796.667M1099 796L1100 797L1099 796M1114 796L1115 797L1114 796M1141 796L1142 797L1141 796M1187 796L1188 797L1187 796z"/>
<path style="fill:#4c43a0; stroke:none;" d="M762 797L763 798L762 797M779 797L783 801L779 797z"/>
<path style="fill:#feaf2d; stroke:none;" d="M780 797L781 798L780 797z"/>
<path style="fill:#f16260; stroke:none;" d="M791 797L792 798L791 797z"/>
<path style="fill:#4c43a0; stroke:none;" d="M799.667 797.333L800.333 797.667L799.667 797.333M808 797L811 800L808 797z"/>
<path style="fill:#feaf2d; stroke:none;" d="M809 797L810 798L809 797z"/>
<path style="fill:#4c43a0; stroke:none;" d="M840.333 797.667L840.667 798.333L840.333 797.667M850.333 797.667L850.667 798.333L850.333 797.667M872.667 797.333L873.333 797.667L872.667 797.333M885 797L885 798L888 799L885 797z"/>
<path style="fill:#f16260; stroke:none;" d="M887 797L888 798L887 797z"/>
<path style="fill:#feaf2d; stroke:none;" d="M911 797L912 798L911 797z"/>
<path style="fill:#4c43a0; stroke:none;" d="M920 797L921 798L920 797z"/>
<path style="fill:#feaf2d; stroke:none;" d="M926 797L927 798L926 797M931 797L932 798L931 797z"/>
<path style="fill:#4c43a0; stroke:none;" d="M932.333 797.667L932.667 798.333L932.333 797.667z"/>
<path style="fill:#feaf2d; stroke:none;" d="M942 797L943 798L942 797M951 797L952 798L951 797z"/>
<path style="fill:#f16260; stroke:none;" d="M961 797L962 798L961 797z"/>
<path style="fill:#feaf2d; stroke:none;" d="M988 797L989 798L988 797M1034 797L1035 798L1034 797M1115 797L1116 798L1115 797M1125 797L1126 798L1125 797M1143 797L1144 798L1143 797M1171 797L1172 798L1171 797M1189 797L1190 798L1189 797M760 798L761 799L760 798z"/>
<path style="fill:#f16260; stroke:none;" d="M761 798L762 799L761 798z"/>
<path style="fill:#4c43a0; stroke:none;" d="M776 798L777 799L776 798z"/>
<path style="fill:#feaf2d; stroke:none;" d="M781 798L782 799L781 798z"/>
<path style="fill:#4c43a0; stroke:none;" d="M790 798L791 799L790 798z"/>
<path style="fill:#feaf2d; stroke:none;" d="M810 798L811 799L810 798z"/>
<path style="fill:#f16260; stroke:none;" d="M871 798L872 799L871 798z"/>
<path style="fill:#feaf2d; stroke:none;" d="M927 798L928 799L927 798z"/>
<path style="fill:#f16260; stroke:none;" d="M942 798L943 799L942 798z"/>
<path style="fill:#4c43a0; stroke:none;" d="M951 798L952 799L951 798M960.333 798.667L960.667 799.333L960.333 798.667z"/>
<path style="fill:#feaf2d; stroke:none;" d="M961 798L962 799L961 798M989 798L989 801L990 801L989 798M1004 798L1005 799L1004 798M1024 798L1025 799L1024 798M1033.33 798.667L1033.67 799.333L1033.33 798.667M1096 798L1097 799L1096 798M1116 798L1117 799L1116 798M1124.33 798.667L1124.67 799.333L1124.33 798.667M1170.33 798.667L1170.67 799.333L1170.33 798.667z"/>
<path style="fill:#4c43a0; stroke:none;" d="M744 799L745 800L744 799M746 799L747 800L746 799M760 799L761 800L760 799M764.667 799.333L765.333 799.667L764.667 799.333z"/>
<path style="fill:#feaf2d; stroke:none;" d="M782 799L783 800L782 799z"/>
<path style="fill:#4c43a0; stroke:none;" d="M789 799L790 800L789 799z"/>
<path style="fill:#feaf2d; stroke:none;" d="M811 799L812 800L811 799M841 799L842 800L841 799M849 799L850 800L849 799M870 799L871 800L870 799z"/>
<path style="fill:#4c43a0; stroke:none;" d="M874 799L875 800L874 799z"/>
<path style="fill:#f16260; stroke:none;" d="M932 799L933 800L932 799z"/>
<path style="fill:#4c43a0; stroke:none;" d="M942 799L943 803L944 803L942 799z"/>
<path style="fill:#feaf2d; stroke:none;" d="M1025 799L1026 800L1025 799M1090 799L1091 800L1090 799M1117 799L1118 800L1117 799M1144 799L1145 800L1144 799M1147 799L1148 800L1147 799M1190 799L1191 800L1190 799z"/>
<path style="fill:#4c43a0; stroke:none;" d="M759.333 800.667L759.667 801.333L759.333 800.667M780 800L781 801L780 800M788.333 800.667L788.667 801.333L788.333 800.667M803 800L804 801L803 800z"/>
<path style="fill:#feaf2d; stroke:none;" d="M812 800L814 803L812 800z"/>
<path style="fill:#4c43a0; stroke:none;" d="M841.333 800.667L841.667 801.333L841.333 800.667M849.333 800.667L849.667 801.333L849.333 800.667M870 800L869 804L870 804L870 800M879.667 800.333L880.333 800.667L879.667 800.333z"/>
<path style="fill:#feaf2d; stroke:none;" d="M928 800L929 801L928 800z"/>
<path style="fill:#4c43a0; stroke:none;" d="M933 800L934 801L933 800z"/>
<path style="fill:#feaf2d; stroke:none;" d="M943 800L944 801L943 800z"/>
<path style="fill:#f16260; stroke:none;" d="M950 800L951 801L950 800z"/>
<path style="fill:#4c43a0; stroke:none;" d="M957 800L958 801L957 800z"/>
<path style="fill:#feaf2d; stroke:none;" d="M1026 800L1027 801L1026 800M1118 800L1119 801L1118 800M1123 800L1123 806L1124 806L1123 800M1145 800L1146 801L1145 800M1169 800L1169 803L1170 803L1169 800M1191 800L1192 801L1191 800M758 801L759 802L758 801z"/>
<path style="fill:#4c43a0; stroke:none;" d="M783 801L784 802L783 801z"/>
<path style="fill:#feaf2d; stroke:none;" d="M842 801L843 802L842 801M869 801L870 802L869 801z"/>
<path style="fill:#4c43a0; stroke:none;" d="M887 801L888 802L887 801M928.333 801.667L928.667 802.333L928.333 801.667z"/>
<path style="fill:#feaf2d; stroke:none;" d="M933 801L934 802L933 801z"/>
<path style="fill:#4c43a0; stroke:none;" d="M950.333 801.667L950.667 802.333L950.333 801.667M959 801L960 802L959 801z"/>
<path style="fill:#feaf2d; stroke:none;" d="M1002.33 801.667L1002.67 802.333L1002.33 801.667M1094.33 801.667L1094.67 802.333L1094.33 801.667M1133 801L1133 802L1136 802L1133 801M1179 801L1179 802L1182 802L1179 801z"/>
<path style="fill:#f16260; stroke:none;" d="M758 802L759 803L758 802z"/>
<path style="fill:#4c43a0; stroke:none;" d="M770 802L770 803L773 803L770 802M787.333 802.667L787.667 803.333L787.333 802.667M806 807L805 807C802.392 819.77 790.208 806.421 802 803C789.194 798.977 798.363 824.374 805.258 810.986C805.886 809.767 805.853 808.313 806 807M812 802L813 803L812 802z"/>
<path style="fill:#f16260; stroke:none;" d="M842 802L843 803L842 802z"/>
<path style="fill:#4c43a0; stroke:none;" d="M848.333 802.667L848.667 803.333L848.333 802.667M881 802L881 803L884 803L881 802M913 802L913 803L920 804L913 802M934.333 802.667L934.667 803.333L934.333 802.667z"/>
<path style="fill:#feaf2d; stroke:none;" d="M949 802L950 803L949 802M959 802L960 803L959 802M987.667 802.333L988.333 802.667L987.667 802.333M998.333 802.667L998.667 803.333L998.333 802.667M1013 802L1014 803L1013 802z"/>
<path style="fill:#fefbf8; stroke:none;" d="M1011 806L1018 806C1015.87 802.245 1013.19 802.305 1011 806z"/>
<path style="fill:#feaf2d; stroke:none;" d="M1016 802L1017 803L1016 802M1027 802L1028 803L1027 802M1031 802L1032 803L1031 802M1103 804L1106 803L1103 804z"/>
<path style="fill:#fefbf8; stroke:none;" d="M1103 804L1103 805L1110 806C1108.09 802.633 1106.48 802.566 1103 804z"/>
<path style="fill:#feaf2d; stroke:none;" d="M1108 802L1109 803L1108 802M1119 802L1120 803L1119 802M1132 802L1134 805L1132 802M1136 802L1137 803L1136 802M1178.33 802.667L1178.67 803.333L1178.33 802.667M1182 802L1183 803L1182 802z"/>
<path style="fill:#4c43a0; stroke:none;" d="M758.333 803.667L758.667 804.333L758.333 803.667M768 803L767 805L768 803z"/>
<path style="fill:#feaf2d; stroke:none;" d="M769 803L770 804L769 803z"/>
<path style="fill:#fefbf8; stroke:none;" d="M770.224 803.89C765.588 805.205 766.802 814.328 771.935 813.168C777.406 811.932 775.858 802.293 770.224 803.89z"/>
<path style="fill:#feaf2d; stroke:none;" d="M773 803L775 805L773 803z"/>
<path style="fill:#4c43a0; stroke:none;" d="M774 803L775 804L774 803z"/>
<path style="fill:#f16260; stroke:none;" d="M784 803L785 804L784 803z"/>
<path style="fill:#feaf2d; stroke:none;" d="M798 803L796 806L798 803z"/>
<path style="fill:#fefbf8; stroke:none;" d="M799.129 804.176C794.428 806.202 796.882 815.091 801.687 812.824C805.54 811.006 803.91 802.115 799.129 804.176z"/>
<path style="fill:#feaf2d; stroke:none;" d="M802 803L804 805L802 803z"/>
<path style="fill:#4c43a0; stroke:none;" d="M803 803L804 804L803 803z"/>
<path style="fill:#f16260; stroke:none;" d="M813 803L814 804L813 803z"/>
<path style="fill:#4c43a0; stroke:none;" d="M835 803L836 808L837 808L835 803M842 803L843 804L842 803M855 803L856 804L855 803z"/>
<path style="fill:#feaf2d; stroke:none;" d="M868.333 803.667L868.667 804.333L868.333 803.667z"/>
<path style="fill:#4c43a0; stroke:none;" d="M879 803L878 805L879 803z"/>
<path style="fill:#feaf2d; stroke:none;" d="M880 803L878 806L880 803z"/>
<path style="fill:#fefbf8; stroke:none;" d="M881.133 804.137C875.959 806.613 879.502 815.675 884.567 812.762C888.738 810.364 886.213 801.705 881.133 804.137z"/>
<path style="fill:#feaf2d; stroke:none;" d="M884 803L885 804L884 803z"/>
<path style="fill:#4c43a0; stroke:none;" d="M885 803L887 807L888 807L885 803z"/>
<path style="fill:#f16260; stroke:none;" d="M912 803L913 804L912 803z"/>
<path style="fill:#feaf2d; stroke:none;" d="M913 803L914 804L913 803z"/>
<path style="fill:#f16260; stroke:none;" d="M918 803L919 804L918 803z"/>
<path style="fill:#feaf2d; stroke:none;" d="M929 803L929 807L930 807L929 803M944 803L945 804L944 803z"/>
<path style="fill:#f16260; stroke:none;" d="M949 803L950 804L949 803z"/>
<path style="fill:#4c43a0; stroke:none;" d="M958 803L957 807L958 807L958 803z"/>
<path style="fill:#feaf2d; stroke:none;" d="M1017 803L1018 804L1017 803M1042 803L1040 806L1042 803z"/>
<path style="fill:#fefbf8; stroke:none;" d="M1043.13 804.137C1037.78 806.693 1041.19 815.948 1046.57 812.766C1050.7 810.322 1048.23 801.705 1043.13 804.137z"/>
<path style="fill:#feaf2d; stroke:none;" d="M1046 803L1047 804L1046 803M1109 803L1110 804L1109 803M1137 803L1138 804L1137 803M757 804L758 805L757 804z"/>
<path style="fill:#4c43a0; stroke:none;" d="M775 804L776 805L775 804M784 804L785 805L784 804z"/>
<path style="fill:#feaf2d; stroke:none;" d="M786.333 804.667L786.667 805.333L786.333 804.667z"/>
<path style="fill:#4c43a0; stroke:none;" d="M804.333 804.667L804.667 805.333L804.333 804.667M813 804L814 805L813 804z"/>
<path style="fill:#feaf2d; stroke:none;" d="M843 804L844 805L843 804M847 804L848 805L847 804z"/>
<path style="fill:#f16260; stroke:none;" d="M855 804L856 805L855 804z"/>
<path style="fill:#4c43a0; stroke:none;" d="M911 804L912 805L911 804z"/>
<path style="fill:#f16260; stroke:none;" d="M919 804L920 805L919 804z"/>
<path style="fill:#feaf2d; stroke:none;" d="M934 804L935 805L934 804z"/>
<path style="fill:#f16260; stroke:none;" d="M944 804L945 805L944 804z"/>
<path style="fill:#4c43a0; stroke:none;" d="M949 804L950 805L949 804z"/>
<path style="fill:#feaf2d; stroke:none;" d="M997 804L998 805L997 804M1001.33 804.667L1001.67 805.333L1001.33 804.667M1018.33 804.667L1018.67 805.333L1018.33 804.667M1030.33 804.667L1030.67 805.333L1030.33 804.667M1093.33 804.667L1093.67 805.333L1093.33 804.667M1110.33 804.667L1110.67 805.333L1110.33 804.667M1160 804L1161 805L1160 804M1169 804L1169 807L1170 807L1169 804M1179 804L1180 805L1179 804z"/>
<path style="fill:#f16260; stroke:none;" d="M757 805L758 806L757 805z"/>
<path style="fill:#feaf2d; stroke:none;" d="M767 805L768 806L767 805z"/>
<path style="fill:#f16260; stroke:none;" d="M775 805L776 806L775 805z"/>
<path style="fill:#4c43a0; stroke:none;" d="M807.333 805.667L807.667 806.333L807.333 805.667z"/>
<path style="fill:#feaf2d; stroke:none;" d="M835 805L836 806L835 805z"/>
<path style="fill:#4c43a0; stroke:none;" d="M843.333 805.667L843.667 806.333L843.333 805.667z"/>
<path style="fill:#f16260; stroke:none;" d="M847 805L848 806L847 805z"/>
<path style="fill:#4c43a0; stroke:none;" d="M854.333 805.667L854.667 806.333L854.333 805.667z"/>
<path style="fill:#feaf2d; stroke:none;" d="M855 805L856 806L855 805z"/>
<path style="fill:#f16260; stroke:none;" d="M868 805L869 806L868 805z"/>
<path style="fill:#feaf2d; stroke:none;" d="M886 805L887 806L886 805M911 805L912 806L911 805M919 805L920 806L919 805z"/>
<path style="fill:#4c43a0; stroke:none;" d="M935 805L936 806L935 805M944 805L945 806L944 805z"/>
<path style="fill:#feaf2d; stroke:none;" d="M945.333 805.667L945.667 806.333L945.333 805.667M948 805L949 806L948 805M958 805L959 806L958 805M1048 805L1049 806L1048 805M1103 805L1104 806L1103 805M1136.67 805.333L1137.33 805.667L1136.67 805.333M1181 805L1181 806L1184 806L1181 805z"/>
<path style="fill:#4c43a0; stroke:none;" d="M757 806L757 811L758 811L757 806M766 806L767 813L768 813L766 806M786 806L786 811L787 811L786 806z"/>
<path style="fill:#feaf2d; stroke:none;" d="M804 806L804 811L805 811L804 806M844.333 806.667L844.667 807.333L844.333 806.667z"/>
<path style="fill:#4c43a0; stroke:none;" d="M847 806L848 807L847 806M868 806L868 811L869 811L868 806M877 806L877 811L878 811L877 806z"/>
<path style="fill:#feaf2d; stroke:none;" d="M935 806L936 807L935 806z"/>
<path style="fill:#4c43a0; stroke:none;" d="M948.333 806.667L948.667 807.333L948.333 806.667z"/>
<path style="fill:#feaf2d; stroke:none;" d="M995 806L996 807L995 806M1028 806L1028 810L1029 810L1028 806M1090.33 806.667L1090.67 807.333L1090.33 806.667M1120 806L1120 810L1121 810L1120 806M1140 806L1141 807L1140 806M1186.67 806.333L1187.33 806.667L1186.67 806.333z"/>
<path style="fill:#4c43a0; stroke:none;" d="M759 807L760 808L759 807z"/>
<path style="fill:#feaf2d; stroke:none;" d="M785 807L785 811L786 811L785 807M814 807L814 811L815 811L814 807z"/>
<path style="fill:#4c43a0; stroke:none;" d="M841 807L842 808L841 807z"/>
<path style="fill:#feaf2d; stroke:none;" d="M846 807L847 808L846 807M854 807L855 808L854 807z"/>
<path style="fill:#f16260; stroke:none;" d="M887 807L888 808L887 807M929 807L930 808L929 807z"/>
<path style="fill:#4c43a0; stroke:none;" d="M936 807L937 808L936 807z"/>
<path style="fill:#f16260; stroke:none;" d="M945 807L946 808L945 807M957 807L958 808L957 807z"/>
<path style="fill:#feaf2d; stroke:none;" d="M1049 807L1049 811L1050 811L1049 807M1142 807L1143 808L1142 807M1160.33 807.667L1160.67 808.333L1160.33 807.667M1188 807L1189 808L1188 807z"/>
<path style="fill:#4c43a0; stroke:none;" d="M811 808L812 809L811 808M837.333 808.667L837.667 809.333L837.333 808.667M844 808L845 809L844 808M846 808L847 809L846 808M851 808L852 809L851 808M853.333 808.667L853.667 809.333L853.333 808.667z"/>
<path style="fill:#feaf2d; stroke:none;" d="M887.333 808.667L887.667 809.333L887.333 808.667M929 808L929 819L930 819L929 808M936 808L937 809L936 808M947 808L948 809L947 808z"/>
<path style="fill:#4c43a0; stroke:none;" d="M953 808L954 809L953 808M956 808L957 809L956 808z"/>
<path style="fill:#feaf2d; stroke:none;" d="M992 808L992 811L993 811L992 808M1125 808L1126 809L1125 808M1144.33 808.667L1144.67 809.333L1144.33 808.667M1171 808L1172 809L1171 808M1190.33 808.667L1190.67 809.333L1190.33 808.667z"/>
<path style="fill:#f16260; stroke:none;" d="M845 809L846 810L845 809z"/>
<path style="fill:#4c43a0; stroke:none;" d="M937 809L938 813L939 813L937 809z"/>
<path style="fill:#f16260; stroke:none;" d="M946 809L947 810L946 809z"/>
<path style="fill:#4c43a0; stroke:none;" d="M947 809L948 810L947 809z"/>
<path style="fill:#feaf2d; stroke:none;" d="M956.333 809.667L956.667 810.333L956.333 809.667M1126 809L1127 810L1126 809M1172 809L1173 810L1172 809M775 810L776 811L775 810z"/>
<path style="fill:#4c43a0; stroke:none;" d="M813 810L813 813L814 813L813 810z"/>
<path style="fill:#feaf2d; stroke:none;" d="M837 810L838 811L837 810z"/>
<path style="fill:#4c43a0; stroke:none;" d="M845 810L846 811L845 810z"/>
<path style="fill:#feaf2d; stroke:none;" d="M853 810L854 811L853 810z"/>
<path style="fill:#4c43a0; stroke:none;" d="M887 810L888 811L887 810M946 810L947 811L946 810M955 810L956 811L955 810z"/>
<path style="fill:#feaf2d; stroke:none;" d="M981.667 810.333L982.333 810.667L981.667 810.333M1011 810L1011 811L1028 811L1011 810M1080.33 810.667L1080.67 811.333L1080.33 810.667M1103 810L1103 811L1120 811L1103 810M1128 810L1129 811L1128 810M1145 810L1146 811L1145 810M1160 810L1161 811L1160 810M1174.67 810.333L1175.33 810.667L1174.67 810.333M1191 810L1192 811L1191 810z"/>
<path style="fill:#f16260; stroke:none;" d="M757 811L758 812L757 811z"/>
<path style="fill:#feaf2d; stroke:none;" d="M767 811L768 812L767 811z"/>
<path style="fill:#4c43a0; stroke:none;" d="M775 811L776 812L775 811z"/>
<path style="fill:#f16260; stroke:none;" d="M786 811L787 812L786 811z"/>
<path style="fill:#feaf2d; stroke:none;" d="M796 811L797 812L796 811M835 811L835 814L836 814L835 811z"/>
<path style="fill:#4c43a0; stroke:none;" d="M838.333 811.667L838.667 812.333L838.333 811.667M852.333 811.667L852.667 812.333L852.333 811.667z"/>
<path style="fill:#f16260; stroke:none;" d="M868 811L869 812L868 811z"/>
<path style="fill:#feaf2d; stroke:none;" d="M878 811L881 814L878 811M886 811L887 812L886 811M937 811L938 812L937 811z"/>
<path style="fill:#4c43a0; stroke:none;" d="M949 811L950 812L949 811M952.333 811.667L952.667 812.333L952.333 811.667z"/>
<path style="fill:#f16260; stroke:none;" d="M955 811L956 812L955 811z"/>
<path style="fill:#feaf2d; stroke:none;" d="M993 811L994 812L993 811M1001.33 811.667L1001.67 812.333L1001.33 811.667M1010 811L1011 812L1010 811M1030.33 811.667L1030.67 812.333L1030.33 811.667M1048 811L1049 812L1048 811M1093.33 811.667L1093.67 812.333L1093.33 811.667M1102 811L1103 812L1102 811M1132.67 811.333L1133.33 811.667L1132.67 811.333M1178.67 811.333L1179.33 811.667L1178.67 811.333M757 812L758 813L757 812z"/>
<path style="fill:#4c43a0; stroke:none;" d="M758 812L758 815L759 815L758 812z"/>
<path style="fill:#feaf2d; stroke:none;" d="M774 812L773 814L774 812z"/>
<path style="fill:#4c43a0; stroke:none;" d="M784 812L785 813L784 812z"/>
<path style="fill:#feaf2d; stroke:none;" d="M786 812L787 813L786 812z"/>
<path style="fill:#4c43a0; stroke:none;" d="M789 812L790 813L789 812z"/>
<path style="fill:#feaf2d; stroke:none;" d="M797 812L798 813L797 812M803 812L804 813L803 812z"/>
<path style="fill:#4c43a0; stroke:none;" d="M807 812L808 813L807 812z"/>
<path style="fill:#feaf2d; stroke:none;" d="M868.333 812.667L868.667 813.333L868.333 812.667z"/>
<path style="fill:#4c43a0; stroke:none;" d="M878 812L879 813L878 812z"/>
<path style="fill:#f16260; stroke:none;" d="M886 812L887 813L886 812z"/>
<path style="fill:#4c43a0; stroke:none;" d="M954 812L953 816L954 816L954 812z"/>
<path style="fill:#feaf2d; stroke:none;" d="M955 812L956 813L955 812M983 812L984 813L983 812M1018 812L1018 813L1027 813L1018 812M1041 812L1042 813L1041 812M1072 812L1073 813L1072 812M1090 812L1091 813L1090 812M1110 812L1110 813L1119 813L1110 812M1136 812L1137 813L1136 812M1182 812L1183 813L1182 812z"/>
<path style="fill:#f16260; stroke:none;" d="M768 813L769 814L768 813z"/>
<path style="fill:#feaf2d; stroke:none;" d="M769 813L770 814L769 813z"/>
<path style="fill:#4c43a0; stroke:none;" d="M774 813L775 814L774 813z"/>
<path style="fill:#f16260; stroke:none;" d="M784 813L785 814L784 813z"/>
<path style="fill:#4c43a0; stroke:none;" d="M787.333 813.667L787.667 814.333L787.333 813.667z"/>
<path style="fill:#feaf2d; stroke:none;" d="M798 813L799 814L798 813M802 813L803 814L802 813M813.333 813.667L813.667 814.333L813.333 813.667M838 813L839 814L838 813M852 813L853 814L852 813z"/>
<path style="fill:#4c43a0; stroke:none;" d="M869 813L869 816L870 816L869 813M879 813L880 814L879 813z"/>
<path style="fill:#feaf2d; stroke:none;" d="M884 813L885 814L884 813z"/>
<path style="fill:#4c43a0; stroke:none;" d="M885 813L886 814L885 813z"/>
<path style="fill:#feaf2d; stroke:none;" d="M938 813L939 814L938 813M994 813L995 814L994 813M1011 813L1012 814L1011 813M1016.67 813.333L1017.33 813.667L1016.67 813.333M1027.33 813.667L1027.67 814.333L1027.33 813.667M1042 813L1043 814L1042 813M1046.67 813.333L1047.33 813.667L1046.67 813.333M1073 813L1074 814L1073 813M1078.67 813.333L1079.33 813.667L1078.67 813.333M1103 813L1104 814L1103 813M1109 813L1110 814L1109 813M1119.33 813.667L1119.67 814.333L1119.33 813.667M1122 813L1122 816L1123 816L1122 813M1131 813L1132 814L1131 813M1137.33 813.667L1137.67 814.333L1137.33 813.667M1146.33 813.667L1146.67 814.333L1146.33 813.667M1161 813L1162 814L1161 813M1177 813L1178 814L1177 813M1183.33 813.667L1183.67 814.333L1183.33 813.667z"/>
<path style="fill:#4c43a0; stroke:none;" d="M770 814L770 815L773 815L770 814M812.333 814.667L812.667 815.333L812.333 814.667M839.333 814.667L839.667 815.333L839.333 814.667M851 814L850 818L851 818L851 814M881 814L881 815L885 815L881 814M939 814L940 815L939 814z"/>
<path style="fill:#feaf2d; stroke:none;" d="M954 814L955 815L954 814M984 814L985 815L984 814M1002.33 814.667L1002.67 815.333L1002.33 814.667M1012 814L1012 815L1016 815L1012 814M1094.33 814.667L1094.67 815.333L1094.33 814.667M1104 814L1104 815L1109 815L1104 814M1132 814L1133 815L1132 814M1151.33 814.667L1151.67 815.333L1151.33 814.667M1165 814L1165 822L1166 822L1165 814M1168.33 814.667L1168.67 815.333L1168.33 814.667M1178 814L1179 815L1178 814z"/>
<path style="fill:#f16260; stroke:none;" d="M758 815L759 816L758 815z"/>
<path style="fill:#4c43a0; stroke:none;" d="M775 815L776 816L775 815M783 815L784 816L783 815z"/>
<path style="fill:#feaf2d; stroke:none;" d="M787 815L788 816L787 815z"/>
<path style="fill:#4c43a0; stroke:none;" d="M795 815L796 816L795 815M805 815L806 816L805 815M847 815L848 816L847 815z"/>
<path style="fill:#f16260; stroke:none;" d="M939 815L940 816L939 815z"/>
<path style="fill:#feaf2d; stroke:none;" d="M985.333 815.667L985.667 816.333L985.333 815.667M995 815L996 816L995 815M1031 815L1032 816L1031 815M1134 815L1134 816L1137 816L1134 815M1179 815L1179 816L1183 816L1179 815z"/>
<path style="fill:#4c43a0; stroke:none;" d="M738.333 816.667L738.667 817.333L738.333 816.667z"/>
<path style="fill:#feaf2d; stroke:none;" d="M759 816L760 817L759 816z"/>
<path style="fill:#4c43a0; stroke:none;" d="M778 816L779 817L778 816M782 816L779 820L782 816z"/>
<path style="fill:#feaf2d; stroke:none;" d="M788 816L789 817L788 816z"/>
<path style="fill:#4c43a0; stroke:none;" d="M791 816L792 817L791 816M808 816L809 817L808 816M811 816L808 820L811 816M826.333 816.667L826.667 817.333L826.333 816.667z"/>
<path style="fill:#feaf2d; stroke:none;" d="M839 816L840 817L839 816M851 816L852 817L851 816z"/>
<path style="fill:#4c43a0; stroke:none;" d="M870 816L872 818L870 816M908.333 816.667L908.667 817.333L908.333 816.667M940 816L942 819L940 816z"/>
<path style="fill:#feaf2d; stroke:none;" d="M953 816L954 817L953 816M981 816L982 817L981 816M996.333 816.667L996.667 817.333L996.333 816.667M1003 816L1004 817L1003 816M1095 816L1096 817L1095 816M1118 816L1119 817L1118 816M1123 816L1124 817L1123 816M1169.33 816.667L1169.67 817.333L1169.33 816.667z"/>
<path style="fill:#4c43a0; stroke:none;" d="M740 817L741 818L740 817M760 817L762 819L762 817L760 817M776.333 817.667L776.667 818.333L776.333 817.667z"/>
<path style="fill:#feaf2d; stroke:none;" d="M782 817L783 818L782 817z"/>
<path style="fill:#4c43a0; stroke:none;" d="M789 817L790 818L789 817z"/>
<path style="fill:#feaf2d; stroke:none;" d="M811 817L812 818L811 817z"/>
<path style="fill:#4c43a0; stroke:none;" d="M828 817L829 818L828 817z"/>
<path style="fill:#feaf2d; stroke:none;" d="M870 817L871 818L870 817z"/>
<path style="fill:#4c43a0; stroke:none;" d="M883 817L884 818L883 817M952 817L953 818L952 817z"/>
<path style="fill:#feaf2d; stroke:none;" d="M986 817L987 818L986 817M1025 817L1026 818L1025 817M1032 817L1033 818L1032 817M1117 817L1118 818L1117 817M1145 817L1146 818L1145 817M1191 817L1192 818L1191 817M760 818L761 819L760 818M781 818L782 819L781 818z"/>
<path style="fill:#4c43a0; stroke:none;" d="M790 818L791 819L790 818z"/>
<path style="fill:#feaf2d; stroke:none;" d="M810 818L811 819L810 818z"/>
<path style="fill:#4c43a0; stroke:none;" d="M840 818L842 822L843 822L840 818z"/>
<path style="fill:#f16260; stroke:none;" d="M850 818L851 819L850 818z"/>
<path style="fill:#feaf2d; stroke:none;" d="M871 818L872 819L871 818z"/>
<path style="fill:#4c43a0; stroke:none;" d="M887 818L884 820L884 821L888 819L887 818z"/>
<path style="fill:#feaf2d; stroke:none;" d="M940 818L941 819L940 818z"/>
<path style="fill:#f16260; stroke:none;" d="M952 818L953 819L952 818z"/>
<path style="fill:#feaf2d; stroke:none;" d="M981 818L981 822L982 822L981 818M997 818L998 819L997 818M1004 818L1005 819L1004 818M1024 818L1025 819L1024 818M1033 818L1034 819L1033 818M1064 818L1065 819L1064 818M1090 818L1091 819L1090 818M1096 818L1097 819L1096 818M1116 818L1117 819L1116 818M1124 818L1125 819L1124 818M1144 818L1145 819L1144 818M1153.33 818.667L1153.67 819.333L1153.33 818.667M1170 818L1171 819L1170 818M1190 818L1191 819L1190 818z"/>
<path style="fill:#4c43a0; stroke:none;" d="M738 819L739 820L738 819M741 819L742 820L741 819M746 819L747 820L746 819M762 819L762 820L768 822L768 821L762 819z"/>
<path style="fill:#feaf2d; stroke:none;" d="M780 819L781 820L780 819M790 819L791 820L790 819z"/>
<path style="fill:#f16260; stroke:none;" d="M791 819L792 820L791 819z"/>
<path style="fill:#4c43a0; stroke:none;" d="M798.667 819.333L799.333 819.667L798.667 819.333z"/>
<path style="fill:#feaf2d; stroke:none;" d="M809 819L810 820L809 819z"/>
<path style="fill:#4c43a0; stroke:none;" d="M826 819L827 820L826 819M829 819L830 820L829 819M832 819L833 820L832 819z"/>
<path style="fill:#feaf2d; stroke:none;" d="M840 819L841 820L840 819z"/>
<path style="fill:#4c43a0; stroke:none;" d="M849 819L848 822L849 819z"/>
<path style="fill:#feaf2d; stroke:none;" d="M850 819L851 820L850 819z"/>
<path style="fill:#4c43a0; stroke:none;" d="M872 819L872 820L875 821L872 819M880 819L881 820L880 819z"/>
<path style="fill:#f16260; stroke:none;" d="M887 819L888 820L887 819z"/>
<path style="fill:#4c43a0; stroke:none;" d="M910 819L911 820L910 819z"/>
<path style="fill:#f16260; stroke:none;" d="M929.333 819.667L929.667 820.333L929.333 819.667M941 819L942 820L941 819z"/>
<path style="fill:#feaf2d; stroke:none;" d="M987 819L988 820L987 819M1005 819L1006 820L1005 819M1023 819L1024 820L1023 819M1034 819L1035 820L1034 819M1065 819L1066 820L1065 819M1080 819L1080 822L1081 822L1080 819M1097 819L1098 820L1097 819M1115 819L1116 820L1115 819M1125 819L1126 820L1125 819M1171 819L1172 820L1171 819M747 820L748 821L747 820M763 820L764 821L763 820z"/>
<path style="fill:#4c43a0; stroke:none;" d="M777 820L778 821L777 820z"/>
<path style="fill:#f16260; stroke:none;" d="M778 820L779 821L778 820z"/>
<path style="fill:#feaf2d; stroke:none;" d="M779 820L780 821L779 820z"/>
<path style="fill:#f16260; stroke:none;" d="M792 820L793 821L792 820z"/>
<path style="fill:#4c43a0; stroke:none;" d="M793 820L793 821L797 822L797 821L793 820M806.667 820.333L807.333 820.667L806.667 820.333z"/>
<path style="fill:#feaf2d; stroke:none;" d="M865 820L866 821L865 820M873 820L874 821L873 820M885 820L885 821L888 822L885 820M911.333 820.667L911.667 821.333L911.333 820.667M941 820L942 821L941 820z"/>
<path style="fill:#4c43a0; stroke:none;" d="M951 820L950 824L951 824L951 820z"/>
<path style="fill:#feaf2d; stroke:none;" d="M998 820L999 821L998 820M1007 820L1008 821L1007 820M1021 820L1022 821L1021 820M1035.67 820.333L1036.33 820.667L1035.67 820.333M1048 820L1049 835L1050 835L1048 820M1066 820L1067 821L1066 820M1078 820L1079 821L1078 820M1090 820L1091 821L1090 820M1099 820L1100 821L1099 820M1113.67 820.333L1114.33 820.667L1113.67 820.333M1127 820L1128 821L1127 820M1142 820L1143 821L1142 820M1154.67 820.333L1155.33 820.667L1154.67 820.333M1173 820L1174 821L1173 820M1188 820L1189 821L1188 820z"/>
<path style="fill:#4c43a0; stroke:none;" d="M738 821L739 822L738 821M740 821L740 822L747 822L740 821z"/>
<path style="fill:#feaf2d; stroke:none;" d="M765 821L766 822L765 821z"/>
<path style="fill:#4c43a0; stroke:none;" d="M774.667 821.333L775.333 821.667L774.667 821.333z"/>
<path style="fill:#feaf2d; stroke:none;" d="M776 821L777 822L776 821M794 821L795 822L794 821z"/>
<path style="fill:#4c43a0; stroke:none;" d="M804 821L805 822L804 821z"/>
<path style="fill:#feaf2d; stroke:none;" d="M805 821L806 822L805 821z"/>
<path style="fill:#4c43a0; stroke:none;" d="M826 821L827 822L826 821M828 821L828 822L835 822L828 821z"/>
<path style="fill:#f16260; stroke:none;" d="M841 821L842 822L841 821z"/>
<path style="fill:#feaf2d; stroke:none;" d="M849 821L850 822L849 821z"/>
<path style="fill:#4c43a0; stroke:none;" d="M864 821L865 822L864 821z"/>
<path style="fill:#f16260; stroke:none;" d="M875 821L876 822L875 821z"/>
<path style="fill:#4c43a0; stroke:none;" d="M876.667 821.333L877.333 821.667L876.667 821.333M881.667 821.333L882.333 821.667L881.667 821.333z"/>
<path style="fill:#f16260; stroke:none;" d="M883 821L884 822L883 821z"/>
<path style="fill:#feaf2d; stroke:none;" d="M884 821L885 822L884 821z"/>
<path style="fill:#4c43a0; stroke:none;" d="M896 821L897 822L896 821M902.667 821.333L903.333 821.667L902.667 821.333M910 821L911 822L910 821M928 821L929 822L928 821z"/>
<path style="fill:#feaf2d; stroke:none;" d="M929 821L930 822L929 821z"/>
<path style="fill:#f16260; stroke:none;" d="M941 821L942 822L941 821z"/>
<path style="fill:#feaf2d; stroke:none;" d="M951 821L952 822L951 821M988 821L989 822L988 821M999 821L1000 822L999 821M1008 821L1008 822L1011 822L1008 821M1019.67 821.333L1020.33 821.667L1019.67 821.333M1037 821L1038 822L1037 821M1045.67 821.333L1046.33 821.667L1045.67 821.333M1068 821L1069 822L1068 821M1076.67 821.333L1077.33 821.667L1076.67 821.333M1101 821L1102 822L1101 821M1112 821L1113 822L1112 821M1128 821L1128 822L1131 822L1128 821M1140.67 821.333L1141.33 821.667L1140.67 821.333M1157 821L1158 822L1157 821M1175 821L1176 822L1175 821M1186 821L1187 822L1186 821M799 822L799 823L802 823L799 822M878 822L878 823L881 823L878 822z"/>
<path style="fill:#4c43a0; stroke:none;" d="M941 822L939 827L940 827L941 822z"/>
<path style="fill:#feaf2d; stroke:none;" d="M1012 822L1012 823L1016 823L1012 822M1039 822L1040 823L1039 822M1041 822L1041 823L1044 823L1041 822M1071 822L1072 823L1071 822M1133 822L1133 823L1136 823L1133 822M940 823L941 824L940 823z"/>
<path style="fill:#4c43a0; stroke:none;" d="M949 824L947 830L948 830L949 824z"/>
<path style="fill:#feaf2d; stroke:none;" d="M939 825L940 826L939 825M949 826L950 827L949 826M938 827L939 828L938 827z"/>
<path style="fill:#4c43a0; stroke:none;" d="M938 828L936 833L938 828z"/>
<path style="fill:#feaf2d; stroke:none;" d="M948 828L949 829L948 828M937 829L938 830L937 829M947.333 830.667L947.667 831.333L947.333 830.667z"/>
<path style="fill:#4c43a0; stroke:none;" d="M939 831L940 832L939 831M946 831L947 832L946 831z"/>
<path style="fill:#f16260; stroke:none;" d="M946 832L947 833L946 832z"/>
<path style="fill:#4c43a0; stroke:none;" d="M945 833L936 834L936 835L946 834L945 833z"/>
<path style="fill:#feaf2d; stroke:none;" d="M946 833L947 834L946 833M945 834L946 835L945 834M1058 834L1059 835L1058 834z"/>
</svg>
