<?xml version="1.0" standalone="yes"?>
<svg xmlns="http://www.w3.org/2000/svg" width="1920" height="1080">
<path style="fill:#fef5e5; stroke:none;" d="M0 0L0 1080L1920 1080L1920 0L0 0z"/>
<path style="fill:#fe4e46; stroke:none;" d="M408 681L528 693L528 694L421 694C411.317 694 389.153 689.063 389 702L1133 702C1133.16 705.633 1132.74 713.506 1135.03 716.397C1138.01 720.158 1145.88 718.154 1147.14 713.941C1152.22 696.969 1148.2 678.105 1153.66 661C1155.32 655.779 1155.93 649.873 1160 646C1160 666.444 1163.67 685.172 1168.63 705C1169.81 709.73 1175.57 728.086 1182.88 715.57C1184.4 712.971 1182.82 708.751 1182.43 706C1181.28 698.012 1180.1 690.018 1179 682C1175.79 658.625 1180.15 635.414 1182 612C1166.22 619.365 1150.42 615.602 1135 610C1133.88 635.977 1125.49 667.578 1133 693L1093 694L1015 694L768 694C767.84 689.168 749.167 672.77 763.995 677.696C766.054 678.38 767.847 678.78 770 679L776 616L743 613.282L731.773 610.411L732.424 592L737.576 543L749.17 431L757 355C727.211 354.385 696.64 349.009 667 345.834C656.837 344.745 638.747 339.104 629.093 342.593C621.413 345.368 614.25 358.02 608.95 364C591.596 383.579 575.002 403.853 557.487 423.286C525.007 459.32 494.141 496.806 461.834 533C451.838 544.199 442.159 555.693 432.282 567.001C427.84 572.085 421.141 577.678 418.563 584C414.962 592.835 415.778 605.53 414.831 615C412.648 636.83 408.453 659.072 408 681z"/>
<path style="fill:#4a9ab0; stroke:none;" d="M883 634L882 634C881.133 627.144 880.918 617.415 875.772 612.225C867.333 603.713 847.173 607.828 840.703 617.043C836.89 622.474 837.004 630.64 837 637L833 634L837 644C840.296 644.352 846.872 642.813 849.226 645.603C854.576 651.945 846.206 665.251 838 661C839.506 665.655 836.061 670.497 837.978 674.674C844.211 688.251 865.811 690.786 878 688L873 693L873 694C877.77 691.722 880.209 687.884 882 683L883 683L883 694L889 694L889 537C889 502.462 886.62 468.111 904.427 437C911.21 425.152 920.161 414.56 931 406.235C985.873 364.089 1062.49 398.53 1078 464L1079 464L1079 460L1080 460L1081 467L1080 467L1080 465L1079 465C1084.99 540.827 1082 617.808 1082 694L1088 694L1088 538C1088 502.935 1090.5 468.135 1073.89 436C1036.7 364.051 937.164 363.255 898.312 434C883.003 461.875 883 492.133 883 523C883 559.922 884.278 597.127 883 634z"/>
<path style="fill:#fe4e46; stroke:none;" d="M1401 474C1397.5 481.48 1389.06 486.713 1382.98 492.144C1369.04 504.587 1355.05 516.966 1341 529.285C1335.31 534.271 1322.03 542.365 1320.33 550.004C1319.02 555.931 1324.4 560.782 1327.63 565.015C1335.85 575.79 1344.35 586.4 1352.8 597C1355.99 600.997 1359.61 607.371 1365 608.522C1370.09 609.609 1374.78 604.913 1379 602.81C1388.52 598.064 1399.05 599.423 1406.21 607.616C1412.93 615.308 1412 624.497 1412 634C1411.99 654.066 1407.41 673.966 1407 694L1360 694C1360 688.538 1362.48 674.81 1358.4 670.738C1354.15 666.5 1341.64 667.194 1336 666.989C1319.12 666.375 1301.79 663.935 1285 662.05C1279.43 661.425 1268.14 658.515 1263.43 662.603C1257.47 667.783 1260 686.706 1260 694L1248 694L1248 703L1461 703L1512 703C1515.8 703 1526.42 704.869 1528.39 700.683C1532.92 691.07 1506.93 694.174 1502 693C1504.26 685.349 1503.42 676.892 1504.17 669C1507.46 634.417 1503.74 592.088 1472 570.749C1463.64 565.128 1454.61 562.494 1445 560C1459.47 541.501 1479.89 525.119 1497.29 509.335C1504.63 502.67 1515.84 494.539 1520.74 485.816C1524.19 479.652 1523.51 470.833 1524.17 464C1525.49 450.373 1527.27 436.677 1528.04 423C1528.34 417.478 1531.43 407.354 1527.14 402.728C1523.89 399.214 1517.27 400.22 1513 399.714C1500.37 398.219 1487.67 397.103 1475 395.925C1433 392.02 1390.99 387.894 1349 383.83L1318 380.83C1312.94 380.341 1306.01 378.569 1301.11 380.603C1295.5 382.93 1296.37 392.987 1295.83 398C1294.13 413.892 1291.81 430.036 1291.04 446C1290.79 451.09 1288.45 458.642 1293.23 462.258C1299.6 467.072 1314.27 465.371 1322 466.286C1348.21 469.388 1374.69 471.924 1401 474z"/>
<path style="fill:#495990; stroke:none;" d="M964 384L964 385L976 384L976 385L964 387L964 388L984 385L984 384L976 384L976 383L996 383C987.501 379.433 972.769 381.906 964 384M998 383L998 384L1003 384L998 383M986 384L987 385L986 384M989 384L989 385L995 385L989 384M1005 384L1005 385L1008 385L1005 384M960 385L956 386L956 387L961 386L960 385M996 385L996 386L1002 386L996 385M1010 385L1010 386L1020 389L1020 388L1010 385z"/>
<path style="fill:#fef5e5; stroke:none;" d="M889 694L1082 694L1082 538C1082 506.656 1085.19 474.195 1071.51 445C1044.67 387.712 974.008 367.649 925 410.289C915.602 418.467 907.954 428.959 902.258 440C886.238 471.054 889 505.148 889 539L889 694z"/>
<path style="fill:#495990; stroke:none;" d="M1006 387L1006 388L1017 391L1017 390L1006 387M947 390L947 391L953 389L947 390M955 389L955 390L962 389L955 389M1022 389L1025 391L1025 390L1022 389M938 394L938 395L946 392L938 394M952.667 391.333L953.333 391.667L952.667 391.333M1019 391L1022 393L1019 391M1026 391L1029 393L1029 392L1026 391M946.667 393.333L947.333 393.667L946.667 393.333M1023 393L1023 394L1029 396L1029 395L1023 393M944 394L943 396L945 396L944 394M1031 394L1031 395L1042 401L1042 400L1031 394M930 401L937 397L930 401M938 399L941 398L938 399M1030.67 397.333L1031.33 397.667L1030.67 397.333M936.333 399.667L936.667 400.333L936.333 399.667M1034 399L1036 401L1034 399M933 401L930 403L930 404L933 401M927 402L928 403L927 402M1039 402L1060 423L1048 407L1058 416L1043 402L1043 403L1048 407L1045 408L1039 402M922 407L925 405L922 407M928 405L929 406L928 405M920 408L919 410L920 408M924 408L925 409L924 408M922 410L923 411L922 410M917 411L912 417L917 411M920 412L919 414L920 412M917 415L912 422L917 415M911 418L906 425L911 418M1060 418L1062 421L1060 418M1063 422L1065 425L1063 422M910 424L904 434L905 434L910 424M1060 424L1064 430L1065 430L1060 424M904 426L903 430L904 430L904 426M1066 426L1068 431L1069 431L1066 426M901.667 431.333L902.333 431.667L901.667 431.333M1066 432L1067 433L1066 432M900 434L901 435L900 434M1067 434L1068 437L1069 437L1069 434L1067 434M903 435L904 436L903 435z"/>
<path style="fill:#4a9ab0; stroke:none;" d="M1008 506L1006 503L1014 497L1009 504C1028.77 489.97 1026.04 466.334 1015 448L1014 448L1018 456C1012.73 449.361 1010.87 443.302 1003 439.051C960.697 416.203 925.028 481.803 966 506.931C971.141 510.084 976.981 511.695 983 511.961C992.417 512.376 999.489 509.539 1008 506z"/>
<path style="fill:#495990; stroke:none;" d="M1071 435L1073 438L1071 435M899 436L895 452L896 452L902 437L901 437L899 440L899 436M980 510L980 509C944.279 503.65 940.145 454.703 972 440.443C987.664 433.431 998.385 441.663 1012 448C1000.13 432.013 973.702 433.343 960.015 446.104C943.663 461.352 944.577 490.479 963.039 503.779C968.086 507.415 973.837 509.496 980 510z"/>
<path style="fill:#4a9ab0; stroke:none;" d="M983 437C969.969 440.968 955.9 446.022 952 461L953 461C957.738 451.98 964.072 444.284 974 440.722C976.287 439.902 984.092 439.646 983 437z"/>
<path style="fill:#fef5e5; stroke:none;" d="M984 438.714C939.309 439.84 941.496 509.984 986 508.871C1032.1 507.718 1030.25 437.548 984 438.714z"/>
<path style="fill:#4a9ab0; stroke:none;" d="M985 438L985 439L997 440L985 438z"/>
<path style="fill:#495990; stroke:none;" d="M1070.33 438.667L1070.67 439.333L1070.33 438.667M1073 439L1074 442L1075 442L1073 439M896.333 440.667L896.667 441.333L896.333 440.667z"/>
<path style="fill:#4a9ab0; stroke:none;" d="M997 440L997 441L1000 441L997 440M1000.67 441.333L1001.33 441.667L1000.67 441.333z"/>
<path style="fill:#495990; stroke:none;" d="M1071 441L1072 445L1073 445L1071 441z"/>
<path style="fill:#4a9ab0; stroke:none;" d="M1002 442L1005 444L1002 442z"/>
<path style="fill:#495990; stroke:none;" d="M895.333 443.667L895.667 444.333L895.333 443.667M1075 443L1077 448L1078 448L1075 443z"/>
<path style="fill:#4a9ab0; stroke:none;" d="M1005 444L1008 446L1005 444z"/>
<path style="fill:#495990; stroke:none;" d="M894 446L893 449L894 446z"/>
<path style="fill:#4a9ab0; stroke:none;" d="M1008 446L1010 448L1010 446L1008 446M980 448.468C947.373 454.741 958.421 504.384 991 498.671C1023.81 492.918 1012.65 442.192 980 448.468z"/>
<path style="fill:#495990; stroke:none;" d="M1012 448L1017 456L1018 456L1012 448M1074 448L1075 449L1074 448z"/>
<path style="fill:#fef5e5; stroke:none;" d="M984 449.609C953.531 451.458 955.734 498.655 986 497.74C1017.82 496.778 1015.6 447.691 984 449.609z"/>
<path style="fill:#495990; stroke:none;" d="M1076 451L1076 454L1078 451L1076 451M891 453L890 459L891 459L891 453M1079 453L1077 457L1078 458L1081 456L1081 455L1079 453M893 456L889 474L890 474L893 456M1018 456L1021.82 473L1014 497L1015 497C1022.77 486.019 1027.39 467.633 1018 456z"/>
<path style="fill:#4a9ab0; stroke:none;" d="M1018.33 459.667L1018.67 460.333L1018.33 459.667z"/>
<path style="fill:#495990; stroke:none;" d="M1079 460L1080 467L1081 467L1079 460z"/>
<path style="fill:#4a9ab0; stroke:none;" d="M1019 461L1019 464L1020 464L1019 461z"/>
<path style="fill:#495990; stroke:none;" d="M1081 461L1083 464L1081 461z"/>
<path style="fill:#4a9ab0; stroke:none;" d="M951 462L950 482L951 482L951 462M1020 464L1021 477L1022 477L1020 464z"/>
<path style="fill:#495990; stroke:none;" d="M887 468L887 473L888 473L887 468M1083 468L1082 477L1083 477L1083 468z"/>
<path style="fill:#4a9ab0; stroke:none;" d="M1144 468L1144 469L1149 469L1144 468M1142 469L1139 473L1142 469z"/>
<path style="fill:#495990; stroke:none;" d="M1142 471L1145 470L1142 471z"/>
<path style="fill:#3c3868; stroke:none;" d="M1161 504C1168.59 496.565 1167.82 508.328 1169 513L1171 513C1183.95 495.456 1174.08 489.55 1160.04 478.486C1155.78 475.129 1152.3 468.574 1146 469.488C1136.17 470.917 1135.36 488.044 1143.11 492.443C1149.59 496.124 1154.99 499.438 1161 504z"/>
<path style="fill:#495990; stroke:none;" d="M1149 469L1150 470L1149 469z"/>
<path style="fill:#4a9ab0; stroke:none;" d="M1150.67 469.333L1151.33 469.667L1150.67 469.333M1152 470L1153 471L1152 470M1153 471L1154 472L1153 471M1154 472L1156 474L1154 472z"/>
<path style="fill:#495990; stroke:none;" d="M1139 473L1138 477L1139 477L1139 473M1154 473L1155 474L1154 473z"/>
<path style="fill:#4a9ab0; stroke:none;" d="M1138 474L1139 475L1138 474M1156 474L1163 480L1163 479L1156 474z"/>
<path style="fill:#495990; stroke:none;" d="M886 475L885 608L886 608L886 513L886 475M1156 475L1157 476L1156 475z"/>
<path style="fill:#4a9ab0; stroke:none;" d="M1137 476L1137 480L1138 480L1137 476z"/>
<path style="fill:#495990; stroke:none;" d="M1157 476L1158 477L1157 476z"/>
<path style="fill:#4a9ab0; stroke:none;" d="M1020 477L1020 483L1021 483L1020 477z"/>
<path style="fill:#495990; stroke:none;" d="M1084 477C1079.76 499.819 1083 525.798 1083 549L1083 688L1084 688L1084 533L1084 492L1084 477M1158 477L1159 478L1158 477z"/>
<path style="fill:#fef5e5; stroke:none;" d="M539 592L621 600L626.83 545L634 478C622.758 483.693 613.774 500.375 605.753 510C590.275 528.574 574.706 547.124 559.6 566C552.788 574.512 544.417 582.516 539 592z"/>
<path style="fill:#495990; stroke:none;" d="M1159 478L1160 479L1159 478M1161 479L1162 480L1161 479M888 480L888 483L889 483L888 480M1137 480L1137 484L1138 484L1137 480M1162 480L1162 481L1165 482L1162 480z"/>
<path style="fill:#4a9ab0; stroke:none;" d="M1164 480L1165 481L1164 480M1165 481L1165 482L1168 483L1165 481M951 482L951 486L952 486L951 482z"/>
<path style="fill:#495990; stroke:none;" d="M1166 482L1167 483L1166 482z"/>
<path style="fill:#4a9ab0; stroke:none;" d="M1019 483L1019 486L1020 486L1019 483z"/>
<path style="fill:#495990; stroke:none;" d="M1167 483L1167 484L1170 485L1167 483z"/>
<path style="fill:#4a9ab0; stroke:none;" d="M1169 483L1170 484L1169 483z"/>
<path style="fill:#495990; stroke:none;" d="M1085 484L1085 488L1086 488L1085 484z"/>
<path style="fill:#4a9ab0; stroke:none;" d="M1137 484L1139 491L1140 491L1137 484M1170 484L1170 485L1176 489L1170 484z"/>
<path style="fill:#495990; stroke:none;" d="M1171 485L1172 486L1171 485z"/>
<path style="fill:#4a9ab0; stroke:none;" d="M952.333 486.667L952.667 487.333L952.333 486.667M1018.33 486.667L1018.67 487.333L1018.33 486.667z"/>
<path style="fill:#495990; stroke:none;" d="M1138.33 486.667L1138.67 487.333L1138.33 486.667M1172 486L1173 487L1172 486M1173 487L1174 488L1173 487z"/>
<path style="fill:#4a9ab0; stroke:none;" d="M953 488L954 492L955 492L953 488M1017 488L1016 492L1017 492L1017 488z"/>
<path style="fill:#495990; stroke:none;" d="M1174 488L1174 490L1176 490L1174 488M1139 489L1140 490L1139 489z"/>
<path style="fill:#4a9ab0; stroke:none;" d="M1176 490L1178 492L1176 490M1140 491L1141 492L1140 491z"/>
<path style="fill:#495990; stroke:none;" d="M1176 491L1177 492L1176 491z"/>
<path style="fill:#4a9ab0; stroke:none;" d="M955 492L958 496L955 492M1015 492L1014 495L1015 492z"/>
<path style="fill:#495990; stroke:none;" d="M1085 492L1085 496L1086 496L1085 492z"/>
<path style="fill:#4a9ab0; stroke:none;" d="M1141 492L1144 494L1144 493L1141 492z"/>
<path style="fill:#495990; stroke:none;" d="M1142 492L1143 493L1142 492M1177.33 492.667L1177.67 493.333L1177.33 492.667M1144.67 493.333L1145.33 493.667L1144.67 493.333z"/>
<path style="fill:#4a9ab0; stroke:none;" d="M1178.33 493.667L1178.67 494.333L1178.33 493.667M1145.67 494.333L1146.33 494.667L1145.67 494.333z"/>
<path style="fill:#495990; stroke:none;" d="M1147.67 494.333L1148.33 494.667L1147.67 494.333z"/>
<path style="fill:#4a9ab0; stroke:none;" d="M1148 495L1148 496L1154 499L1148 495z"/>
<path style="fill:#495990; stroke:none;" d="M1150 495L1151 496L1150 495M1178 495L1178 500L1179 500L1178 495z"/>
<path style="fill:#4a9ab0; stroke:none;" d="M958 496L958 498L960 498L958 496z"/>
<path style="fill:#495990; stroke:none;" d="M1152 496L1153 497L1152 496M1013 497L1006 504C1009.51 503.045 1013.1 500.922 1013 497M1153 497L1154 498L1153 497z"/>
<path style="fill:#4a9ab0; stroke:none;" d="M960 498L960 500L962 500L960 498z"/>
<path style="fill:#495990; stroke:none;" d="M1154 498L1155 499L1154 498z"/>
<path style="fill:#4a9ab0; stroke:none;" d="M1155 499L1156 500L1155 499M962 500L963 501L962 500M1156 500L1157 501L1156 500z"/>
<path style="fill:#495990; stroke:none;" d="M1164 500L1164 501L1168 502L1168 501L1164 500z"/>
<path style="fill:#4a9ab0; stroke:none;" d="M1178 500L1176 507L1177 507L1178 500M963 501L964 502L963 501M1157 501L1158 502L1157 501z"/>
<path style="fill:#495990; stroke:none;" d="M1162 501L1163 502L1162 501z"/>
<path style="fill:#4a9ab0; stroke:none;" d="M1163 501L1163 502L1166 502L1163 501M964 502L967 504L964 502M1158 502L1160 504L1158 502z"/>
<path style="fill:#495990; stroke:none;" d="M1159 502L1160 503L1159 502z"/>
<path style="fill:#4a9ab0; stroke:none;" d="M1162 502L1160 505L1160 506L1162 502M1166.67 502.333L1167.33 502.667L1166.67 502.333z"/>
<path style="fill:#495990; stroke:none;" d="M1177.33 502.667L1177.67 503.333L1177.33 502.667M1161 503L1160 505L1162 505L1161 503M1168 503L1168 508L1169 508L1168 503z"/>
<path style="fill:#4a9ab0; stroke:none;" d="M967 504L967 505L971 506L971 505L967 504M995 507L995 508L1004 505L995 507z"/>
<path style="fill:#495990; stroke:none;" d="M990 509L990 510C996.171 509.872 1001.84 508.839 1006 504L990 509M1176 505L1177 506L1176 505z"/>
<path style="fill:#4a9ab0; stroke:none;" d="M971.667 506.333L972.333 506.667L971.667 506.333M973 507L973 508L976 508L973 507M1167.33 507.667L1167.67 508.333L1167.33 507.667z"/>
<path style="fill:#495990; stroke:none;" d="M1175 507L1172 512L1173 512L1175 507z"/>
<path style="fill:#4a9ab0; stroke:none;" d="M1175 508L1176 509L1175 508z"/>
<path style="fill:#495990; stroke:none;" d="M1167 509L1167 512L1168 512L1167 509z"/>
<path style="fill:#4a9ab0; stroke:none;" d="M1174 509L1175 510L1174 509z"/>
<path style="fill:#495990; stroke:none;" d="M984 510L984 511L989 511L984 510z"/>
<path style="fill:#4a9ab0; stroke:none;" d="M1173.33 510.667L1173.67 511.333L1173.33 510.667z"/>
<path style="fill:#495990; stroke:none;" d="M1168 512L1168 513L1172 513L1172 512L1168 512z"/>
<path style="fill:#4a9ab0; stroke:none;" d="M1168 513L1169 514L1168 513M1171 513L1172 514L1171 513z"/>
<path style="fill:#fe4e46; stroke:none;" d="M1150 530L1180 529C1174.52 521.782 1150.4 517.68 1150 530z"/>
<path style="fill:#495990; stroke:none;" d="M1156 529L1156 530L1162 530L1156 529z"/>
<path style="fill:#3c3868; stroke:none;" d="M1128 561C1131.85 563.408 1138.18 567.105 1139.02 572C1140.69 581.781 1127.32 602.934 1138.23 610.856C1146.34 616.744 1159.65 615.518 1169 614.979C1172.28 614.79 1177.47 615.294 1179.77 612.472C1183.88 607.44 1181.78 597.994 1182.04 592C1182.75 575.665 1191.4 552.056 1184.02 537.001C1177.45 523.604 1151.22 527.291 1142.68 537.174C1136.76 544.032 1132.67 553.243 1128 561z"/>
<path style="fill:#495990; stroke:none;" d="M1177 529L1177 530L1184 538L1185 538C1183.57 533.532 1181.62 530.36 1177 529z"/>
<path style="fill:#4a9ab0; stroke:none;" d="M1180 529L1181 530L1180 529M1149 530L1145 534L1150 531L1149 530z"/>
<path style="fill:#495990; stroke:none;" d="M1150 530L1151 531L1150 530z"/>
<path style="fill:#4a9ab0; stroke:none;" d="M1181 530L1182 531L1181 530z"/>
<path style="fill:#495990; stroke:none;" d="M1149 531L1150 532L1149 531M1147 532L1148 533L1147 532z"/>
<path style="fill:#4a9ab0; stroke:none;" d="M1182 532L1183 533L1182 532M1034.17 533.801C1028.96 535.51 1024.59 543.048 1021.13 546.995C1017.39 551.256 1013.41 550.976 1009.6 554.027C1006.4 556.591 1006.25 568.195 1007.32 571.856C1008.69 576.542 1015.18 575.853 1019 576.039C1030.02 576.574 1049.55 583.323 1059.85 579.357C1063.55 577.934 1062.9 573.187 1063.29 570C1064.78 557.59 1053.37 551.354 1045.58 541.87C1042.99 538.729 1039.07 532.192 1034.17 533.801z"/>
<path style="fill:#495990; stroke:none;" d="M1146 533L1147 534L1146 533M1151 533L1152 534L1151 533z"/>
<path style="fill:#4a9ab0; stroke:none;" d="M1183 533L1184 534L1183 533z"/>
<path style="fill:#495990; stroke:none;" d="M1032 537L1038 536C1035.34 534.222 1034.22 534.785 1032 537M1144.67 534.333L1145.33 534.667L1144.67 534.333z"/>
<path style="fill:#4a9ab0; stroke:none;" d="M1143 535L1144 536L1143 535M1184 535L1185 536L1184 535z"/>
<path style="fill:#495990; stroke:none;" d="M1142 536L1140 540L1142 536z"/>
<path style="fill:#4a9ab0; stroke:none;" d="M1185 536L1185 539L1186 539L1185 536z"/>
<path style="fill:#495990; stroke:none;" d="M1034 537L1034 539L1037 539L1037 537L1034 537z"/>
<path style="fill:#4a9ab0; stroke:none;" d="M1141 537L1142 538L1141 537z"/>
<path style="fill:#fef5e5; stroke:none;" d="M1019 553L1054 557L1040 538L1031.17 539.279L1019 553z"/>
<path style="fill:#4a9ab0; stroke:none;" d="M1140 538L1141 539L1140 538z"/>
<path style="fill:#495990; stroke:none;" d="M1185.33 539.667L1185.67 540.333L1185.33 539.667z"/>
<path style="fill:#4a9ab0; stroke:none;" d="M1139 540L1138 542L1139 540M1186.33 540.667L1186.67 541.333L1186.33 540.667z"/>
<path style="fill:#495990; stroke:none;" d="M1139 541L1140 542L1139 541M1138 542L1136 547L1137 547L1138 542M1186.33 542.667L1186.67 543.333L1186.33 542.667z"/>
<path style="fill:#4a9ab0; stroke:none;" d="M1137 543L1138 544L1137 543M920.015 544.827C909.15 547.056 913.011 563.503 923.985 560.562C933.781 557.937 929.745 542.831 920.015 544.827M1187 544L1187 554L1188 554L1187 544M1136 545L1137 546L1136 545z"/>
<path style="fill:#fef5e5; stroke:none;" d="M920.044 546.931C912.475 548.902 915.488 561.277 922.982 559.149C930.654 556.97 927.73 544.93 920.044 546.931z"/>
<path style="fill:#4a9ab0; stroke:none;" d="M1135 547L1133 551L1134 551L1135 547z"/>
<path style="fill:#495990; stroke:none;" d="M1135 548L1136 549L1135 548z"/>
<path style="fill:#4a9ab0; stroke:none;" d="M921 550L921 555L922 555L921 550z"/>
<path style="fill:#495990; stroke:none;" d="M1134 550L1135 551L1134 550M921.333 551.667L921.667 552.333L921.333 551.667M1133 551L1134 552L1133 551z"/>
<path style="fill:#4a9ab0; stroke:none;" d="M1132 552L1133 553L1132 552z"/>
<path style="fill:#495990; stroke:none;" d="M1186 552L1186 557L1187 557L1186 552M1132 553L1133 554L1132 553M1010 556L1013 555L1010 556M1015 554L1015 556L1017 556L1015 554z"/>
<path style="fill:#4a9ab0; stroke:none;" d="M1131 554L1128 560L1129 560L1131 554z"/>
<path style="fill:#495990; stroke:none;" d="M1020 555L1021 556L1020 555M1023 556L1023 557L1032 557L1023 556M1131 555L1132 556L1131 555M1034 556L1034 558L1036 558L1034 556M1039 557L1039 558L1053 559L1039 557M1130 557L1131 558L1130 557z"/>
<path style="fill:#4a9ab0; stroke:none;" d="M1186 557L1186 561L1187 561L1186 557z"/>
<path style="fill:#495990; stroke:none;" d="M1009 558L1009 560L1011 558L1009 558M1056 558L1057 559L1056 558M1129 558L1130 559L1129 558M1185 558L1185 563L1186 563L1185 558M1021.67 559.333L1022.33 559.667L1021.67 559.333M1024 559L1024 561L1026 561L1024 559M1059 559L1059 560L1061 572L1062 572L1062 559L1059 559M1017 563L1018 563L1020 561L1017 563M1033.67 560.333L1034.33 560.667L1033.67 560.333M1036 560L1037 561L1036 560M1042 560L1042 562L1044 562L1042 560M1046 560L1046 561L1051 562L1051 561L1046 560z"/>
<path style="fill:#fef5e5; stroke:none;" d="M1024 568L1020 566L1020 564L1024 564L1023 561C1017.8 562.996 1017.75 568.935 1024 568z"/>
<path style="fill:#495990; stroke:none;" d="M1038 563L1041 561L1038 563M1128 561L1128 562L1132 564L1128 561M1030 562L1029 567L1030 567L1030 562z"/>
<path style="fill:#fef5e5; stroke:none;" d="M1034.19 562.971C1030.12 564.055 1031.75 570.356 1035.87 569.248C1039.9 568.162 1038.17 561.908 1034.19 562.971z"/>
<path style="fill:#4a9ab0; stroke:none;" d="M1129 562L1130 563L1129 562M1020 566L1021 566L1023 564L1020 566z"/>
<path style="fill:#fef5e5; stroke:none;" d="M1026 563L1026 569L1030 569L1030 568L1028 563L1026 563M1040 564L1040 566L1043 569L1040 568L1051 571L1051 570L1048 570L1050 568L1051 564L1047 563L1047 568L1044 563L1040 564z"/>
<path style="fill:#4a9ab0; stroke:none;" d="M1130 563L1131 564L1130 563M1185 563L1185 568L1186 568L1185 563z"/>
<path style="fill:#495990; stroke:none;" d="M1016 564L1017 568L1018 568L1016 564M1021 564L1021 566L1023 566L1023 564L1021 564z"/>
<path style="fill:#4a9ab0; stroke:none;" d="M1034 564L1033 568L1037 567L1037 565L1036 564L1034 564M1131 564L1131 565L1136 568L1131 564z"/>
<path style="fill:#495990; stroke:none;" d="M1133 564L1134 565L1133 564M1184 564L1184 570L1185 570L1184 564M1034 565L1034 567L1036 567L1036 565L1034 565M1134 565L1135 566L1134 565M1135 566L1136 567L1135 566M1136 567L1137 568L1136 567M1008 568L1009 569L1008 568M1137 568L1139 574L1140 574L1137 568z"/>
<path style="fill:#4a9ab0; stroke:none;" d="M827 571L830 570L827 571z"/>
<path style="fill:#495990; stroke:none;" d="M830 569L830 570L833 570L830 569z"/>
<path style="fill:#4a9ab0; stroke:none;" d="M833 569L833 570L837 570L833 569z"/>
<path style="fill:#495990; stroke:none;" d="M1018 569L1020 571L1018 569M1024 569L1022 570L1022 571L1024 569z"/>
<path style="fill:#4a9ab0; stroke:none;" d="M1137 569L1138 570L1137 569z"/>
<path style="fill:#495990; stroke:none;" d="M828 570L829 571L828 570z"/>
<path style="fill:#3c3868; stroke:none;" d="M845 592C844.599 587.26 849.571 582.215 852.806 588.124C853.353 589.125 852.821 611.501 860.925 600.808C866.38 593.611 867.049 577.872 857.985 573.318C853.464 571.047 847.857 572.315 843 571.829C838.748 571.404 833.307 568.923 829.148 570.746C821.097 574.275 829.634 584.314 834.015 586.626C837.614 588.525 841.387 590.107 845 592z"/>
<path style="fill:#495990; stroke:none;" d="M835 570L835 571L838 571L835 570z"/>
<path style="fill:#4a9ab0; stroke:none;" d="M838.667 570.333L839.333 570.667L838.667 570.333M848 570L848 571L851 571L848 570z"/>
<path style="fill:#495990; stroke:none;" d="M1008 570L1009 571L1008 570M1038.33 570.667L1038.67 571.333L1038.33 570.667z"/>
<path style="fill:#4a9ab0; stroke:none;" d="M1138 570L1139 571L1138 570M1184 570L1184 576L1185 576L1184 570z"/>
<path style="fill:#495990; stroke:none;" d="M826 571L827 572L826 571M840 571L840 572L858 573L840 571z"/>
<path style="fill:#4a9ab0; stroke:none;" d="M856 571L857 572L856 571z"/>
<path style="fill:#495990; stroke:none;" d="M1032 571L1032 572L1036 573L1036 572L1032 571M1045 571L1046 572L1045 571z"/>
<path style="fill:#4a9ab0; stroke:none;" d="M825 572L826 573L825 572M858 572L859 573L858 572M920 572.703C904.756 574.784 907.813 598.359 923 596.655C928.467 596.042 930.539 591.48 935.17 589.603C939.104 588.009 943.852 589.533 947.956 588.852C950.119 588.493 952.077 587.394 952.338 584.996C952.638 582.247 950.296 580.856 947.956 580.344C943.76 579.426 939.12 580.878 935.039 579.411C929.452 577.403 926.819 571.772 920 572.703z"/>
<path style="fill:#495990; stroke:none;" d="M1008 572L1018 574L1018 573L1008 572M1040 572L1041 573L1040 572M1183 572L1183 584L1184 584L1183 572M825 573L825 577L826 577L825 573M859 573L863 577L859 573z"/>
<path style="fill:#4a9ab0; stroke:none;" d="M860 573L861 574L860 573z"/>
<path style="fill:#495990; stroke:none;" d="M1047 573L1047 574L1052 574L1047 573z"/>
<path style="fill:#4a9ab0; stroke:none;" d="M1138 573L1137 576L1138 573M861 574L862 575L861 574z"/>
<path style="fill:#fef5e5; stroke:none;" d="M930 589C915.526 588.998 915.536 580.01 930 580C925.56 571.533 912.159 573.91 911.644 584C911.103 594.616 925.364 598.275 930 589z"/>
<path style="fill:#495990; stroke:none;" d="M1023 574L1024 575L1023 574M1032 574L1035 576L1032 574z"/>
<path style="fill:#4a9ab0; stroke:none;" d="M824 575L825 576L824 575M862 575L863 576L862 575z"/>
<path style="fill:#495990; stroke:none;" d="M1028 575L1029 576L1028 575M1036 575L1037 576L1036 575M1038 577L1041 575L1038 577M1044 576L1044 577L1048 577L1044 576M1138 575L1139 576L1138 575M1056 576L1051 577L1051 578L1056 576M1060 576L1059 578L1061 578L1060 576M1137 576L1137 579L1138 579L1137 576z"/>
<path style="fill:#4a9ab0; stroke:none;" d="M825.333 577.667L825.667 578.333L825.333 577.667M863 577L864 578L863 577M1136 577L1136 581L1137 581L1136 577z"/>
<path style="fill:#495990; stroke:none;" d="M863 578L864 579L863 578M826 579L827 580L826 579z"/>
<path style="fill:#4a9ab0; stroke:none;" d="M864 579L864 595L865 595C865.977 589.736 867.173 583.644 864 579M826 580L827 581L826 580z"/>
<path style="fill:#495990; stroke:none;" d="M827 581L829 583L827 581M864.333 581.667L864.667 582.333L864.333 581.667M919 582L919 583L930 583L919 582M933 582L933 583L951 585C951.851 579.727 936.63 581.559 933 582M1136 581L1136 584L1137 584L1136 581z"/>
<path style="fill:#4a9ab0; stroke:none;" d="M827 582L828 583L827 582M828 583L829 584L828 583z"/>
<path style="fill:#495990; stroke:none;" d="M918 583L919 584L918 583z"/>
<path style="fill:#4a9ab0; stroke:none;" d="M829 584L831 586L829 584z"/>
<path style="fill:#495990; stroke:none;" d="M830 584L831 585L830 584M848 584L848 585C851.831 587.237 852.761 589.645 853 594L854 594C853.878 588.94 853.018 585.805 848 584z"/>
<path style="fill:#4a9ab0; stroke:none;" d="M1135 584L1135 588L1136 588L1135 584M1183 584L1183 600L1184 600L1183 584z"/>
<path style="fill:#495990; stroke:none;" d="M831 585L832 586L831 585M846 585L847 586L846 585z"/>
<path style="fill:#4a9ab0; stroke:none;" d="M847 585L847 586L850 586L847 585z"/>
<path style="fill:#495990; stroke:none;" d="M918.333 585.667L918.667 586.333L918.333 585.667M832.667 586.333L833.333 586.667L832.667 586.333M845 586L844 591L845 591L845 586z"/>
<path style="fill:#4a9ab0; stroke:none;" d="M851 586L852 587L851 586z"/>
<path style="fill:#495990; stroke:none;" d="M920 586L920 587L925 587L920 586M928 586L928 588L930 586L928 586M933.667 586.333L934.333 586.667L933.667 586.333M936.333 586.667L936.667 587.333L936.333 586.667M941.667 586.333L942.333 586.667L941.667 586.333M944 586L944 587L950 587L944 586z"/>
<path style="fill:#4a9ab0; stroke:none;" d="M833.667 587.333L834.333 587.667L833.667 587.333z"/>
<path style="fill:#495990; stroke:none;" d="M835 587L836 588L835 587z"/>
<path style="fill:#4a9ab0; stroke:none;" d="M845 587L846 588L845 587z"/>
<path style="fill:#495990; stroke:none;" d="M1182 587L1182 608L1183 608L1182 587z"/>
<path style="fill:#4a9ab0; stroke:none;" d="M836 588L837 589L836 588z"/>
<path style="fill:#495990; stroke:none;" d="M837.667 588.333L838.333 588.667L837.667 588.333z"/>
<path style="fill:#4a9ab0; stroke:none;" d="M852 588L853 589L852 588z"/>
<path style="fill:#495990; stroke:none;" d="M1135 588L1135 592L1136 592L1135 588z"/>
<path style="fill:#4a9ab0; stroke:none;" d="M838 589L838 590L843 592L843 591L838 589z"/>
<path style="fill:#495990; stroke:none;" d="M840 589L841 590L840 589M864 589L864 592L865 592L864 589M842 590L843 591L842 590z"/>
<path style="fill:#4a9ab0; stroke:none;" d="M845 590L844 593L844 594C846.922 593.361 846.856 592.134 845 590z"/>
<path style="fill:#495990; stroke:none;" d="M843 591L844 592L843 591M844.667 592.333L845.333 592.667L844.667 592.333z"/>
<path style="fill:#4a9ab0; stroke:none;" d="M1134 592L1134 598L1135 598L1134 592M852 593L851 600L852 600L852 593z"/>
<path style="fill:#495990; stroke:none;" d="M852 595L853 596L852 595M863 595L864 596L863 595M851 596L852 597L851 596z"/>
<path style="fill:#4a9ab0; stroke:none;" d="M863.333 596.667L863.667 597.333L863.333 596.667z"/>
<path style="fill:#495990; stroke:none;" d="M862.333 597.667L862.667 598.333L862.333 597.667M851 598L852 599L851 598M1134 598L1134 608L1135 608L1134 598z"/>
<path style="fill:#4a9ab0; stroke:none;" d="M862 599L863 600L862 599M852 600L856 604L852 600z"/>
<path style="fill:#495990; stroke:none;" d="M853 600L854 601L853 600M858 600L859 601L858 600M861 600L862 601L861 600M854 601L855 602L854 601z"/>
<path style="fill:#4a9ab0; stroke:none;" d="M861 601L857 604L857 605L861 601z"/>
<path style="fill:#495990; stroke:none;" d="M855 602L856 603L855 602M860 602L861 603L860 602M856.667 603.333L857.333 603.667L856.667 603.333M859 603L860 604L859 603M1135.33 608.667L1135.67 609.333L1135.33 608.667z"/>
<path style="fill:#4a9ab0; stroke:none;" d="M1182 608L1182 611L1183 611L1182 608z"/>
<path style="fill:#495990; stroke:none;" d="M1181 609L1180 613L1181 613L1181 609z"/>
<path style="fill:#4a9ab0; stroke:none;" d="M800 631L803 630C804.621 634.597 806.524 636.983 811 639L811 638L808 637L810 634C800.366 627.213 796.085 622.916 803 613L804 613C810.816 622.001 815.198 623.015 812 634L818 638L814 622L821 624C816.098 619.324 794.554 603.036 794.331 620.911C794.29 624.157 798.71 627.974 800 631z"/>
<path style="fill:#495990; stroke:none;" d="M1138.67 611.333L1139.33 611.667L1138.67 611.333M1140 612L1141 613L1140 612z"/>
<path style="fill:#fef5e5; stroke:none;" d="M803 613C794.367 621.743 799.434 629.073 810 634L808 637C819.498 643.646 828.387 658.62 840.996 663.003C847.746 665.349 852.926 650.072 849.883 645.603C845.776 639.574 840.143 646.653 840 651L812 634C816.648 624.13 812.228 619.031 803 613z"/>
<path style="fill:#495990; stroke:none;" d="M1142 613L1142 614L1145 614L1142 613M1146 614L1146 615L1149 615L1146 614M1173 614L1173 615L1176 615L1173 614M1151 615L1151 616L1160 616L1151 615M1163 615L1163 616L1171 616L1163 615M886 616L887 619L888 619L888 616L886 616M814 622C817.929 627.537 813.643 628.882 815.306 633.971C817.1 639.465 827.243 643.494 832 646L830 643L838 645L839 649L833 646L833 647L840 650L840 644L837 644C836.823 638.55 835 635.359 830 633L830 634C832.979 636.174 835.98 638.33 834 642C833.674 634.813 822.153 626.959 816 624L818 623L814 622z"/>
<path style="fill:#3c3868; stroke:none;" d="M816 623L816 624C821.58 627.957 833.042 634.911 834 642C839.654 636.74 820.649 624.266 816 623z"/>
<path style="fill:#495990; stroke:none;" d="M819 623L820 624L819 623M885 623L888 625L888 624L885 623M820 624L824 627L824 626L820 624z"/>
<path style="fill:#4a9ab0; stroke:none;" d="M822.667 625.333L823.333 625.667L822.667 625.333z"/>
<path style="fill:#495990; stroke:none;" d="M824 627L829 632L824 627z"/>
<path style="fill:#4a9ab0; stroke:none;" d="M825 627L826 628L825 627M826 628L827 629L826 628z"/>
<path style="fill:#495990; stroke:none;" d="M885 628L885.985 662L884 690L888 690L888 689L886 688L886 687C889.531 683.914 888 676.411 888 672C888 658.435 889.951 640.762 885 628z"/>
<path style="fill:#4a9ab0; stroke:none;" d="M827 629L828 630L827 629z"/>
<path style="fill:#495990; stroke:none;" d="M800 631L803 634L799 633L799 640C792.754 645.046 788.863 665.948 787 674L794 677L794 676L788 672L799 675L798 673C805.449 668.804 809.645 656.153 810 648L816 657L819 656L817 660L821 657L822 657C826.002 669.535 836.507 685.357 848 692L832 675C839.476 680.717 844.228 689.704 854 692L854 693L849 692L849 693C856.072 695.02 866.969 695.078 874 693L874 692L854 691L854 690L856 690L856 689L852 690L840 679L852 686L852 685L837 676L840 677L840 676L837 661L836 675L835 675L836 664L836 663L832 664C826.777 650.688 811.086 645.663 803 635L808 638L808 637L803 630L800 631z"/>
<path style="fill:#3c3868; stroke:none;" d="M818 630L819 631L818 630z"/>
<path style="fill:#4a9ab0; stroke:none;" d="M828 630L829 631L828 630z"/>
<path style="fill:#3c3868; stroke:none;" d="M816 631L817 632L816 631z"/>
<path style="fill:#4a9ab0; stroke:none;" d="M829 631L830 632L829 631M799 632L800 633L799 632z"/>
<path style="fill:#3c3868; stroke:none;" d="M800 632L803 634L800 632M821 632L822 633L821 632z"/>
<path style="fill:#4a9ab0; stroke:none;" d="M830 632L831 633L830 632z"/>
<path style="fill:#495990; stroke:none;" d="M887 632L887 636L888 636L887 632z"/>
<path style="fill:#3c3868; stroke:none;" d="M815 633L830 643L828 639L815 633z"/>
<path style="fill:#4a9ab0; stroke:none;" d="M798 634L798 637L799 637L798 634z"/>
<path style="fill:#3c3868; stroke:none;" d="M800.333 635.667L800.667 636.333L800.333 635.667M803 635L832 664L836 663L836 664L834 665L835 675L836 675L837.839 663.174L828 654.246L803 635z"/>
<path style="fill:#fef5e5; stroke:none;" d="M807 635L808 636L807 635z"/>
<path style="fill:#3c3868; stroke:none;" d="M826 635L826 637L828 637L826 635z"/>
<path style="fill:#4a9ab0; stroke:none;" d="M797 637L797 640L798 640L797 637z"/>
<path style="fill:#495990; stroke:none;" d="M809 638L810 639L809 638z"/>
<path style="fill:#4a9ab0; stroke:none;" d="M819 638L820 639L819 638z"/>
<path style="fill:#3c3868; stroke:none;" d="M798 639L799 640L798 639z"/>
<path style="fill:#495990; stroke:none;" d="M811 639L815 643L811 639z"/>
<path style="fill:#4a9ab0; stroke:none;" d="M812 639L813 640L812 639M820.667 639.333L821.333 639.667L820.667 639.333M813 640L814 641L813 640M822 640L823 641L822 640z"/>
<path style="fill:#3c3868; stroke:none;" d="M831 640L832 641L831 640z"/>
<path style="fill:#4a9ab0; stroke:none;" d="M796 641L796 644L797 644L796 641M814 641L815 642L814 641M815 642L816 643L815 642M825 642L826 643L825 642M816 643L819 646L816 643M826.667 643.333L827.333 643.667L826.667 643.333z"/>
<path style="fill:#3c3868; stroke:none;" d="M830 643L839 649L838 645L830 643z"/>
<path style="fill:#495990; stroke:none;" d="M816 644L817 645L816 644z"/>
<path style="fill:#4a9ab0; stroke:none;" d="M828.667 644.333L829.333 644.667L828.667 644.333M795 645L795 648L796 648L795 645z"/>
<path style="fill:#495990; stroke:none;" d="M817 645L818 646L817 645z"/>
<path style="fill:#4a9ab0; stroke:none;" d="M830 645L831 646L830 645z"/>
<path style="fill:#495990; stroke:none;" d="M818 646L818 647L832 658L818 646z"/>
<path style="fill:#4a9ab0; stroke:none;" d="M820 646L821 647L820 646M832 646L833 647L832 646z"/>
<path style="fill:#3c3868; stroke:none;" d="M809 647L810 648L809 647z"/>
<path style="fill:#4a9ab0; stroke:none;" d="M821 647L822 648L821 647M833 647L834 648L833 647M794 648L794 652L795 652L794 648z"/>
<path style="fill:#3c3868; stroke:none;" d="M798 648L799 649L798 648M810 648C809.292 656.662 804.673 667.322 798 673C809.876 686.211 814.771 664.892 819 656L816 657L810 648z"/>
<path style="fill:#4a9ab0; stroke:none;" d="M822 648L823 649L822 648M835 648L836 649L835 648M823 649L824 650L823 649M836 649L837 650L836 649M824 650L825 651L824 650M838.667 650.333L839.333 650.667L838.667 650.333M825 651L826 652L825 651M793.333 652.667L793.667 653.333L793.333 652.667M827 652L828 653L827 652M828 653L829 654L828 653M829 654L830 655L829 654z"/>
<path style="fill:#3c3868; stroke:none;" d="M794 655L795 656L794 655z"/>
<path style="fill:#4a9ab0; stroke:none;" d="M830 655L831 656L830 655M792.333 656.667L792.667 657.333L792.333 656.667M831 656L832 657L831 656z"/>
<path style="fill:#3c3868; stroke:none;" d="M794.333 657.667L794.667 658.333L794.333 657.667M821 657L831 675L832 675L821 657z"/>
<path style="fill:#4a9ab0; stroke:none;" d="M832 657L832 658L837 661L832 657M791.333 658.667L791.667 659.333L791.333 658.667z"/>
<path style="fill:#495990; stroke:none;" d="M833 658L834 659L833 658z"/>
<path style="fill:#4a9ab0; stroke:none;" d="M818.667 659.333L819.333 659.667L818.667 659.333z"/>
<path style="fill:#3c3868; stroke:none;" d="M826 659L827 660L826 659z"/>
<path style="fill:#495990; stroke:none;" d="M834 659L835 660L834 659z"/>
<path style="fill:#4a9ab0; stroke:none;" d="M817 660L816 663L817 660M820 660L823 664L820 660z"/>
<path style="fill:#495990; stroke:none;" d="M835 660L836 661L835 660z"/>
<path style="fill:#4a9ab0; stroke:none;" d="M790.333 661.667L790.667 662.333L790.333 661.667z"/>
<path style="fill:#495990; stroke:none;" d="M816 661L817 662L816 661M821 661L822 662L821 661M822 662L823 663L822 662z"/>
<path style="fill:#3c3868; stroke:none;" d="M795 663L796 664L795 663z"/>
<path style="fill:#495990; stroke:none;" d="M815 663L816 664L815 663z"/>
<path style="fill:#3c3868; stroke:none;" d="M827 663L828 664L827 663z"/>
<path style="fill:#4a9ab0; stroke:none;" d="M789.333 664.667L789.667 665.333L789.333 664.667M815.333 664.667L815.667 665.333L815.333 664.667z"/>
<path style="fill:#495990; stroke:none;" d="M823 664L826 667L823 664z"/>
<path style="fill:#3c3868; stroke:none;" d="M829 664L830 665L829 664z"/>
<path style="fill:#495990; stroke:none;" d="M814.333 665.667L814.667 666.333L814.333 665.667z"/>
<path style="fill:#4a9ab0; stroke:none;" d="M823 665L824 666L823 665M824 666L830 676L831 676L824 666z"/>
<path style="fill:#3c3868; stroke:none;" d="M831.333 666.667L831.667 667.333L831.333 666.667z"/>
<path style="fill:#4a9ab0; stroke:none;" d="M788.333 667.667L788.667 668.333L788.333 667.667z"/>
<path style="fill:#3c3868; stroke:none;" d="M790 667L789 670L790 667z"/>
<path style="fill:#495990; stroke:none;" d="M809 667L809 670L810 670L811 667L809 667z"/>
<path style="fill:#4a9ab0; stroke:none;" d="M814 667L813 670L814 667z"/>
<path style="fill:#495990; stroke:none;" d="M813 668L814 669L813 668M826 668L827 669L826 668z"/>
<path style="fill:#4a9ab0; stroke:none;" d="M787 669L787 672L788 672L787 669z"/>
<path style="fill:#495990; stroke:none;" d="M812.333 669.667L812.667 670.333L812.333 669.667M827 669L828 670L827 669M828.333 670.667L828.667 671.333L828.333 670.667z"/>
<path style="fill:#4a9ab0; stroke:none;" d="M812.333 671.667L812.667 672.333L812.333 671.667M786.333 672.667L786.667 673.333L786.333 672.667z"/>
<path style="fill:#3c3868; stroke:none;" d="M788 672L796 677L788 672M794.667 672.333L795.333 672.667L794.667 672.333z"/>
<path style="fill:#495990; stroke:none;" d="M811 672L810 676L811 676L811 672M829 672L830 673L829 672M830 673L831 674L830 673z"/>
<path style="fill:#4a9ab0; stroke:none;" d="M787 674L788 675L787 674M811.333 674.667L811.667 675.333L811.333 674.667M788.667 675.333L789.333 675.667L788.667 675.333M797 675L797 676L800 676L797 675z"/>
<path style="fill:#3c3868; stroke:none;" d="M832 675C836.8 682.674 844.482 691.946 854 693L854 692L832 675z"/>
<path style="fill:#4a9ab0; stroke:none;" d="M790.667 676.333L791.333 676.667L790.667 676.333M796 676L793 677L793 678L796 676z"/>
<path style="fill:#495990; stroke:none;" d="M800 676L800 677C803.75 678.442 807.189 680.65 810 677L800 676z"/>
<path style="fill:#4a9ab0; stroke:none;" d="M810.333 676.667L810.667 677.333L810.333 676.667M831 676L832 677L831 676z"/>
<path style="fill:#3c3868; stroke:none;" d="M837 676L840 679L837 676z"/>
<path style="fill:#4a9ab0; stroke:none;" d="M801 677L802 678L801 677M832 677L833 678L832 677z"/>
<path style="fill:#fe4e46; stroke:none;" d="M802 678L803 679L802 678z"/>
<path style="fill:#4a9ab0; stroke:none;" d="M803 678L804 679L803 678M809.333 678.667L809.667 679.333L809.333 678.667M833 678L834 679L833 678M772 679L772 680L776 681L776 680L772 679M805.667 679.333L806.333 679.667L805.667 679.333z"/>
<path style="fill:#3c3868; stroke:none;" d="M840 679L852 690L856 689L856 690L854 690L854 691C862.791 691.187 871.461 696.249 878 688C862.016 692.682 854.114 684.858 840 679z"/>
<path style="fill:#4a9ab0; stroke:none;" d="M756 680C761.276 686.724 775.502 693.431 784 694L784 693L756 680M835 681L836 682L835 681M836 682L837 683L836 682M804 694L805 685C801.841 685.064 797.253 682.497 794.433 683.658C791.334 684.934 791.376 691.057 793.742 692.972C796.137 694.911 801.119 694 804 694M837 683L838 684L837 683z"/>
<path style="fill:#fef5e5; stroke:none;" d="M882 683L875 694L883 694L882 683z"/>
<path style="fill:#4a9ab0; stroke:none;" d="M838 684L839 685L838 684M839 685L840 686L839 685M840 686L841 687L840 686z"/>
<path style="fill:#495990; stroke:none;" d="M853 686L854 687L853 686z"/>
<path style="fill:#4a9ab0; stroke:none;" d="M841 687L842 688L841 687z"/>
<path style="fill:#495990; stroke:none;" d="M855 687L856 688L855 687M878 687L879 688L878 687z"/>
<path style="fill:#fef5e5; stroke:none;" d="M768 688L768 694L779 694L768 688z"/>
<path style="fill:#4a9ab0; stroke:none;" d="M842 688L843 689L842 688z"/>
<path style="fill:#495990; stroke:none;" d="M858.667 688.333L859.333 688.667L858.667 688.333M875 688L876 689L875 688M1085 688L1083 689L1083 690L1085 688z"/>
<path style="fill:#4a9ab0; stroke:none;" d="M843 689L844 690L843 689z"/>
<path style="fill:#495990; stroke:none;" d="M860 689L860 690L864 690L860 689M872 689L872 691L874 689L872 689M877 689L878 690L877 689z"/>
<path style="fill:#4a9ab0; stroke:none;" d="M845 690L846 691L845 690z"/>
<path style="fill:#495990; stroke:none;" d="M876 690L877 691L876 690z"/>
<path style="fill:#4a9ab0; stroke:none;" d="M846 691L847 692L846 691z"/>
<path style="fill:#495990; stroke:none;" d="M875 691L876 692L875 691M885 691L885 692L888 693L885 691M1083 691L1083 692L1086 692L1083 691z"/>
<path style="fill:#4a9ab0; stroke:none;" d="M848 692L848 694L850 694L848 692z"/>
<path style="fill:#3c3868; stroke:none;" d="M855 693L856 694L855 693z"/>
<path style="fill:#fe4e46; stroke:none;" d="M1184 694L1184 702L1240 702L1240 694L1184 694z"/>
<path style="fill:#4a9ab0; stroke:none;" d="M1151 695L1152 696L1151 695M1166.33 696.667L1166.67 697.333L1166.33 696.667z"/>
<path style="fill:#fef5e5; stroke:none;" d="M1132 697L1133 698L1132 697z"/>
<path style="fill:#4a9ab0; stroke:none;" d="M1167 700L1168 701L1167 700M1144 726L1143 728L1144 726z"/>
<path style="fill:#495990; stroke:none;" d="M1144 727L1144 728L1147 729L1148 729L1147 726L1144 727z"/>
<path style="fill:#4a9ab0; stroke:none;" d="M1147 726L1148 727L1147 726M1172 726L1171 728L1172 726z"/>
<path style="fill:#495990; stroke:none;" d="M1173 726L1173 727L1176 728L1173 726z"/>
<path style="fill:#4a9ab0; stroke:none;" d="M1175 726L1176 727L1175 726M1129 727L1130 728L1129 727z"/>
<path style="fill:#495990; stroke:none;" d="M1130 727L1130 728L1134 729L1134 728L1130 727z"/>
<path style="fill:#4a9ab0; stroke:none;" d="M1133 727L1134 728L1133 727z"/>
<path style="fill:#3c3868; stroke:none;" d="M1103 736L1103 737C1114.62 741.903 1138.31 740.26 1150 736C1155.22 741.981 1167.27 737.079 1174 737.079C1178.62 737.078 1182.45 738.333 1187 737L1185 728C1180.7 728.986 1177.1 727.127 1173 727.718C1164.25 728.98 1151.27 740.451 1147 727L1103 736z"/>
<path style="fill:#4a9ab0; stroke:none;" d="M1176.67 727.333L1177.33 727.667L1176.67 727.333M1182 727L1182 728L1185 728L1182 727z"/>
<path style="fill:#495990; stroke:none;" d="M1128 728L1129 729L1128 728z"/>
<path style="fill:#4a9ab0; stroke:none;" d="M1134.67 728.333L1135.33 728.667L1134.67 728.333M1139.67 728.333L1140.33 728.667L1139.67 728.333z"/>
<path style="fill:#495990; stroke:none;" d="M1141.67 728.333L1142.33 728.667L1141.67 728.333z"/>
<path style="fill:#4a9ab0; stroke:none;" d="M1148.33 728.667L1148.67 729.333L1148.33 728.667M1166 729L1166 730L1170 729L1166 729z"/>
<path style="fill:#495990; stroke:none;" d="M1170 728L1171 729L1170 728M1177 728L1177 729L1184 729L1177 728M1185 728L1185 731L1186 731L1185 728z"/>
<path style="fill:#4a9ab0; stroke:none;" d="M1125.67 729.333L1126.33 729.667L1125.67 729.333z"/>
<path style="fill:#495990; stroke:none;" d="M1127 729L1128 730L1127 729M1135 729L1135 730L1141 730L1135 729M1168 729L1169 730L1168 729z"/>
<path style="fill:#4a9ab0; stroke:none;" d="M1186 729L1186 732L1187 732L1186 729M1122.67 730.333L1123.33 730.667L1122.67 730.333z"/>
<path style="fill:#495990; stroke:none;" d="M1124.67 730.333L1125.33 730.667L1124.67 730.333M1148 730C1149.22 733.687 1151.31 733.88 1155 734L1155 733L1148 730z"/>
<path style="fill:#4a9ab0; stroke:none;" d="M1160 731L1160 732L1165 731L1160 731z"/>
<path style="fill:#495990; stroke:none;" d="M1165 730L1165 731L1168 731L1165 730z"/>
<path style="fill:#4a9ab0; stroke:none;" d="M1118.67 731.333L1119.33 731.667L1118.67 731.333z"/>
<path style="fill:#495990; stroke:none;" d="M1120 731L1120 732L1123 732L1120 731z"/>
<path style="fill:#4a9ab0; stroke:none;" d="M1149.33 731.667L1149.67 732.333L1149.33 731.667z"/>
<path style="fill:#495990; stroke:none;" d="M1163.67 731.333L1164.33 731.667L1163.67 731.333z"/>
<path style="fill:#4a9ab0; stroke:none;" d="M1114 732L1114 733L1117 733L1114 732z"/>
<path style="fill:#495990; stroke:none;" d="M1117 732L1117 733L1120 733L1117 732M1127 732L1128 733L1127 732z"/>
<path style="fill:#4a9ab0; stroke:none;" d="M1153 732L1153 733L1157 733L1153 732z"/>
<path style="fill:#495990; stroke:none;" d="M1157 732L1157 733L1160 733L1157 732M1186 732L1186 736L1187 736L1186 732z"/>
<path style="fill:#4a9ab0; stroke:none;" d="M1107 733L1107 734L1112 734L1107 733z"/>
<path style="fill:#495990; stroke:none;" d="M1112 733L1112 734L1115 734L1112 733z"/>
<path style="fill:#4a9ab0; stroke:none;" d="M1103 734L1102 737L1103 737L1103 734z"/>
<path style="fill:#495990; stroke:none;" d="M1104 734L1104 735L1108 735L1104 734M1103 735L1104 736L1103 735z"/>
<path style="fill:#4a9ab0; stroke:none;" d="M1187.33 735.667L1187.67 736.333L1187.33 735.667z"/>
<path style="fill:#495990; stroke:none;" d="M1148 736L1158 739L1158 738L1148 736z"/>
<path style="fill:#4a9ab0; stroke:none;" d="M1103 737L1104 738L1103 737z"/>
<path style="fill:#495990; stroke:none;" d="M1146 737L1147 738L1146 737z"/>
<path style="fill:#4a9ab0; stroke:none;" d="M1147.67 737.333L1148.33 737.667L1147.67 737.333z"/>
<path style="fill:#495990; stroke:none;" d="M1169 737L1169 738L1179 738L1169 737M1186 737L1187 738L1186 737z"/>
<path style="fill:#4a9ab0; stroke:none;" d="M1104 738L1104 739L1110 740L1110 739L1104 738z"/>
<path style="fill:#495990; stroke:none;" d="M1106 738L1107 739L1106 738M1128 738L1128 739L1145 739L1128 738z"/>
<path style="fill:#4a9ab0; stroke:none;" d="M1145.67 738.333L1146.33 738.667L1145.67 738.333M1149 738L1150 739L1149 738z"/>
<path style="fill:#495990; stroke:none;" d="M1163 738L1163 739L1168 739L1163 738z"/>
<path style="fill:#4a9ab0; stroke:none;" d="M1168 738L1168 739L1173 739L1168 738M1176 738L1176 739L1181 739L1176 738z"/>
<path style="fill:#495990; stroke:none;" d="M1181 738L1181 739L1185 739L1181 738z"/>
<path style="fill:#4a9ab0; stroke:none;" d="M1185.67 738.333L1186.33 738.667L1185.67 738.333z"/>
<path style="fill:#495990; stroke:none;" d="M1110 739L1110 740L1122 740L1110 739z"/>
<path style="fill:#4a9ab0; stroke:none;" d="M1122 739L1122 740L1144 740L1122 739M1156 739L1156 740L1164 740L1156 739M720 775L721 776L720 775z"/>
<path style="fill:#495990; stroke:none;" d="M721 775L722 776L721 775z"/>
<path style="fill:#3c3868; stroke:none;" d="M722.143 775.851C717.121 777.498 719.617 785.482 724.867 783.377C729.716 781.434 727.136 774.214 722.143 775.851z"/>
<path style="fill:#495990; stroke:none;" d="M725 775L726 776L725 775z"/>
<path style="fill:#4a9ab0; stroke:none;" d="M726 775L727 776L726 775M859 775L860 776L859 775z"/>
<path style="fill:#495990; stroke:none;" d="M860 775L861 776L860 775z"/>
<path style="fill:#3c3868; stroke:none;" d="M861.213 775.851C856.352 777.525 858.566 785.549 863.786 783.377C868.35 781.478 866.064 774.181 861.213 775.851z"/>
<path style="fill:#495990; stroke:none;" d="M864 775L865 776L864 775z"/>
<path style="fill:#4a9ab0; stroke:none;" d="M865 775L866 776L865 775z"/>
<path style="fill:#fe4e46; stroke:none;" d="M1222.23 775.758C1216.35 778.3 1221.43 786.659 1226.77 783.777C1232.42 780.733 1227.72 773.382 1222.23 775.758z"/>
<path style="fill:#495990; stroke:none;" d="M719 776L720 777L719 776M727 776L728 777L727 776M858 776L857 782L858 782L858 776M866.333 776.667L866.667 777.333L866.333 776.667z"/>
<path style="fill:#4a9ab0; stroke:none;" d="M718 777L719 778L718 777M857 777L858 778L857 777M867.333 777.667L867.667 778.333L867.333 777.667M686 781L687 781L696 779C692.302 777.449 688.279 777.485 686 781z"/>
<path style="fill:#495990; stroke:none;" d="M718 778L719 783L720 783L718 778z"/>
<path style="fill:#4a9ab0; stroke:none;" d="M728 778L729 779L728 778z"/>
<path style="fill:#fe4e46; stroke:none;" d="M1138 778L1138 814L1147 814C1147 809.771 1144.87 796.758 1151.04 795.921C1158.1 794.964 1156 810.067 1156 814C1158.58 813.998 1163.09 814.752 1164.92 812.436C1166.59 810.322 1165.18 806.412 1165.15 803.985C1165.01 792.267 1160.03 782.017 1147 790C1147 781.801 1147.12 778.032 1138 778M1304 778L1304 789C1299.54 787.608 1294.56 785.78 1290.1 788.318C1282.46 792.677 1282.33 805.849 1288.48 811.427C1293.36 815.85 1306.54 813.995 1313 814L1313 778L1304 778z"/>
<path style="fill:#3c3868; stroke:none;" d="M687 779C687 790.013 681.475 813.949 696 814C696 809.345 694.042 798.796 698.317 795.662C706.089 789.964 705.231 809.645 705 813C719.336 817.111 717.848 777.725 696 791L696 779L687 779z"/>
<path style="fill:#495990; stroke:none;" d="M728.333 779.667L728.667 780.333L728.333 779.667M867 779L866 782L867 779z"/>
<path style="fill:#4a9ab0; stroke:none;" d="M656 780L657 781L656 780z"/>
<path style="fill:#495990; stroke:none;" d="M657 782C663.663 780.414 677.357 778.725 683 783C683.727 778.59 659.654 778.365 657 782z"/>
<path style="fill:#4a9ab0; stroke:none;" d="M683 780L684 781L683 780M785 780L786 781L785 780z"/>
<path style="fill:#495990; stroke:none;" d="M785 783L786 783C789.254 780.535 792.746 780.535 796 783C796.825 777.994 786.792 779.744 785 783z"/>
<path style="fill:#4a9ab0; stroke:none;" d="M796 780L797 781L796 780M840 780L840 781L849 781L849 787C851.796 780.094 845.063 780.004 840 780z"/>
<path style="fill:#495990; stroke:none;" d="M942 780L942 781L951 782L942 780z"/>
<path style="fill:#4a9ab0; stroke:none;" d="M951 780L952 781L951 780z"/>
<path style="fill:#fe4e46; stroke:none;" d="M989 781C989.406 786.986 988.55 793.021 989.286 799C989.642 801.891 989.981 805.249 991.456 807.816C996.065 815.834 1009.5 816.097 1015.35 809.481C1019.09 805.252 1022.46 785.041 1017.4 781.028C1015.32 779.379 1011.47 780.002 1009 780C1009 785.028 1012.02 806.327 1003.09 804.623C996.139 803.295 999 785.219 999 780L989 781z"/>
<path style="fill:#3c3868; stroke:none;" d="M667 814L675 813L674 788L683 787C683.607 779.091 661.53 777.444 658.137 782.584C655.331 786.833 664.53 786.96 665.802 789.318C669.114 795.456 664.971 806.894 667 814z"/>
<path style="fill:#4a9ab0; stroke:none;" d="M728 781L729 782L728 781z"/>
<path style="fill:#3c3868; stroke:none;" d="M784 813C787.626 801.055 801.017 813.975 808 814C806.695 809.218 804.741 804.658 803.054 800C801.616 796.03 800.562 791.943 799.036 788.001C791.09 767.48 781.115 794.305 778.192 802C777.215 804.573 774.306 809.707 776.121 812.393C777.713 814.747 781.79 813.403 784 813z"/>
<path style="fill:#495990; stroke:none;" d="M840 781L840 782L848 782L840 781z"/>
<path style="fill:#3c3868; stroke:none;" d="M848 781L840 782L840 783L837 794C843.614 797.647 838.779 805.501 843.514 810.581C848.493 815.924 853.784 813.592 854 807C847.597 804.646 847.175 796.072 854 794L854 788L848 781z"/>
<path style="fill:#4a9ab0; stroke:none;" d="M867 781L868 782L867 781M941 781L942 782L941 781z"/>
<path style="fill:#3c3868; stroke:none;" d="M942 781L942 795L942 804C942.001 807.161 944.189 819.454 949.821 812.396C952.694 808.796 952.83 786.216 949.972 782.603C948.257 780.435 944.424 781.009 942 781z"/>
<path style="fill:#fe4e46; stroke:none;" d="M1120 781L1120 787L1117 787L1117 795L1120 795C1120 807.254 1121.24 813.991 1135 814C1134.58 809.725 1134.84 806.8 1130 806L1130 795L1134 795L1135 788L1130 787C1129.5 780.636 1125.47 781.004 1120 781z"/>
<path style="fill:#4a9ab0; stroke:none;" d="M718 782L719 783L718 782z"/>
<path style="fill:#495990; stroke:none;" d="M727 782L728 783L727 782z"/>
<path style="fill:#4a9ab0; stroke:none;" d="M797.333 782.667L797.667 783.333L797.333 782.667z"/>
<path style="fill:#495990; stroke:none;" d="M858 782L859 783L858 782z"/>
<path style="fill:#4a9ab0; stroke:none;" d="M866.333 782.667L866.667 783.333L866.333 782.667M719 783L720 784L719 783z"/>
<path style="fill:#495990; stroke:none;" d="M726 783L727 784L726 783z"/>
<path style="fill:#4a9ab0; stroke:none;" d="M784 783L785 784L784 783z"/>
<path style="fill:#495990; stroke:none;" d="M840 783L840 787L841 787L842 783L840 783z"/>
<path style="fill:#4a9ab0; stroke:none;" d="M858 783L859 784L858 783z"/>
<path style="fill:#495990; stroke:none;" d="M865 783L866 784L865 783z"/>
<path style="fill:#4a9ab0; stroke:none;" d="M941 783L941 811L942 811L941 783z"/>
<path style="fill:#495990; stroke:none;" d="M683 784L683 787L684 787L683 784z"/>
<path style="fill:#4a9ab0; stroke:none;" d="M722 784L722 785L725 785L722 784z"/>
<path style="fill:#495990; stroke:none;" d="M784 784L785 785L784 784z"/>
<path style="fill:#4a9ab0; stroke:none;" d="M861 784L861 785L864 785L861 784z"/>
<path style="fill:#495990; stroke:none;" d="M657.333 785.667L657.667 786.333L657.333 785.667z"/>
<path style="fill:#4a9ab0; stroke:none;" d="M686.333 785.667L686.667 786.333L686.333 785.667M798 785L799 786L798 785M783 786L784 787L783 786z"/>
<path style="fill:#495990; stroke:none;" d="M798 786L799 787L798 786z"/>
<path style="fill:#4a9ab0; stroke:none;" d="M657 787L657 788L666 789L657 787z"/>
<path style="fill:#495990; stroke:none;" d="M665 787L666 788L665 787M675 787L674 790L675 790L675 787z"/>
<path style="fill:#4a9ab0; stroke:none;" d="M676 787L676 788L684 788L676 787M700 787L701 788L700 787z"/>
<path style="fill:#495990; stroke:none;" d="M701 787L701 788L708 788L701 787z"/>
<path style="fill:#4a9ab0; stroke:none;" d="M708 787L709 788L708 787z"/>
<path style="fill:#495990; stroke:none;" d="M719 787L720 788L719 787z"/>
<path style="fill:#3c3868; stroke:none;" d="M728 814L728 787C714.342 787.048 714.342 813.952 728 814z"/>
<path style="fill:#4a9ab0; stroke:none;" d="M738 787L739 788L738 787z"/>
<path style="fill:#495990; stroke:none;" d="M739 787L739 788L748 788L739 787z"/>
<path style="fill:#4a9ab0; stroke:none;" d="M748 787L749 788L748 787z"/>
<path style="fill:#495990; stroke:none;" d="M783 787L784 788L783 787z"/>
<path style="fill:#4a9ab0; stroke:none;" d="M817.667 787.333L818.333 787.667L817.667 787.333z"/>
<path style="fill:#495990; stroke:none;" d="M819 787L819 788L827 788L819 787z"/>
<path style="fill:#4a9ab0; stroke:none;" d="M827 787L828 788L827 787z"/>
<path style="fill:#495990; stroke:none;" d="M837 787L838 788L837 787M850 787L850 788L854 788L850 787z"/>
<path style="fill:#4a9ab0; stroke:none;" d="M854 787L854 795L855 795L854 787M857 787L857 792L858 792L857 787z"/>
<path style="fill:#495990; stroke:none;" d="M858.333 787.667L858.667 788.333L858.333 787.667z"/>
<path style="fill:#3c3868; stroke:none;" d="M859 787L859 814L867 813C866.38 803.365 871.677 787.817 859 787z"/>
<path style="fill:#495990; stroke:none;" d="M860.667 787.333L861.333 787.667L860.667 787.333M866 787L867 788L866 787z"/>
<path style="fill:#4a9ab0; stroke:none;" d="M875 789L875 790L880 788L875 789z"/>
<path style="fill:#3c3868; stroke:none;" d="M880.004 787.819C863.496 793.825 872.605 819.471 888.999 812.995C904.985 806.679 895.986 782.004 880.004 787.819z"/>
<path style="fill:#4a9ab0; stroke:none;" d="M888.667 787.333L889.333 787.667L888.667 787.333z"/>
<path style="fill:#495990; stroke:none;" d="M902.667 787.333L903.333 787.667L902.667 787.333z"/>
<path style="fill:#3c3868; stroke:none;" d="M920 814C936.739 813.941 930.47 779.169 911 791L910 787C899.93 787.244 901.999 794.985 902 803C902 806.025 900.973 811.603 904.314 813.253C906.38 814.273 909.162 813.827 910.258 811.682C912.357 807.574 909.886 802.301 911.603 798.059C916.004 787.184 920 801.787 920 806L920 814z"/>
<path style="fill:#495990; stroke:none;" d="M910 787L911 791L915 789L915 788L910 787z"/>
<path style="fill:#4a9ab0; stroke:none;" d="M911 787L912 788L911 787M915 787L916 788L915 787z"/>
<path style="fill:#495990; stroke:none;" d="M916 787L916 788L923 788L916 787z"/>
<path style="fill:#4a9ab0; stroke:none;" d="M923 787L924 788L923 787M959 789L962 788L959 789z"/>
<path style="fill:#495990; stroke:none;" d="M962 787L962 788L970 788L962 787z"/>
<path style="fill:#4a9ab0; stroke:none;" d="M970.667 787.333L971.333 787.667L970.667 787.333z"/>
<path style="fill:#fe4e46; stroke:none;" d="M1023 787L1023 814L1032 814C1032 810.662 1030.5 791.457 1038.57 796.086C1042.95 798.602 1041 809.746 1041 814L1051 813C1048.75 801.445 1051.85 778.878 1032 790C1031.1 785.783 1026.64 787 1023 787M1072 812L1082 814L1082 787L1072 789C1047.84 778.764 1047.55 822.36 1072 812M1105 811C1105.9 815.217 1110.36 814 1114 814L1114 787L1105 787C1105 789.97 1105.55 811.53 1097.6 804.238C1094.18 801.094 1096 791.269 1096 787C1093.37 787.002 1088.89 786.254 1087.03 788.603C1084.92 791.266 1086.02 796.925 1086.42 800C1087.91 811.141 1093.6 817.924 1105 811M1176 787.858C1158.85 794.899 1171.88 820.551 1188.91 812.852C1205.01 805.575 1192.38 781.134 1176 787.858M1200 787L1200 814L1209 814C1209 805.874 1207.72 797.565 1218 797L1218 787L1209 791L1209 787L1200 787M1220 787L1220 814L1229 814L1229 787L1220 787M1232 787L1232 795L1242 795C1237.16 801.826 1232.03 805.07 1232 814L1254 814L1254 806L1243 806C1248.98 800.02 1253.92 795.84 1254 787L1232 787M1281 804C1275.54 805.301 1268.01 807.784 1265 802L1282 802C1281.84 783.726 1255.81 781.547 1255.13 800C1254.57 815.465 1279.2 819.84 1281 804z"/>
<path style="fill:#495990; stroke:none;" d="M666 788L666 792L667 792L666 788z"/>
<path style="fill:#4a9ab0; stroke:none;" d="M675 788L676 789L675 788M698 788L696 789L696 790L698 788z"/>
<path style="fill:#495990; stroke:none;" d="M699 788L700 789L699 788M709 788L711 790L709 788z"/>
<path style="fill:#4a9ab0; stroke:none;" d="M710 788L711 789L710 788M718.333 788.667L718.667 789.333L718.333 788.667z"/>
<path style="fill:#495990; stroke:none;" d="M734 791L738 789L734 791z"/>
<path style="fill:#3c3868; stroke:none;" d="M748 805L732 806C736.06 813.639 756.174 818.508 754.042 805.015C752.973 798.247 743.812 798.591 740 794L754 796C750.27 777.907 724.347 794.176 737.133 801.277C740.396 803.089 744.494 803.712 748 805z"/>
<path style="fill:#495990; stroke:none;" d="M749 788L752 790L752 789L749 788z"/>
<path style="fill:#4a9ab0; stroke:none;" d="M750 788L751 789L750 788M782.333 788.667L782.667 789.333L782.333 788.667M799 788L800 789L799 788M815 788L816 789L815 788z"/>
<path style="fill:#495990; stroke:none;" d="M816 788L817 789L816 788z"/>
<path style="fill:#3c3868; stroke:none;" d="M835 804C831.244 804.258 825.461 806.707 822.109 806.098C817.348 805.233 817.073 797.018 821.228 795.171C824.091 793.899 831.487 796.741 835 797C831.005 783.668 810.514 785.38 810.058 800C809.572 815.593 830.39 818.308 835 804z"/>
<path style="fill:#495990; stroke:none;" d="M828 788L829 789L828 788z"/>
<path style="fill:#4a9ab0; stroke:none;" d="M829 788L830 789L829 788z"/>
<path style="fill:#495990; stroke:none;" d="M878 788L879 789L878 788M890 788L891 789L890 788z"/>
<path style="fill:#4a9ab0; stroke:none;" d="M891 788L892 789L891 788M901 788L902 789L901 788M913 788L914 789L913 788z"/>
<path style="fill:#495990; stroke:none;" d="M924 788L928 792L924 788z"/>
<path style="fill:#4a9ab0; stroke:none;" d="M925 788L926 789L925 788z"/>
<path style="fill:#3c3868; stroke:none;" d="M970 804C966.955 809.453 960.383 805.019 955 805C957.591 811.544 963.851 815.56 970.996 813.145C976.115 811.415 980.34 805.364 975.347 800.843C972.332 798.113 966.761 797.402 963 796L963 794L977 795C970.807 777.629 946.167 796.015 962.018 801.79C964.607 802.733 967.321 803.386 970 804z"/>
<path style="fill:#495990; stroke:none;" d="M972 788L972 789L976 791L976 790L972 788z"/>
<path style="fill:#4a9ab0; stroke:none;" d="M973 788L974 789L973 788M686 789L686 792L687 792L686 789z"/>
<path style="fill:#495990; stroke:none;" d="M698 789L699 790L698 789z"/>
<path style="fill:#4a9ab0; stroke:none;" d="M711 789L712 790L711 789M734 789L735 790L734 789z"/>
<path style="fill:#495990; stroke:none;" d="M799 789L800 790L799 789M814 789L815 790L814 789M830.667 789.333L831.333 789.667L830.667 789.333M876 789L877 790L876 789M892 789L895 792L892 789z"/>
<path style="fill:#4a9ab0; stroke:none;" d="M893 789L894 790L893 789M911 789L912 790L911 789z"/>
<path style="fill:#495990; stroke:none;" d="M920 789L921 790L920 789z"/>
<path style="fill:#4a9ab0; stroke:none;" d="M926 789L927 790L926 789z"/>
<path style="fill:#495990; stroke:none;" d="M958 789L959 790L958 789M968 789L969 790L968 789z"/>
<path style="fill:#4a9ab0; stroke:none;" d="M975 789L976 790L975 789M665.333 790.667L665.667 791.333L665.333 790.667z"/>
<path style="fill:#495990; stroke:none;" d="M696 790L697 791L696 790M752 790L753 791L752 790M782 790L783 791L782 790M791 790L790 792L791 790z"/>
<path style="fill:#4a9ab0; stroke:none;" d="M800.333 790.667L800.667 791.333L800.333 790.667z"/>
<path style="fill:#495990; stroke:none;" d="M813 790L814 791L813 790z"/>
<path style="fill:#4a9ab0; stroke:none;" d="M832 790L833 791L832 790z"/>
<path style="fill:#495990; stroke:none;" d="M858.333 790.667L858.667 791.333L858.333 790.667M874 790L875 791L874 790z"/>
<path style="fill:#4a9ab0; stroke:none;" d="M894 790L895 791L894 790M901 790L902 791L901 790M927 790L928 791L927 790z"/>
<path style="fill:#495990; stroke:none;" d="M957 790L958 791L957 790M674 791L675 792L674 791M712 791L713 792L712 791z"/>
<path style="fill:#4a9ab0; stroke:none;" d="M718 791L719 792L718 791M733 791L732 798L733 798L733 791M753 791L754 794L755 794L753 791M791 791L792 792L791 791z"/>
<path style="fill:#495990; stroke:none;" d="M812 791L813 792L812 791z"/>
<path style="fill:#4a9ab0; stroke:none;" d="M873 791L874 792L873 791z"/>
<path style="fill:#495990; stroke:none;" d="M890 791L891 792L890 791z"/>
<path style="fill:#4a9ab0; stroke:none;" d="M895 791L896 792L895 791M956 791L957 792L956 791M976 791L977 794L978 794L976 791M713 792L714 793L713 792z"/>
<path style="fill:#495990; stroke:none;" d="M733.333 792.667L733.667 793.333L733.333 792.667M753 792L754 793L753 792M781.333 792.667L781.667 793.333L781.333 792.667z"/>
<path style="fill:#fef5e5; stroke:none;" d="M790 792L788 801L794 801L790 792z"/>
<path style="fill:#495990; stroke:none;" d="M811.333 792.667L811.667 793.333L811.333 792.667M833 792L834 793L833 792M837 792L838 793L837 792M839 792L840 793L839 792M872 792L872 794L874 792L872 792z"/>
<path style="fill:#4a9ab0; stroke:none;" d="M928 792L929 793L928 792z"/>
<path style="fill:#495990; stroke:none;" d="M956 792L957 793L956 792M976 792L977 793L976 792M713 793L713 796L714 796L713 793M741 793L742 794L741 793z"/>
<path style="fill:#4a9ab0; stroke:none;" d="M742.667 793.333L743.333 793.667L742.667 793.333z"/>
<path style="fill:#495990; stroke:none;" d="M744.667 793.333L745.333 793.667L744.667 793.333M789 793L790 794L789 793M792 793L793 794L792 793z"/>
<path style="fill:#4a9ab0; stroke:none;" d="M801 793L802 794L801 793M834 793L835 794L834 793M896 793L897 794L896 793z"/>
<path style="fill:#495990; stroke:none;" d="M928.333 793.667L928.667 794.333L928.333 793.667z"/>
<path style="fill:#4a9ab0; stroke:none;" d="M955 793L955 798L956 798L955 793z"/>
<path style="fill:#495990; stroke:none;" d="M964 793L965 794L964 793z"/>
<path style="fill:#4a9ab0; stroke:none;" d="M965 793L965 794L970 796L965 793z"/>
<path style="fill:#495990; stroke:none;" d="M968 793L969 794L968 793M698.667 794.333L699.333 794.667L698.667 794.333z"/>
<path style="fill:#4a9ab0; stroke:none;" d="M700.667 794.333L701.333 794.667L700.667 794.333z"/>
<path style="fill:#495990; stroke:none;" d="M702 794L703 795L702 794M740.333 794.667L740.667 795.333L740.333 794.667M746 794L748 796L746 794M754.333 794.667L754.667 795.333L754.333 794.667z"/>
<path style="fill:#4a9ab0; stroke:none;" d="M780 794L781 795L780 794M789.333 794.667L789.667 795.333L789.333 794.667M792 794L793 795L792 794z"/>
<path style="fill:#495990; stroke:none;" d="M801.333 794.667L801.667 795.333L801.333 794.667z"/>
<path style="fill:#4a9ab0; stroke:none;" d="M810 794L811 795L810 794z"/>
<path style="fill:#495990; stroke:none;" d="M819 795L819 796L827 797C824.382 794.333 822.594 794.048 819 795M834 794L835 795L834 794z"/>
<path style="fill:#4a9ab0; stroke:none;" d="M837 794L838 795L837 794z"/>
<path style="fill:#495990; stroke:none;" d="M838.667 794.333L839.333 794.667L838.667 794.333M850 794L850 795L854 795L850 794z"/>
<path style="fill:#4a9ab0; stroke:none;" d="M871 794L872 795L871 794z"/>
<path style="fill:#495990; stroke:none;" d="M883 794L883 795L888 796L883 794M896 794L897 795L896 794M913 794L914 795L913 794z"/>
<path style="fill:#4a9ab0; stroke:none;" d="M914 794L915 795L914 794z"/>
<path style="fill:#495990; stroke:none;" d="M915 794L915 795L920 796L915 794M963.333 794.667L963.667 795.333L963.333 794.667M969 794L970 795L969 794M977 794L976 796L978 796L977 794z"/>
<path style="fill:#fef5e5; stroke:none;" d="M1265 798L1272 798C1270.47 793.405 1267.11 794.183 1265 798z"/>
<path style="fill:#4a9ab0; stroke:none;" d="M697 795L698 796L697 795M703 795L704 796L703 795M746 795L747 796L746 795z"/>
<path style="fill:#495990; stroke:none;" d="M780 795L781 796L780 795M793.333 795.667L793.667 796.333L793.333 795.667M810 795L811 796L810 795z"/>
<path style="fill:#4a9ab0; stroke:none;" d="M820 795L821 796L820 795M824 795L825 796L824 795M835.333 795.667L835.667 796.333L835.333 795.667z"/>
<path style="fill:#495990; stroke:none;" d="M840 795L840 806L841 806L840 795M849 795L850 796L849 795M871 795L872 796L871 795M881 795L880 797L881 795z"/>
<path style="fill:#fef5e5; stroke:none;" d="M882.314 796.086C878.093 798.458 880.601 807.606 885.775 804.914C890.702 802.351 887.382 793.239 882.314 796.086z"/>
<path style="fill:#4a9ab0; stroke:none;" d="M886 795L887 796L886 795M897 795L898 796L897 795M912 795L913 796L912 795M918 795L919 796L918 795z"/>
<path style="fill:#495990; stroke:none;" d="M970 795L971 796L970 795z"/>
<path style="fill:#fef5e5; stroke:none;" d="M1066.14 795.801C1060.95 797.658 1063.16 807.062 1068.86 805.288C1074.09 803.66 1071.96 793.724 1066.14 795.801M1180.31 796.072C1175.66 798.84 1179.3 808.303 1184.57 804.953C1189.1 802.073 1185.58 792.938 1180.31 796.072M1296.32 796.047C1291.61 798.941 1295.2 808.062 1300.76 804.957C1306.24 801.898 1301.73 792.719 1296.32 796.047z"/>
<path style="fill:#4a9ab0; stroke:none;" d="M696.333 796.667L696.667 797.333L696.333 796.667z"/>
<path style="fill:#495990; stroke:none;" d="M704 796L705 797L704 796z"/>
<path style="fill:#4a9ab0; stroke:none;" d="M714 796L714 814L715 814L714 796M741 796L742 797L741 796z"/>
<path style="fill:#495990; stroke:none;" d="M788 796L789 797L788 796z"/>
<path style="fill:#4a9ab0; stroke:none;" d="M802 796L803 797L802 796M809.333 796.667L809.667 797.333L809.333 796.667M819.333 796.667L819.667 797.333L819.333 796.667M825 796L826 797L825 796z"/>
<path style="fill:#495990; stroke:none;" d="M832 796L833 797L832 796z"/>
<path style="fill:#4a9ab0; stroke:none;" d="M849 796L850 806L851 806L849 796M870.333 796.667L870.667 797.333L870.333 796.667M887 796L888 797L887 796z"/>
<path style="fill:#495990; stroke:none;" d="M897.333 796.667L897.667 797.333L897.333 796.667M911 796L912 797L911 796z"/>
<path style="fill:#4a9ab0; stroke:none;" d="M919 796L920 797L919 796M929 796L929 814L930 814L929 796M964 796L965 797L964 796M704 797L705 798L704 797z"/>
<path style="fill:#495990; stroke:none;" d="M733.333 797.667L733.667 798.333L733.333 797.667M742.667 797.333L743.333 797.667L742.667 797.333z"/>
<path style="fill:#4a9ab0; stroke:none;" d="M744.667 797.333L745.333 797.667L744.667 797.333M779 797L780 798L779 797M788.333 797.667L788.667 798.333L788.333 797.667M793 797L794 798L793 797z"/>
<path style="fill:#495990; stroke:none;" d="M802.333 797.667L802.667 798.333L802.333 797.667M818 797L818 804L819 804L818 797z"/>
<path style="fill:#4a9ab0; stroke:none;" d="M827 797L827 798L832 798L827 797M833.667 797.333L834.333 797.667L833.667 797.333z"/>
<path style="fill:#495990; stroke:none;" d="M888 797L889 798L888 797z"/>
<path style="fill:#4a9ab0; stroke:none;" d="M911 797L912 798L911 797z"/>
<path style="fill:#495990; stroke:none;" d="M956.333 797.667L956.667 798.333L956.333 797.667M966.667 797.333L967.333 797.667L966.667 797.333M747.667 798.333L748.333 798.667L747.667 798.333z"/>
<path style="fill:#4a9ab0; stroke:none;" d="M749 798L750 799L749 798z"/>
<path style="fill:#495990; stroke:none;" d="M779 798L780 799L779 798M794 798L795 801L788 801L788 802L796 801L794 798z"/>
<path style="fill:#4a9ab0; stroke:none;" d="M803.333 798.667L803.667 799.333L803.333 798.667z"/>
<path style="fill:#495990; stroke:none;" d="M809 798L809 803L810 803L809 798M870 798L870 802L871 802L870 798z"/>
<path style="fill:#4a9ab0; stroke:none;" d="M888 798L889 799L888 798z"/>
<path style="fill:#495990; stroke:none;" d="M970.667 798.333L971.333 798.667L970.667 798.333z"/>
<path style="fill:#4a9ab0; stroke:none;" d="M972 798L973 799L972 798M733 799L734 800L733 799z"/>
<path style="fill:#495990; stroke:none;" d="M750 799L751 800L750 799z"/>
<path style="fill:#4a9ab0; stroke:none;" d="M751 799L752 800L751 799z"/>
<path style="fill:#495990; stroke:none;" d="M787 799L788 800L787 799M879 799L879 802L880 802L879 799z"/>
<path style="fill:#4a9ab0; stroke:none;" d="M956 799L957 800L956 799z"/>
<path style="fill:#495990; stroke:none;" d="M973 799L974 800L973 799z"/>
<path style="fill:#4a9ab0; stroke:none;" d="M974 799L975 800L974 799M734 800L735 801L734 800z"/>
<path style="fill:#495990; stroke:none;" d="M752 800L753 801L752 800z"/>
<path style="fill:#4a9ab0; stroke:none;" d="M753 800L755 803L753 800z"/>
<path style="fill:#495990; stroke:none;" d="M778.333 800.667L778.667 801.333L778.333 800.667z"/>
<path style="fill:#4a9ab0; stroke:none;" d="M787 800L788 801L787 800M794 800L795 801L794 800z"/>
<path style="fill:#495990; stroke:none;" d="M803.333 800.667L803.667 801.333L803.333 800.667z"/>
<path style="fill:#4a9ab0; stroke:none;" d="M957 800L959 802L957 800z"/>
<path style="fill:#495990; stroke:none;" d="M958 800L959 801L958 800M736.667 801.333L737.333 801.667L736.667 801.333M959.667 801.333L960.333 801.667L959.667 801.333z"/>
<path style="fill:#4a9ab0; stroke:none;" d="M976 801L977 802L976 801M738 802L739 803L738 802z"/>
<path style="fill:#495990; stroke:none;" d="M739 802L740 803L739 802M753 802L754 803L753 802z"/>
<path style="fill:#4a9ab0; stroke:none;" d="M777 802L778 803L777 802M804 802L805 803L804 802M870 802L870 805L871 805L870 802M888 802L889 803L888 802M960.667 802.333L961.333 802.667L960.667 802.333z"/>
<path style="fill:#495990; stroke:none;" d="M962 802L962 803L965 803L962 802z"/>
<path style="fill:#4a9ab0; stroke:none;" d="M977 802L978 803L977 802M742 803L743 804L742 803z"/>
<path style="fill:#495990; stroke:none;" d="M743.667 803.333L744.333 803.667L743.667 803.333M754.333 803.667L754.667 804.333L754.333 803.667M777 803L778 804L777 803M804 803L805 804L804 803z"/>
<path style="fill:#4a9ab0; stroke:none;" d="M809.333 803.667L809.667 804.333L809.333 803.667M824 806L835 804C830.934 802.294 827.07 802.865 824 806z"/>
<path style="fill:#495990; stroke:none;" d="M888 803L889 804L888 803z"/>
<path style="fill:#4a9ab0; stroke:none;" d="M964.667 803.333L965.333 803.667L964.667 803.333z"/>
<path style="fill:#495990; stroke:none;" d="M966.667 803.333L967.333 803.667L966.667 803.333M977 803L978 804L977 803z"/>
<path style="fill:#4a9ab0; stroke:none;" d="M745 804L746 807L740 805C742.164 807.185 747.708 808.484 745 804z"/>
<path style="fill:#495990; stroke:none;" d="M746 804L747 805L746 804z"/>
<path style="fill:#4a9ab0; stroke:none;" d="M805 804L806 805L805 804M819 804L821 806L819 804z"/>
<path style="fill:#495990; stroke:none;" d="M826 804L827 805L826 804M832 804L833 805L832 804z"/>
<path style="fill:#4a9ab0; stroke:none;" d="M835.333 804.667L835.667 805.333L835.333 804.667M880 804L881 805L880 804M887 804L886 806L887 804z"/>
<path style="fill:#495990; stroke:none;" d="M897 804L898 805L897 804z"/>
<path style="fill:#4a9ab0; stroke:none;" d="M968 804L969 807L970 807L968 804z"/>
<path style="fill:#495990; stroke:none;" d="M969 804L970 805L969 804z"/>
<path style="fill:#4a9ab0; stroke:none;" d="M731.333 805.667L731.667 806.333L731.333 805.667z"/>
<path style="fill:#495990; stroke:none;" d="M732 805L733 806L732 805M747 805L748 806L747 805z"/>
<path style="fill:#4a9ab0; stroke:none;" d="M776 805L777 806L776 805z"/>
<path style="fill:#495990; stroke:none;" d="M805.333 805.667L805.667 806.333L805.333 805.667M810 805L811 806L810 805M819 805L820 806L819 805M825 805L826 806L825 805M849 805L850 806L849 805M871 805L872 806L871 805z"/>
<path style="fill:#4a9ab0; stroke:none;" d="M881 805L882 806L881 805z"/>
<path style="fill:#495990; stroke:none;" d="M887 805L888 806L887 805z"/>
<path style="fill:#4a9ab0; stroke:none;" d="M897 805L898 806L897 805M954 805L955 809L956 809L954 805M963 805L964 806L963 805M978 805L979 806L978 805z"/>
<path style="fill:#495990; stroke:none;" d="M740 806L741 807L740 806M754 806L754 809L755 809L754 806z"/>
<path style="fill:#4a9ab0; stroke:none;" d="M755.333 806.667L755.667 807.333L755.333 806.667z"/>
<path style="fill:#495990; stroke:none;" d="M776 806L777 807L776 806z"/>
<path style="fill:#4a9ab0; stroke:none;" d="M810.333 806.667L810.667 807.333L810.333 806.667z"/>
<path style="fill:#495990; stroke:none;" d="M820.667 806.333L821.333 806.667L820.667 806.333z"/>
<path style="fill:#4a9ab0; stroke:none;" d="M822 806L823 807L822 806z"/>
<path style="fill:#495990; stroke:none;" d="M823.667 806.333L824.333 806.667L823.667 806.333M834 806L835 807L834 806z"/>
<path style="fill:#4a9ab0; stroke:none;" d="M840.333 806.667L840.667 807.333L840.333 806.667z"/>
<path style="fill:#495990; stroke:none;" d="M851 806L851 807L854 807L851 806z"/>
<path style="fill:#4a9ab0; stroke:none;" d="M854 806L854 814L855 814L854 806M871.333 806.667L871.667 807.333L871.333 806.667z"/>
<path style="fill:#495990; stroke:none;" d="M882 806L882 807L886 807L882 806M896.333 806.667L896.667 807.333L896.333 806.667M955.333 806.667L955.667 807.333L955.333 806.667M963 806L964 807L963 806M732 807L733 808L732 807M741 807L742 808L741 807M746 807L747 808L746 807z"/>
<path style="fill:#4a9ab0; stroke:none;" d="M806 807L807 808L806 807M834 807L835 808L834 807z"/>
<path style="fill:#495990; stroke:none;" d="M841.333 807.667L841.667 808.333L841.333 807.667M964.667 807.333L965.333 807.667L964.667 807.333z"/>
<path style="fill:#4a9ab0; stroke:none;" d="M966 807L966 808L969 808L966 807M665 808L665 814L666 814L665 808z"/>
<path style="fill:#495990; stroke:none;" d="M666 808L667 809L666 808z"/>
<path style="fill:#4a9ab0; stroke:none;" d="M686.333 808.667L686.667 809.333L686.333 808.667M732 808L733 809L732 808z"/>
<path style="fill:#495990; stroke:none;" d="M752 808L753 809L752 808M775.333 808.667L775.667 809.333L775.333 808.667z"/>
<path style="fill:#4a9ab0; stroke:none;" d="M785 808L786 809L785 808M787 808L787 809L790 809L787 808M791 808L791 809L795 809L791 808M796 808L797 811L798 811L796 808z"/>
<path style="fill:#495990; stroke:none;" d="M797 808L798 809L797 808M806.333 808.667L806.667 809.333L806.333 808.667z"/>
<path style="fill:#4a9ab0; stroke:none;" d="M811 808L812 809L811 808z"/>
<path style="fill:#495990; stroke:none;" d="M814 808L815 809L814 808M833 808L832 810L833 808M844 808L845 809L844 808z"/>
<path style="fill:#4a9ab0; stroke:none;" d="M857 808L857 814L858 814L857 808z"/>
<path style="fill:#495990; stroke:none;" d="M858 808L859 809L858 808z"/>
<path style="fill:#4a9ab0; stroke:none;" d="M872 808L874 810L872 808z"/>
<path style="fill:#495990; stroke:none;" d="M873 808L874 809L873 808z"/>
<path style="fill:#4a9ab0; stroke:none;" d="M901 808L901 813L902 813L901 808z"/>
<path style="fill:#495990; stroke:none;" d="M959 808L960 809L959 808z"/>
<path style="fill:#4a9ab0; stroke:none;" d="M977.333 808.667L977.667 809.333L977.333 808.667z"/>
<path style="fill:#495990; stroke:none;" d="M733 809L734 810L733 809z"/>
<path style="fill:#4a9ab0; stroke:none;" d="M754 809L755 810L754 809z"/>
<path style="fill:#495990; stroke:none;" d="M784 809L785 810L784 809M812 809L814 811L812 809z"/>
<path style="fill:#4a9ab0; stroke:none;" d="M833 809L834 810L833 809M841 809L842 810L841 809z"/>
<path style="fill:#495990; stroke:none;" d="M890 809L891 810L890 809M894 809L892 812L894 809z"/>
<path style="fill:#4a9ab0; stroke:none;" d="M895 809L896 810L895 809z"/>
<path style="fill:#495990; stroke:none;" d="M956 809L957 810L956 809z"/>
<path style="fill:#4a9ab0; stroke:none;" d="M718 810L719 811L718 810z"/>
<path style="fill:#495990; stroke:none;" d="M734 810L736 812L734 810M753 810L754 811L753 810z"/>
<path style="fill:#4a9ab0; stroke:none;" d="M774.333 810.667L774.667 811.333L774.333 810.667M784 810L785 811L784 810z"/>
<path style="fill:#495990; stroke:none;" d="M798.333 810.667L798.667 811.333L798.333 810.667z"/>
<path style="fill:#4a9ab0; stroke:none;" d="M807 810L808 811L807 810M812 810L813 811L812 810M832 810L833 811L832 810z"/>
<path style="fill:#495990; stroke:none;" d="M842 810L843 811L842 810M874 810L875 811L874 810z"/>
<path style="fill:#4a9ab0; stroke:none;" d="M894 810L895 811L894 810z"/>
<path style="fill:#495990; stroke:none;" d="M957 810L959 812L957 810z"/>
<path style="fill:#4a9ab0; stroke:none;" d="M976 810L977 811L976 810z"/>
<path style="fill:#495990; stroke:none;" d="M674 811L675 812L674 811M705 811L706 812L705 811z"/>
<path style="fill:#4a9ab0; stroke:none;" d="M734 811L735 812L734 811M752 811L753 812L752 811z"/>
<path style="fill:#495990; stroke:none;" d="M807 811L808 812L807 811M814 811L815 812L814 811M824 811L825 812L824 811M830 811L831 812L830 811z"/>
<path style="fill:#4a9ab0; stroke:none;" d="M831 811L832 812L831 811z"/>
<path style="fill:#495990; stroke:none;" d="M843 811L844 812L843 811M866 811L867 812L866 811z"/>
<path style="fill:#4a9ab0; stroke:none;" d="M875 811L877 813L875 811z"/>
<path style="fill:#495990; stroke:none;" d="M876 811L877 812L876 811z"/>
<path style="fill:#4a9ab0; stroke:none;" d="M893 811L894 812L893 811M957 811L958 812L957 811z"/>
<path style="fill:#495990; stroke:none;" d="M973 813L976 812L973 813z"/>
<path style="fill:#4a9ab0; stroke:none;" d="M686 812L687 813L686 812M718.333 812.667L718.667 813.333L718.333 812.667z"/>
<path style="fill:#495990; stroke:none;" d="M736.667 812.333L737.333 812.667L736.667 812.333M744 812L745 813L744 812M750.667 812.333L751.333 812.667L750.667 812.333M774 812L774 814L776 814L774 812z"/>
<path style="fill:#4a9ab0; stroke:none;" d="M798.333 812.667L798.667 813.333L798.333 812.667M815 812L818 814L818 813L815 812z"/>
<path style="fill:#495990; stroke:none;" d="M816 812L817 813L816 812M828 812L829 813L828 812z"/>
<path style="fill:#4a9ab0; stroke:none;" d="M829 812L830 813L829 812M844 812L845 813L844 812z"/>
<path style="fill:#495990; stroke:none;" d="M845 812L846 813L845 812M877.667 812.333L878.333 812.667L877.667 812.333M890 812L891 813L890 812z"/>
<path style="fill:#4a9ab0; stroke:none;" d="M891 812L892 813L891 812z"/>
<path style="fill:#495990; stroke:none;" d="M910.333 812.667L910.667 813.333L910.333 812.667z"/>
<path style="fill:#4a9ab0; stroke:none;" d="M941 812L942 813L941 812z"/>
<path style="fill:#495990; stroke:none;" d="M950.333 812.667L950.667 813.333L950.333 812.667z"/>
<path style="fill:#4a9ab0; stroke:none;" d="M959 812L959 813L963 814L963 813L959 812z"/>
<path style="fill:#495990; stroke:none;" d="M960 812L961 813L960 812z"/>
<path style="fill:#4a9ab0; stroke:none;" d="M974 812L975 813L974 812z"/>
<path style="fill:#495990; stroke:none;" d="M666 813L667 814L666 813M669 813L670 814L669 813M671 813L671 814L675 814L671 813M687 813L688 814L687 813M705 813L706 814L705 813M712.667 813.333L713.333 813.667L712.667 813.333M719 813L720 814L719 813z"/>
<path style="fill:#4a9ab0; stroke:none;" d="M738 813L739 814L738 813z"/>
<path style="fill:#495990; stroke:none;" d="M739.667 813.333L740.333 813.667L739.667 813.333M748 813L749 814L748 813z"/>
<path style="fill:#4a9ab0; stroke:none;" d="M749 813L750 814L749 813M773 813L774 814L773 813z"/>
<path style="fill:#495990; stroke:none;" d="M781 813L781 814L784 814L781 813M799 813L800 814L799 813z"/>
<path style="fill:#4a9ab0; stroke:none;" d="M808 813L809 814L808 813z"/>
<path style="fill:#495990; stroke:none;" d="M818.667 813.333L819.333 813.667L818.667 813.333M825.667 813.333L826.333 813.667L825.667 813.333z"/>
<path style="fill:#4a9ab0; stroke:none;" d="M827.667 813.333L828.333 813.667L827.667 813.333M846.667 813.333L847.333 813.667L846.667 813.333z"/>
<path style="fill:#495990; stroke:none;" d="M848 813L849 814L848 813M853 813L854 814L853 813M858 813L859 814L858 813M861 813L862 814L861 813M863 813L863 814L867 814L863 813z"/>
<path style="fill:#4a9ab0; stroke:none;" d="M878.667 813.333L879.333 813.667L878.667 813.333z"/>
<path style="fill:#495990; stroke:none;" d="M888 813L889 814L888 813z"/>
<path style="fill:#4a9ab0; stroke:none;" d="M889 813L890 814L889 813z"/>
<path style="fill:#495990; stroke:none;" d="M902.667 813.333L903.333 813.667L902.667 813.333z"/>
<path style="fill:#4a9ab0; stroke:none;" d="M911 813L912 814L911 813z"/>
<path style="fill:#495990; stroke:none;" d="M928 813L929 814L928 813M942.667 813.333L943.333 813.667L942.667 813.333z"/>
<path style="fill:#4a9ab0; stroke:none;" d="M951 813L952 814L951 813z"/>
<path style="fill:#495990; stroke:none;" d="M963 813L964 814L963 813M970.667 813.333L971.333 813.667L970.667 813.333z"/>
<path style="fill:#4a9ab0; stroke:none;" d="M972 813L973 814L972 813M743.667 814.333L744.333 814.667L743.667 814.333M823 814L824 815L823 814M967 814L968 815L967 814z"/>
</svg>
